<?xml version="1.0" standalone="no"?>
<!DOCTYPE svg PUBLIC "-//W3C//DTD SVG 1.1//EN" "http://www.w3.org/Graphics/SVG/1.1/DTD/svg11.dtd" >
<svg>
<metadata>
Created by FontForge 20090914 at Fri Dec 18 05:46:44 2015
 By www-data
&#194;&#169; 1996, 2001 Adobe Systems Incorporated. All rights reserved. Protected by U.S. Patents D407,105; D407,106.
</metadata>
<defs>
<font id="CronosPro-LtIt" horiz-adv-x="275" >
  <font-face 
    font-family="Cronos Pro Light"
    font-weight="300"
    font-style="italic"
    font-stretch="normal"
    units-per-em="1000"
    panose-1="2 12 4 2 3 4 3 9 3 4"
    ascent="780"
    descent="-220"
    x-height="443"
    cap-height="627.999"
    bbox="-192 -263.144 1124.04 875.999"
    underline-thickness="50"
    underline-position="-50"
    slope="-10"
    unicode-range="U+0020-U+FB04"
  />
<missing-glyph horiz-adv-x="500" 
d="M0 0v700h500v-700h-500zM250 395l170 255h-340zM280 350l170 -255v510zM80 50h340l-170 255zM50 605v-510l170 255z" />
    <glyph glyph-name="T_h" unicode="Th" horiz-adv-x="912" 
d="M277 586l-196.998 -0.00585938c-10.667 0 -17.667 1.33301 -21 4s-4.33301 6.33398 -3 11.001c2.66699 12.667 9 22.334 19 29.001c13.333 -3.33301 63 -5 149 -5h326c0.666992 7.33301 1.5 15.333 2.5 24s1.83301 15 2.5 19c16 8 30 12 42 12c6 0 7.33301 -12.667 4 -38
c-0.666992 -3.33301 -1 -6 -1 -8l-56 -385c34 65.333 72.167 114.5 114.5 147.5s81.166 49.5 116.499 49.5c58.667 0 80.334 -50.333 65.001 -151l-14.5 -83c-6.33301 -36.667 -10.5 -61.334 -12.5 -74.001c-12 -69.333 -18 -115.666 -18 -138.999
c-14.667 -7.33301 -29.334 -11 -44.001 -11c-2 0 -3.16699 3.83301 -3.5 11.5s1 22.834 4 45.501s7.5 51.667 13.5 87c1.33301 6.66699 5.5 30.834 12.5 72.501s12.833 78.167 17.5 109.5c9.33301 60 -2.33398 90 -35.001 90c-44 0 -91.5 -32.167 -142.5 -96.5
s-85.167 -151.166 -102.5 -260.499c-4.66699 -26 -9 -41 -13 -45c-6.66699 -5.33301 -21.667 -8.66602 -45 -9.99902c22 116 51.667 314 89 594h-217l-63 -463c-8 -62.667 -13 -104 -15 -124c-10.667 -3.33301 -25.667 -5 -45 -5c-4.66699 0 -7 5.66699 -7 17z" />
    <glyph glyph-name="T_h.swash" unicode="&#xe0c1;h" horiz-adv-x="952" 
d="M813 446l0.999023 -0.000976562c58 0 79.333 -50.333 64 -151l-27 -157c-12 -68 -18.333 -114.333 -19 -139c-14.667 -7.33301 -29.667 -11 -45 -11c-1.33301 0 -2.16602 3.66699 -2.49902 11s1 22.5 4 45.5s7.5 52.167 13.5 87.5l31 182
c10.667 60 -0.666016 90 -33.999 90c-43.333 0 -90.666 -31.5 -141.999 -94.5s-86 -149.5 -104 -259.5c-4.66699 -28 -9 -44 -13 -48c-6.66699 -5.33301 -21.667 -8.66602 -45 -9.99902c21.333 120 51 319.333 89 598c-14.667 -6.66699 -31 -10 -49 -10
c-14.667 0 -43.5 1.16699 -86.5 3.5s-68.167 3.5 -75.5 3.5c-30.667 -219.333 -59.667 -415 -87 -587c-10.667 -4 -24.667 -6 -42 -6c-6 0 -9 6 -9 18l27 172.5l36 238l25 167.5c-16 0.666992 -46 1 -90 1c-88.667 0 -143 -37 -163 -111c-6 0 -12 2.33301 -18 7
s-9 9.66699 -9 15c0 14.667 4.33301 28.667 13 42c34.667 58 96.667 87 186 87c35.333 0 90.666 -1.83301 165.999 -5.5s117.666 -5.5 126.999 -5.5c21.333 0 39.333 3.66699 54 11c2 18 3.33301 30.333 4 37c16 8 30 12 42 12c6 0 7.33301 -12.667 4 -38
c-0.666992 -3.33301 -1 -6 -1 -8l-56 -385c26.667 50 56.667 90.833 90 122.5s60.833 52 82.5 61s41.167 13.5 58.5 13.5z" />
    <glyph glyph-name="T_hbar" unicode="T&#x127;" horiz-adv-x="916" 
d="M596 586c-2.66699 -20 -9.16895 -64.3359 -19.502 -133.003l-30.5 -202c34 64 72.333 112.5 115 145.5s81.334 49.5 116.001 49.5c58.667 0 80.334 -50.333 65.001 -151l-14.5 -83c-6.33301 -36.667 -10.5 -61.334 -12.5 -74.001
c-11.333 -66 -17.666 -112.333 -18.999 -139c-14.667 -7.33301 -29.334 -11 -44.001 -11c-2 0 -3.16699 3.83301 -3.5 11.5s1 22.834 4 45.501s7.5 51.667 13.5 87l31 182c4.66699 25.333 4.5 46.666 -0.5 63.999s-16.167 26 -33.5 26c-44 0 -91.667 -31.833 -143 -95.5
s-85.666 -150.834 -102.999 -261.501c-4.66699 -26 -9 -41 -13 -45c-6.66699 -5.33301 -21.667 -8.66602 -45 -9.99902c18.667 101.333 48.334 299.333 89.001 594h-218l-63 -463c-9.33301 -73.333 -14.333 -114.666 -15 -123.999c-10.667 -3.33301 -25.667 -5 -45 -5
c-6.66699 0 -9.33398 5.66699 -8.00098 17l79 575h-197c-10.667 0 -17.834 1.5 -21.501 4.5s-4.83398 6.5 -3.50098 10.5c8 15.333 14.667 25 20 29c13.333 -3.33301 63 -5 149 -5h327c0.666992 7.33301 1.5 15.333 2.5 24s1.83301 15 2.5 19c16 8 30 12 42 12
c2.66699 0 4.5 -1.66699 5.5 -5s1.5 -7.66602 1.5 -12.999s-0.333008 -10.166 -1 -14.499s-1.66699 -9.16602 -3 -14.499l-1 -8h172c-0.666992 -16 -5.16699 -26.5 -13.5 -31.5s-22.166 -7.5 -41.499 -7.5h-122z" />
    <glyph glyph-name="T_hcircumflex" unicode="T&#x125;" horiz-adv-x="912" 
d="M277 586l-196.998 -0.00585938c-10.667 0 -17.667 1.33301 -21 4s-4.33301 6.33398 -3 11.001c2.66699 12.667 9 22.334 19 29.001c13.333 -3.33301 63 -5 149 -5h326c0.666992 7.33301 1.5 15.333 2.5 24s1.83301 15 2.5 19c16 8 30 12 42 12c6 0 7.33301 -12.667 4 -38
c-0.666992 -3.33301 -1 -6 -1 -8l-56 -385c34 65.333 72.167 114.5 114.5 147.5s81.166 49.5 116.499 49.5c58.667 0 80.334 -50.333 65.001 -151l-14.5 -83c-6.33301 -36.667 -10.5 -61.334 -12.5 -74.001c-12 -69.333 -18 -115.666 -18 -138.999
c-14.667 -7.33301 -29.334 -11 -44.001 -11c-2 0 -3.16699 3.83301 -3.5 11.5s1 22.834 4 45.501s7.5 51.667 13.5 87c1.33301 6.66699 5.5 30.834 12.5 72.501s12.833 78.167 17.5 109.5c9.33301 60 -2.33398 90 -35.001 90c-44 0 -91.5 -32.167 -142.5 -96.5
s-85.167 -151.166 -102.5 -260.499c-4.66699 -26 -9 -41 -13 -45c-6.66699 -5.33301 -21.667 -8.66602 -45 -9.99902c22 116 51.667 314 89 594h-217l-63 -463c-8 -62.667 -13 -104 -15 -124c-10.667 -3.33301 -25.667 -5 -45 -5c-4.66699 0 -7 5.66699 -7 17z
M501.002 685.994l-0.998047 0.000976562c-8 0 -15.667 3.66699 -23 11c37.333 32 71 63 101 93c4 3.33301 8.33301 6.66602 13 9.99902c6 1.33301 11 2 15 2c21.333 -32 50.333 -65.333 87 -100c-7.33301 -10.667 -16 -16 -26 -16c-8.66699 0 -14.334 2 -17.001 6
c-8 6 -27.333 25.667 -58 59c-30 -28 -53.667 -47.333 -71 -58c-10.667 -4.66699 -17.334 -7 -20.001 -7z" />
    <glyph glyph-name="Tbar_h" unicode="&#x166;h" horiz-adv-x="915" 
d="M602 634l-56.0049 -384c34.667 64.667 73.334 113.5 116.001 146.5s81.334 49.5 116.001 49.5c58.667 0 80.334 -50.333 65.001 -151l-14.5 -83c-6.33301 -36.667 -10.5 -61.334 -12.5 -74.001c-11.333 -66 -17.666 -112.333 -18.999 -139
c-14.667 -7.33301 -29.334 -11 -44.001 -11c-2 0 -3.16699 3.83301 -3.5 11.5s1 22.834 4 45.501s7.5 51.667 13.5 87l31 182c4.66699 25.333 4.5 46.666 -0.5 63.999s-16.167 26 -33.5 26c-44 0 -91.667 -31.833 -143 -95.5s-86 -150.834 -104 -261.501
c-4.66699 -26 -9 -41 -13 -45c-6.66699 -5.33301 -21.667 -8.66602 -45 -9.99902c24.667 137.333 54.334 335.333 89.001 594h-218l-33 -243h110c-0.666992 -15.333 -5.16699 -25.333 -13.5 -30s-22.166 -7 -41.499 -7h-60l-25 -183
c-9.33301 -73.333 -14.333 -114.666 -15 -123.999c-10.667 -3.33301 -25.667 -5 -45 -5c-5.33301 0 -8 5.66699 -8 17l41 295h-100c2.66699 24.667 16.667 37 42 37h62l34 243h-197c-10 0 -17 1.5 -21 4.5s-5 6.83301 -3 11.5c6 14 12.333 23.333 19 28
c13.333 -3.33301 63 -5 149 -5h327c0.666992 7.33301 1.5 15.333 2.5 24s1.83301 15 2.5 19c16 8 30 12 42 12c6 0 7.33301 -12.667 4 -38c-0.666992 -3.33301 -1 -6 -1 -8z" />
    <glyph glyph-name="Tbar_h.swash" unicode="&#xe0c7;h" horiz-adv-x="951" 
d="M638 634c-2 -11.333 -5.33496 -34.333 -10.002 -69l-18.5 -131.5l-26.5 -181.5c34.667 64.667 73 113.167 115 145.5s80.333 48.5 115 48.5c58.667 0 80.334 -50.333 65.001 -151l-27 -157c-11.333 -66 -17.666 -112.333 -18.999 -139
c-14.667 -7.33301 -29.334 -11 -44.001 -11c-2 0 -3.16699 3.83301 -3.5 11.5s1 22.834 4 45.501s7.5 51.667 13.5 87l31 182c4.66699 25.333 4.5 46.666 -0.5 63.999s-16.167 26 -33.5 26c-44 0 -91.667 -31.833 -143 -95.5s-86 -150.834 -104 -261.501
c-4.66699 -26 -9 -41 -13 -45c-6.66699 -5.33301 -21.667 -8.66602 -45 -9.99902c22 116.667 52 315.667 90 597c-12 -6 -26 -9 -42 -9c-14 0 -43.833 1.16699 -89.5 3.5s-72.167 3.5 -79.5 3.5l-36 -244h110c-0.666992 -15.333 -5.16699 -25.333 -13.5 -30
s-22.166 -7 -41.499 -7h-61l-27 -184.5l-18 -121.5c-10.667 -4 -24.667 -6 -42 -6c-6 0 -9 6 -9 18l12 77.5l17 112l16 104.5h-100c2.66699 24.667 16.667 37 42 37h63l21 134.5c8.66699 56.333 14.334 93.833 17.001 112.5c-16 0.666992 -46 1 -90 1
c-88.667 0 -143 -37 -163 -111c-6 0 -12 2.33301 -18 7s-9 9.66699 -9 15c0 14.667 4.33301 28.667 13 42c34.667 58 96.667 87 186 87c35.333 0 92 -1.83301 170 -5.5s121.667 -5.5 131 -5.5c16 0 31.333 2.66699 46 8c1.33301 12 2.66602 25.333 3.99902 40
c16 8 30 12 42 12c6 0 7.33301 -12.667 4 -38c-0.666992 -3.33301 -1 -6 -1 -8z" />
    <glyph glyph-name="Tcaron_h" unicode="&#x164;h" horiz-adv-x="912" 
d="M277 586l-196.998 -0.00585938c-10.667 0 -17.667 1.33301 -21 4s-4.33301 6.33398 -3 11.001c2.66699 12.667 9 22.334 19 29.001c13.333 -3.33301 63 -5 149 -5h326c0.666992 7.33301 1.5 15.333 2.5 24s1.83301 15 2.5 19c16 8 30 12 42 12c6 0 7.33301 -12.667 4 -38
c-0.666992 -3.33301 -1 -6 -1 -8l-56 -385c34 65.333 72.167 114.5 114.5 147.5s81.166 49.5 116.499 49.5c58.667 0 80.334 -50.333 65.001 -151l-14.5 -83c-6.33301 -36.667 -10.5 -61.334 -12.5 -74.001c-12 -69.333 -18 -115.666 -18 -138.999
c-14.667 -7.33301 -29.334 -11 -44.001 -11c-2 0 -3.16699 3.83301 -3.5 11.5s1 22.834 4 45.501s7.5 51.667 13.5 87c1.33301 6.66699 5.5 30.834 12.5 72.501s12.833 78.167 17.5 109.5c9.33301 60 -2.33398 90 -35.001 90c-44 0 -91.5 -32.167 -142.5 -96.5
s-85.167 -151.166 -102.5 -260.499c-4.66699 -26 -9 -41 -13 -45c-6.66699 -5.33301 -21.667 -8.66602 -45 -9.99902c22 116 51.667 314 89 594h-217l-63 -463c-8 -62.667 -13 -104 -15 -124c-10.667 -3.33301 -25.667 -5 -45 -5c-4.66699 0 -7 5.66699 -7 17z
M406.002 780.994l1 0.00292969c8.66699 0 16.667 -3.66699 24 -11c-54.667 -48 -88.334 -79 -101.001 -93c-1.33301 -0.666992 -3.5 -2 -6.5 -4s-5.16699 -3.33301 -6.5 -4c-5.33301 -2.66699 -10.666 -4 -15.999 -4c-22.667 35.333 -51 68.666 -85 99.999
c5.33301 10.667 13.333 16 24 16c10 0 16.333 -1.66699 19 -5c14.667 -12.667 33.667 -32.334 57 -59.001c25.333 23.333 48.666 42.666 69.999 57.999c6.66699 4 13.334 6 20.001 6z" />
    <glyph glyph-name="Tcaron_h.swash" unicode="&#xe0cb;h" horiz-adv-x="952" 
d="M813 446l0.999023 -0.000976562c58 0 79.333 -50.333 64 -151l-27 -157c-12 -68 -18.333 -114.333 -19 -139c-14.667 -7.33301 -29.667 -11 -45 -11c-1.33301 0 -2.16602 3.66699 -2.49902 11s1 22.5 4 45.5s7.5 52.167 13.5 87.5l31 182
c10.667 60 -0.666016 90 -33.999 90c-43.333 0 -90.666 -31.5 -141.999 -94.5s-86 -149.5 -104 -259.5c-4.66699 -28 -9 -44 -13 -48c-6.66699 -5.33301 -21.667 -8.66602 -45 -9.99902c21.333 120 51 319.333 89 598c-14.667 -6.66699 -31 -10 -49 -10
c-14.667 0 -43.5 1.16699 -86.5 3.5s-68.167 3.5 -75.5 3.5c-30.667 -219.333 -59.667 -415 -87 -587c-10.667 -4 -24.667 -6 -42 -6c-6 0 -9 6 -9 18l27 172.5l36 238l25 167.5c-16 0.666992 -46 1 -90 1c-88.667 0 -143 -37 -163 -111c-6 0 -12 2.33301 -18 7
s-9 9.66699 -9 15c0 14.667 4.33301 28.667 13 42c34.667 58 96.667 87 186 87c35.333 0 90.666 -1.83301 165.999 -5.5s117.666 -5.5 126.999 -5.5c21.333 0 39.333 3.66699 54 11c2 18 3.33301 30.333 4 37c16 8 30 12 42 12c6 0 7.33301 -12.667 4 -38
c-0.666992 -3.33301 -1 -6 -1 -8l-56 -385c26.667 50 56.667 90.833 90 122.5s60.833 52 82.5 61s41.167 13.5 58.5 13.5zM453.999 780.999l1 0.00292969c8.66699 0 16.667 -3.66699 24 -11c-54.667 -48 -88.334 -79 -101.001 -93c-1.33301 -0.666992 -3.5 -2 -6.5 -4
s-5.16699 -3.33301 -6.5 -4c-5.33301 -2.66699 -10.666 -4 -15.999 -4c-22.667 35.333 -51 68.666 -85 99.999c5.33301 10.667 13.333 16 24 16c10 0 16.333 -1.66699 19 -5c14.667 -12.667 33.667 -32.334 57 -59.001c25.333 23.333 48.666 42.666 69.999 57.999
c6.66699 4 13.334 6 20.001 6z" />
    <glyph glyph-name="Tcommaaccent_h" unicode="&#x162;h" horiz-adv-x="912" 
d="M277 586l-196.998 -0.00585938c-10.667 0 -17.667 1.33301 -21 4s-4.33301 6.33398 -3 11.001c2.66699 12.667 9 22.334 19 29.001c13.333 -3.33301 63 -5 149 -5h326c0.666992 7.33301 1.5 15.333 2.5 24s1.83301 15 2.5 19c16 8 30 12 42 12c6 0 7.33301 -12.667 4 -38
c-0.666992 -3.33301 -1 -6 -1 -8l-56 -385c34 65.333 72.167 114.5 114.5 147.5s81.166 49.5 116.499 49.5c58.667 0 80.334 -50.333 65.001 -151l-14.5 -83c-6.33301 -36.667 -10.5 -61.334 -12.5 -74.001c-12 -69.333 -18 -115.666 -18 -138.999
c-14.667 -7.33301 -29.334 -11 -44.001 -11c-2 0 -3.16699 3.83301 -3.5 11.5s1 22.834 4 45.501s7.5 51.667 13.5 87c1.33301 6.66699 5.5 30.834 12.5 72.501s12.833 78.167 17.5 109.5c9.33301 60 -2.33398 90 -35.001 90c-44 0 -91.5 -32.167 -142.5 -96.5
s-85.167 -151.166 -102.5 -260.499c-4.66699 -26 -9 -41 -13 -45c-6.66699 -5.33301 -21.667 -8.66602 -45 -9.99902c22 116 51.667 314 89 594h-217l-63 -463c-8 -62.667 -13 -104 -15 -124c-10.667 -3.33301 -25.667 -5 -45 -5c-4.66699 0 -7 5.66699 -7 17z
M230.002 -34.0059h0.999023c9.33301 0 14 -10 14 -30c0 -26 -10.167 -55.333 -30.5 -88s-42.166 -56.334 -65.499 -71.001c-8.66699 -4 -20.667 -5.66699 -36 -5c42 48 65.667 95 71 141c0.666992 4.66699 1 16.334 1 35.001c16.667 12 31.667 18 45 18z" />
    <glyph glyph-name="Tcommaaccent_h.swash" unicode="&#xe0cf;h" horiz-adv-x="952" 
d="M813 446l0.999023 -0.000976562c58 0 79.333 -50.333 64 -151l-27 -157c-12 -68 -18.333 -114.333 -19 -139c-14.667 -7.33301 -29.667 -11 -45 -11c-1.33301 0 -2.16602 3.66699 -2.49902 11s1 22.5 4 45.5s7.5 52.167 13.5 87.5l31 182
c10.667 60 -0.666016 90 -33.999 90c-43.333 0 -90.666 -31.5 -141.999 -94.5s-86 -149.5 -104 -259.5c-4.66699 -28 -9 -44 -13 -48c-6.66699 -5.33301 -21.667 -8.66602 -45 -9.99902c21.333 120 51 319.333 89 598c-14.667 -6.66699 -31 -10 -49 -10
c-14.667 0 -43.5 1.16699 -86.5 3.5s-68.167 3.5 -75.5 3.5c-30.667 -219.333 -59.667 -415 -87 -587c-10.667 -4 -24.667 -6 -42 -6c-6 0 -9 6 -9 18l27 172.5l36 238l25 167.5c-16 0.666992 -46 1 -90 1c-88.667 0 -143 -37 -163 -111c-6 0 -12 2.33301 -18 7
s-9 9.66699 -9 15c0 14.667 4.33301 28.667 13 42c34.667 58 96.667 87 186 87c35.333 0 90.666 -1.83301 165.999 -5.5s117.666 -5.5 126.999 -5.5c21.333 0 39.333 3.66699 54 11c2 18 3.33301 30.333 4 37c16 8 30 12 42 12c6 0 7.33301 -12.667 4 -38
c-0.666992 -3.33301 -1 -6 -1 -8l-56 -385c26.667 50 56.667 90.833 90 122.5s60.833 52 82.5 61s41.167 13.5 58.5 13.5zM269.999 -34.001h0.999023c9.33301 0 14 -10 14 -30c0 -26 -10.167 -55.333 -30.5 -88s-42.166 -56.334 -65.499 -71.001
c-8.66699 -4 -20.667 -5.66699 -36 -5c42 48 65.667 95 71 141c0.666992 4.66699 1 16.334 1 35.001c16.667 12 31.667 18 45 18z" />
    <glyph glyph-name="f_f_j" unicode="ffj" horiz-adv-x="672" 
d="M95 387l-72.999 0.000976562c4.66699 24.667 14 37 28 37h50c20.667 161.333 87 242 199 242c42 0 76.333 -12 103 -36c28 36 68 54.667 120 56c17.333 0 34 -3.16699 50 -9.5s25.667 -11.833 29 -16.5c0.666992 -6.66699 -1.5 -13.334 -6.5 -20.001
s-11.167 -8.33398 -18.5 -5.00098c-18.667 9.33301 -37.334 14 -56.001 14c-38 0 -68.667 -16.5 -92 -49.5s-39.666 -91.5 -48.999 -175.5h180c9.33301 0 20.166 1.5 32.499 4.5s18.833 4.5 19.5 4.5c2.66699 0 4.5 -1 5.5 -3s1.33301 -7.16699 1 -15.5
s-1.5 -21.166 -3.5 -38.499c-20 -145.333 -34 -245 -42 -299c-5.33301 -36.667 -11.833 -68.334 -19.5 -95.001s-18.5 -52.667 -32.5 -78s-32.667 -44.5 -56 -57.5s-51 -19.5 -83 -19.5c-48 0 -84.667 13.333 -110 40c-30.667 -44.667 -78 -67 -142 -67
c-37.333 0 -69 11.333 -95 34c-26 -36 -60.333 -54 -103 -54c-19.333 0 -35.333 3.16699 -48 9.5s-20 12.5 -22 18.5c-2 4.66699 -2.5 10.334 -1.5 17.001s3.5 10.667 7.5 12c19.333 -12 40.333 -18 63 -18c38 0 64.667 19 80 57s31 112.667 47 224
c18 122 30.667 217.667 38 287zM147.001 424.001h186c10.667 78.667 27 137.667 49 177c-20 20 -48.667 30 -86 30c-84 0 -133.667 -69 -149 -207zM328.001 387.001l-187.001 -0.000976562c-18.667 -151.333 -34.334 -267.333 -47.001 -348
c-11.333 -84.667 -26 -142.667 -44 -174c20 -20 48 -30 84 -30c48.667 0 83.834 19.833 105.501 59.5s39.834 111.834 54.501 216.501c16 118.667 27.333 210.667 34 276zM569 387h-194c-11.333 -91.333 -25.333 -196 -42 -314c-9.33301 -74.667 -24.666 -134 -45.999 -178
c26 -20.667 58.333 -31 97 -31c36 0 65.167 14.167 87.5 42.5s38.833 74.5 49.5 138.5c8 49.333 17.667 116.333 29 201s17.666 131.667 18.999 141z" />
    <glyph glyph-name="f_j" unicode="fj" horiz-adv-x="443" 
d="M95 387l-73 0.00195312c4.66699 24.667 14 37 28 37h50c6 52.667 15.667 97.167 29 133.5s29.333 63.333 48 81s37 30 55 37s37.667 10.5 59 10.5c14.667 0 30.5 -3.16699 47.5 -9.5s27.5 -13.5 31.5 -21.5c0 -6.66699 -2.5 -13.334 -7.5 -20.001
s-11.167 -7.66699 -18.5 -3c-21.333 10.667 -40.666 16 -57.999 16c-38.667 0 -69.5 -17 -92.5 -51s-39.167 -91.667 -48.5 -173h179c9.33301 0 20.333 1.33301 33 4l19 4c2.66699 0 4.5 -0.333008 5.5 -1s1.66699 -2.83398 2 -6.50098s0.333008 -9.33398 0 -17.001
s-1.5 -18.167 -3.5 -31.5c-4 -26.667 -9 -63 -15 -109l-16 -120.5l-13 -92.5c-5.33301 -36.667 -12 -68.5 -20 -95.5s-19 -53 -33 -78s-32.833 -44.167 -56.5 -57.5s-51.5 -20 -83.5 -20c-44 0 -79.333 12.667 -106 38c-24.667 -40.667 -62.334 -61 -113.001 -61
c-22 0 -41.333 6.33301 -58 19c-4.66699 4.66699 -7 11.334 -7 20.001s2 14.667 6 18c21.333 -12 42.333 -18 63 -18c38 0 64.5 16.5 79.5 49.5s30.5 100.833 46.5 203.5c8 54.667 21.667 159.667 41 315zM336 387.002h-195.001c-16 -128 -32 -245.667 -48 -353
c-11.333 -72.667 -24.666 -127 -39.999 -163c25.333 -20.667 56.333 -31 93 -31s66 14.333 88 43s38.667 74.667 50 138z" />
    <glyph glyph-name="f_f" unicode="ff" horiz-adv-x="455" 
d="M95 387l-73.002 -0.000976562c4.66699 24 14 36.333 28 37h50c20.667 161.333 87 242 199 242c42.667 0 76.334 -11.667 101.001 -35c27.333 35.333 62 53.666 104 54.999c27.333 0 47.666 -6.66699 60.999 -20c-1.33301 -8 -4.16602 -14.833 -8.49902 -20.5
s-10.166 -6.83398 -17.499 -3.50098c-11.333 4.66699 -24.333 7 -39 7c-30.667 0 -56 -17 -76 -51s-35 -92 -45 -174c62.667 0 100 0.666992 112 2c-3.33301 -15.333 -11.666 -26.333 -24.999 -33c-8 -4 -39 -6 -93 -6c-12.667 -111.333 -26 -216 -40 -314
c-14.667 -105.333 -37.834 -177.166 -69.501 -215.499s-75.5 -57.5 -131.5 -57.5c-41.333 0 -74 11.333 -98 34c-26 -36 -60.333 -54 -103 -54c-20 0 -36.167 3.16699 -48.5 9.5s-19.5 12.5 -21.5 18.5c-2 4.66699 -2.5 10.334 -1.5 17.001s3.5 10.667 7.5 12
c18.667 -12 40.667 -18 66 -18c35.333 0 61 19.5 77 58.5s32 113.167 48 222.5c16 106.667 28.333 202.334 37 287.001zM146.998 423.999h185.999c10.667 78.667 27 137.667 49 177c-20 20 -49 30 -87 30c-83.333 0 -132.666 -69 -147.999 -207zM327.997 386.999
l-186.999 0.00292969c-18 -146.667 -33.667 -263 -47 -349c-11.333 -84.667 -26 -142.667 -44 -174c22 -20 50 -30 84 -30c48.667 0 84.167 20.5 106.5 61.5s40.166 112.833 53.499 215.5c2.66699 23.333 6.66699 55.166 12 95.499s9.83301 75.666 13.5 105.999
s6.5 55.166 8.5 74.499z" />
    <glyph glyph-name="fi" unicode="fi" horiz-adv-x="438" 
d="M335 387l-194.001 -0.00488281c-16 -128 -32 -245.667 -48 -353c-14 -94 -34 -159.833 -60 -197.5s-62.333 -56.5 -109 -56.5c-24 0 -43.667 6.66699 -59 20c-4.66699 4.66699 -7 11.334 -7 20.001s2 14.667 6 18c20 -12.667 40.667 -19 62 -19
c38.667 0 65.667 16.333 81 49s31 100 47 202c7.33301 48 21 153.667 41 317h-73c4.66699 24 14 36.333 28 37h50c6 52.667 15.667 97.334 29 134.001s29.333 63.667 48 81s36.834 29.5 54.501 36.5s37.167 10.5 58.5 10.5c14 0 30.167 -3.33301 48.5 -10
s29.166 -14 32.499 -22c0 -7.33301 -2.66699 -14.166 -8 -20.499s-11.666 -7.16602 -18.999 -2.49902c-22.667 11.333 -42 17 -58 17c-38 0 -68.5 -17 -91.5 -51s-39.5 -91.667 -49.5 -173h180c9.33301 0 20.333 2.16699 33 6.5s19.334 6.5 20.001 6.5
c2 0 3.5 -0.666992 4.5 -2s1.66699 -4.16602 2 -8.49902s0.166016 -10.5 -0.500977 -18.5s-2 -18.667 -4 -32c-28 -192 -45.333 -306.333 -52 -343c-2.66699 -14.667 -6.66699 -24.667 -12 -30c-8.66699 -8 -23 -12.667 -43 -14c24 140 44.667 272.667 62 398z" />
    <glyph glyph-name="fl" unicode="fl" horiz-adv-x="442" 
d="M96 388h-73c4.66699 23.333 14 35.333 28 36h50c21.333 174.667 88 262 200 262c30 0 55.667 -8.33301 77 -25c18 16 30 24 36 24c7.33301 0 8.66602 -14.667 3.99902 -44c-47.333 -310.667 -76.666 -507.667 -87.999 -591c-4 -28 -9.66699 -44.333 -17 -49
c-12.667 -6.66699 -25.667 -10.667 -39 -12c7.33301 43.333 27.333 176 60 398h-192c-28.667 -209.333 -45.334 -328.666 -50.001 -357.999c-14 -92 -34.333 -156.5 -61 -193.5s-62.334 -55.5 -107.001 -55.5c-27.333 0 -47.666 6.66699 -60.999 20
c-4.66699 5.33301 -6.66699 12.333 -6 21s3 14.667 7 18c20.667 -13.333 41.334 -20 62.001 -20c37.333 0 64 17 80 51s31.667 101.333 47 202c12.667 81.333 27 186.666 43 315.999zM338 424c16.667 107.333 26.3311 174.332 28.998 200.999
c-21.333 16 -44.666 24 -69.999 24c-43.333 0 -76.666 -18.167 -99.999 -54.5s-40 -93.166 -50 -170.499h191z" />
    <glyph glyph-name="f_f_i" unicode="ffi" horiz-adv-x="672" 
d="M95 387l-73 -0.000976562c4.66699 24 14 36.333 28 37h50c20.667 161.333 87.334 242 200.001 242c44 0 78.333 -12 103 -36c26.667 36 67.334 54.667 122.001 56c17.333 0 34.166 -3.16699 50.499 -9.5s25.833 -12.166 28.5 -17.499c0 -6 -2.5 -12.333 -7.5 -19
s-11.167 -8.33398 -18.5 -5.00098c-22.667 9.33301 -41.334 14 -56.001 14c-38.667 0 -69.834 -16.333 -93.501 -49s-40.5 -91.334 -50.5 -176.001h180c9.33301 0 20.5 2.16699 33.5 6.5s19.833 6.5 20.5 6.5c7.33301 0 8 -20.333 2 -61c-25.333 -172.667 -43 -287 -53 -343
c-2.66699 -14.667 -6.66699 -24.667 -12 -30c-9.33301 -8 -23.666 -12.667 -42.999 -14c24 140 44.667 272.667 62 398h-193c-11.333 -91.333 -25.333 -196 -42 -314c-14.667 -105.333 -37.667 -177.166 -69 -215.499s-75.333 -57.5 -132 -57.5
c-39.333 0 -72.666 11.333 -99.999 34c-24.667 -36 -58 -54 -100 -54c-20 0 -36.667 3.16699 -50 9.5s-21 12.5 -23 18.5c-2 4.66699 -2.16699 10.334 -0.5 17.001s4.5 10.667 8.5 12c17.333 -12 38.666 -18 63.999 -18c37.333 0 63.666 18.833 78.999 56.5
s31 112.167 47 223.5c14.667 100.667 27.334 196.667 38.001 288zM147 423.999h185.999c10.667 79.333 27.334 138.333 50.001 177c-21.333 20 -50.333 30 -87 30c-84 0 -133.667 -69 -149 -207zM327.999 386.999h-187.001c-18 -144.667 -33.667 -260 -47 -346
c-4.66699 -34 -11.5 -68.667 -20.5 -104s-17.167 -59.333 -24.5 -72c21.333 -19.333 50 -29 86 -29c48.667 0 83.834 20.167 105.501 60.5s39.167 111.833 52.5 214.5c19.333 143.333 31 235.333 35 276z" />
    <glyph glyph-name="f_f_l" unicode="ffl" horiz-adv-x="676" 
d="M95 387l-72.9971 -0.000976562c4.66699 24 14 36.333 28 37h50c20.667 161.333 87 242 199 242c42 0 77 -12 105 -36c31.333 37.333 74 56 128 56c30.667 0 56.667 -8.33301 78 -25c18 16 30.333 24 37 24c7.33301 0 8.66602 -14.667 3.99902 -44
c-52 -345.333 -81.333 -542.333 -88 -591c-4 -28 -9.66699 -44.333 -17 -49c-12.667 -6.66699 -25.667 -10.667 -39 -12c7.33301 43.333 27.333 176 60 398h-194c-4 -36 -8.83301 -75.5 -14.5 -118.5l-16 -121.5c-5 -38 -8.16699 -62.667 -9.5 -74
c-14.667 -105.333 -37.834 -177.166 -69.501 -215.499s-75.834 -57.5 -132.501 -57.5c-40 0 -73 11.333 -99 34c-24 -36 -57.667 -54 -101 -54c-20 0 -36.333 3.16699 -49 9.5s-19.667 12.5 -21 18.5c-5.33301 16 -3.33301 25.667 6 29c17.333 -12 38.333 -18 63 -18
c37.333 0 63.833 19 79.5 57s31.5 112.333 47.5 223c18 124 30.667 220 38 288zM380.003 423.999h191.999c16.667 107.333 26.334 174.333 29.001 201c-21.333 16 -46.333 24 -75 24c-43.333 0 -76 -18 -98 -54s-38 -93 -48 -171zM147.002 423.999h186
c9.33301 75.333 26 134 50 176c-19.333 20.667 -48.333 31 -87 31c-84 0 -133.667 -69 -149 -207zM328.002 386.999h-186.999c-14.667 -117.333 -30.334 -233.333 -47.001 -348c-12.667 -86.667 -27.667 -144.667 -45 -174c22 -20 50.333 -30 85 -30
c48.667 0 84.167 20.5 106.5 61.5s39.833 112.5 52.5 214.5c19.333 143.333 31 235.333 35 276z" />
    <glyph glyph-name=".notdef" horiz-adv-x="500" 
d="M0 0v700h500v-700h-500zM250 395l170 255h-340zM280 350l170 -255v510zM80 50h340l-170 255zM50 605v-510l170 255z" />
    <glyph glyph-name="space" unicode=" " horiz-adv-x="215" 
 />
    <glyph glyph-name="exclam" unicode="!" horiz-adv-x="155" 
d="M142 607l0.999023 0.00195312c6.66699 0 9 -7.66699 7 -23c-36.667 -237.333 -55.334 -359 -56.001 -365c-2 -13.333 -6.66699 -22.333 -14 -27c-9.33301 -5.33301 -17.333 -8 -24 -8c0.666992 11.333 3.83398 44.666 9.50098 99.999l18.5 178
c6.66699 63.333 11 103.666 13 120.999c2 6 8.33301 11.5 19 16.5s19.334 7.5 26.001 7.5zM58.999 71.002h1.00195c10 0 18 -3.66699 24 -11s9 -16.333 9 -27c0 -13.333 -3.66699 -24 -11 -32s-17 -12 -29 -12c-10.667 0 -19.334 3.16699 -26.001 9.5s-10 14.833 -10 25.5
c0 14 3.66699 25.333 11 34s17.666 13 30.999 13z" />
    <glyph glyph-name="quotedbl" unicode="&#x22;" horiz-adv-x="238" 
d="M125 655h1c8 0 9.66699 -12.667 5 -38c-14 -68.667 -28.667 -118.667 -44 -150c-12.667 -10.667 -24 -16.667 -34 -18c10 38 21.333 100 34 186c0.666992 4.66699 5.66699 9.16699 15 13.5s17 6.5 23 6.5zM243 655h1.00098c8 0 9.66699 -12.667 5 -38
c-15.333 -69.333 -30 -119.333 -44 -150c-12 -10.667 -23.333 -16.667 -34 -18c11.333 46 22.666 108 33.999 186c0.666992 4.66699 5.5 9.16699 14.5 13.5s16.833 6.5 23.5 6.5z" />
    <glyph glyph-name="numbersign" unicode="#" horiz-adv-x="419" 
d="M79 441l75.999 0.000976562l37 127c1.33301 2 5.66602 4.33301 12.999 7s13.333 4 18 4c5.33301 0 6.66602 -5 3.99902 -15l-34 -123h99l34 127c1.33301 1.33301 6 3.5 14 6.5s14.667 4.5 20 4.5c4 0 4.66699 -5 2 -15l-34 -123h64c5.33301 0 8.33301 -0.833008 9 -2.5
s0.666992 -5.5 0 -11.5c-2 -4.66699 -7.66699 -13 -17 -25h-67l-38 -147h70c8 0 11 -4 9 -12c-5.33301 -13.333 -10.666 -22 -15.999 -26h-75l-39 -155c-8 -8 -19.333 -12 -34 -12c-3.33301 0 -3.66602 5 -0.999023 15l38 152h-102l-41 -155c-2 -8 -6.33301 -12 -13 -12
c-10.667 0 -18 6 -22 18l40 149h-64c-4 0 -7 0.5 -9 1.5s-3.16699 2.16699 -3.5 3.5s-0.166016 2.66602 0.500977 3.99902c2 9.33301 7 19 15 29h71l41 148h-69c-5.33301 0 -9 0.833008 -11 2.5s-2.33301 4.5 -1 8.5c6 12.667 11.333 21.667 16 27zM281.999 403.001h-101
l-41 -148h103z" />
    <glyph glyph-name="dollar" unicode="$" horiz-adv-x="419" 
d="M292 657l-16.002 -85.0039c20.667 -2 41.5 -8.66699 62.5 -20s35.833 -22.333 44.5 -33c-6.66699 -23.333 -18.667 -29.333 -36 -18c-33.333 24 -66.333 36 -99 36c-37.333 0 -66.5 -9.16699 -87.5 -27.5s-31.5 -43.833 -31.5 -76.5c0 -14 2.33301 -26.667 7 -38
s12.5 -22.333 23.5 -33s21.167 -19.334 30.5 -26.001s23.666 -16.334 42.999 -29.001c42.667 -28 73.167 -53 91.5 -75s27.5 -48 27.5 -78c0 -46 -14.667 -82.167 -44 -108.5s-69.666 -41.166 -120.999 -44.499l-14 -71c-2 -8 -3.83301 -13.167 -5.5 -15.5
s-4.5 -4.16602 -8.5 -5.49902c-6.66699 -1.33301 -13.167 -2.16602 -19.5 -2.49902s-9.83301 -0.166016 -10.5 0.500977l20 95c-23.333 2.66699 -45.666 8.66699 -66.999 18s-37.333 18.333 -48 27s-16.667 15.334 -18 20.001c2 8.66699 6 15.334 12 20.001s13 4.66699 21 0
c40.667 -34 84 -50.333 130 -49c84 0 126 36.333 126 109c0 12 -2.33301 23.667 -7 35s-9.5 20.5 -14.5 27.5s-14.167 15.667 -27.5 26s-23.166 17.5 -29.499 21.5l-36.5 24c-34 21.333 -60.333 43.166 -79 65.499s-28 50.166 -28 83.499c0 34.667 12.5 66.334 37.5 95.001
s63.833 44.667 116.5 48l12 66c2 6.66699 7.33301 11.334 16 14.001c10.667 2.66699 19.667 4 27 4z" />
    <glyph glyph-name="percent" unicode="%" horiz-adv-x="686" 
d="M604 656c7.33301 -12 10.6641 -22.668 9.99707 -32.001c-22 -28 -98 -130.667 -228 -308l-264 -357c-4.66699 -8 -9 -8 -13 0c-3.33301 5.33301 -7 15 -11 29c2.66699 4 60.667 83 174 237l236 325c-23.333 -12.667 -49.666 -21 -78.999 -25s-54.833 -5 -76.5 -3
s-40.5 5.66699 -56.5 11c6.66699 -18 10 -41.667 10 -71c0 -52 -14.167 -96.833 -42.5 -134.5s-64.166 -56.5 -107.499 -56.5c-34.667 0 -60.5 13 -77.5 39s-25.5 57.333 -25.5 94c0 52.667 14.167 98.834 42.5 138.501s65.5 59.5 111.5 59.5c20 0 41.333 -6.66699 64 -20
c33.333 -18.667 74.5 -27 123.5 -25s88.167 11.333 117.5 28c20 10.667 38 25.667 54 45l21 26c6.66699 7.33301 12.334 7.33301 17.001 0zM199.998 567.999h-0.999023c-30 0 -55 -16.333 -75 -49s-29.667 -72.667 -29 -120c0 -25.333 5.16699 -47.333 15.5 -66
s27.166 -28 50.499 -28c26.667 0 50.5 13.667 71.5 41s31.5 67.333 31.5 120c0 68 -21.333 102 -64 102zM535.999 318.999l1 -0.000976562c35.333 0 61.166 -13.667 77.499 -41s24.5 -59.666 24.5 -96.999c0 -53.333 -13.5 -98.833 -40.5 -136.5s-63.167 -56.5 -108.5 -56.5
c-35.333 0 -61.666 13.333 -78.999 40s-26 59 -26 97c0 52 13.667 97.333 41 136s64 58 110 58zM528.999 284.998h-1c-28.667 0 -52.667 -16.167 -72 -48.5s-29 -71.833 -29 -118.5c0 -26 5.5 -48.5 16.5 -67.5s29.167 -28.5 54.5 -28.5c26 0 49 14.333 69 43s30 69 30 121
c0 66 -22.667 99 -68 99z" />
    <glyph glyph-name="ampersand" unicode="&#x26;" horiz-adv-x="596" 
d="M527 2l-0.000976562 -2.99902c-18.667 -10 -31.667 -15 -39 -15s-17.333 7.33301 -30 22l-32.5 37.5l-53.5 61.5c-37.333 -48 -71.166 -79.5 -101.499 -94.5s-61.5 -22.5 -93.5 -22.5c-44.667 0 -81.5 13.833 -110.5 41.5s-43.5 63.834 -43.5 108.501
c0 28.667 7 54.667 21 78s29.833 42.166 47.5 56.499s41.167 31.166 70.5 50.499c6 3.33301 10.333 6 13 8c-34.667 42.667 -52 86.667 -52 132c0 42.667 13.167 78.5 39.5 107.5s60.833 43.5 103.5 43.5c34 0 62 -11.167 84 -33.5s33 -50.5 33 -84.5
c0 -10.667 -1.33301 -21 -4 -31s-5.5 -18.667 -8.5 -26s-8.33301 -15.333 -16 -24l-17.5 -20c-4 -4.66699 -11.667 -11.167 -23 -19.5s-19.166 -13.833 -23.499 -16.5l-27 -17l-25.5 -16c53.333 -63.333 98.666 -115 135.999 -155c74 115.333 120.333 184 139 206
c18 22 30.667 33 38 33c10 0 19 -8.33301 27 -25v-2c-19.333 -16 -41.666 -41.5 -66.999 -76.5s-62.333 -89.167 -111 -162.5c79.333 -88 121.666 -135.333 126.999 -142zM166.999 469.001v-1.00195c0 -41.333 17 -80 51 -116c45.333 28.667 75 51.334 89 68.001
c20 22.667 30 47.334 30 74.001c0 24 -7 44 -21 60s-32.333 24 -55 24c-28.667 0 -51.5 -10.667 -68.5 -32s-25.5 -47 -25.5 -77zM185.999 30.999h1c56 0 109.667 33.333 161 100l-90 102l-63 72c-27.333 -18.667 -47.833 -33.5 -61.5 -44.5s-27 -26.5 -40 -46.5
s-19.5 -41.333 -19.5 -64c0 -35.333 10.667 -64 32 -86s48 -33 80 -33z" />
    <glyph glyph-name="quotesingle" unicode="'" horiz-adv-x="120" 
d="M128 655h1c6.66699 0 7.66699 -12.667 3 -38c-13.333 -64 -28.333 -114 -45 -150c-12.667 -10.667 -24 -16.667 -34 -18c12.667 48.667 24 111.667 34 189c2.66699 3.33301 8.5 7 17.5 11s16.833 6 23.5 6z" />
    <glyph glyph-name="parenleft" unicode="(" horiz-adv-x="282" 
d="M33 207l0.00195312 1.00098c0 103.333 22.5 198.666 67.5 285.999s106.5 156 184.5 206c4.66699 -2 8.66699 -7 12 -15s3.66602 -13.667 0.999023 -17c-146.667 -118 -220 -271.667 -220 -461c0 -155.333 41.333 -277.666 124 -366.999
c-0.666992 -5.33301 -3.5 -10.5 -8.5 -15.5s-9.5 -7.83301 -13.5 -8.5c-48.667 33.333 -85.334 88.166 -110.001 164.499s-37 151.833 -37 226.5z" />
    <glyph glyph-name="parenright" unicode=")" horiz-adv-x="282" 
d="M244 303v-0.999023c0 -210 -84.667 -372 -254 -486c-4.66699 2 -8.33398 7.16699 -11.001 15.5s-2.66699 14.5 0 18.5c146.667 117.333 220 268.666 220 453.999c0 158.667 -41 282.667 -123 372c0.666992 5.33301 3.33398 10.5 8.00098 15.5s8.66699 7.83301 12 8.5
c50.667 -38 88 -95 112 -171s36 -151.333 36 -226z" />
    <glyph glyph-name="asterisk" unicode="*" horiz-adv-x="313" 
d="M179 547l15.9951 116.998c6.66699 0 14.334 -1 23.001 -3c11.333 -3.33301 15.333 -10 12 -20l-26 -97l101 43c7.33301 -7.33301 11.333 -14.333 12 -21c2.66699 -10.667 -2.66602 -17.667 -15.999 -21l-89 -24l87 -66c10 -7.33301 11.667 -15 5 -23
c-5.33301 -7.33301 -12.666 -12.666 -21.999 -15.999l-86 87l-17 -115c-7.33301 0 -17 2.33301 -29 7c-6.66699 2.66699 -7.66699 12.334 -3 29.001l23 86l-107 -47c-3.33301 4 -7 12.667 -11 26c-2 8 1.33301 13.333 10 16l99 26l-80 63
c-9.33301 7.33301 -11.666 14.333 -6.99902 21c4.66699 6 11.334 12.333 20.001 19z" />
    <glyph glyph-name="plus" unicode="+" horiz-adv-x="565" 
d="M259 229h-196.999c1.33301 26.667 11.666 40 30.999 40h166v110c0 35.333 -1 62 -3 80l24 4c9.33301 2 15.833 0.333008 19.5 -5s5.5 -15 5.5 -29v-160h196c-3.33301 -26.667 -14 -40 -32 -40h-164v-188c0 -14 -9.33301 -23.333 -28 -28l-18 -2v218z" />
    <glyph glyph-name="comma" unicode="," horiz-adv-x="148" 
d="M62 107h1c11.333 0 17 -16 17 -48c0 -24 -8.5 -52.167 -25.5 -84.5s-35.5 -54.5 -55.5 -66.5c-14 -7.33301 -30.333 -10.333 -49 -9c24 24 43.167 53.667 57.5 89s18.833 68.333 13.5 99c13.333 13.333 27 20 41 20z" />
    <glyph glyph-name="hyphen" unicode="-" horiz-adv-x="252" 
d="M221 268l1.00195 -2.00098c-2 -10 -7.33301 -19.833 -16 -29.5s-20.334 -16.167 -35.001 -19.5c-50.667 -12 -102.334 -18.667 -155.001 -20l-2 3c7.33301 24.667 16.333 38.334 27 41.001c102.667 13.333 162.667 22.333 180 27z" />
    <glyph glyph-name="period" unicode="." horiz-adv-x="148" 
d="M50 72l1 -0.000976562c10 0 18 -3.66699 24 -11s9 -16.333 9 -27c0 -13.333 -3.66699 -24.166 -11 -32.499s-17 -12.5 -29 -12.5c-24.667 0 -37 12 -37 36c0 14 3.66699 25.333 11 34s18 13 32 13z" />
    <glyph glyph-name="slash" unicode="/" horiz-adv-x="310" 
d="M320 641l-269 -699.001c-6 -15.333 -11.167 -25.333 -15.5 -30s-10.5 -7 -18.5 -7h-27l275 706c6.66699 18.667 15.667 28.334 27 29.001z" />
    <glyph glyph-name="zero" unicode="0" horiz-adv-x="419" 
d="M243 602h1.00293c30.667 0 56.667 -7.16699 78 -21.5s37.166 -33.666 47.499 -57.999s17.666 -48.833 21.999 -73.5s6.5 -51.334 6.5 -80.001c0 -44 -4 -87.167 -12 -129.5s-20 -82.833 -36 -121.5s-38.667 -70 -68 -94s-63 -36 -101 -36c-30 0 -55.667 7.33301 -77 22
s-37.333 34.5 -48 59.5s-18.167 50.167 -22.5 75.5s-6.5 52 -6.5 80c0 38.667 4 78.667 12 120s20 81.833 36 121.5s38.667 72.167 68 97.5s62.666 38 99.999 38zM243.003 565l-0.999023 -0.00195312c-34.667 0 -65 -17.333 -91 -52s-45 -77.167 -57 -127.5
s-18 -103.5 -18 -159.5c0 -21.333 1.5 -42.166 4.5 -62.499s8 -41.666 15 -63.999s18.167 -40.333 33.5 -54s34 -20.5 56 -20.5c28 0 52.667 10.333 74 31s38.166 48 50.499 82s21.5 70.667 27.5 110s9 80 9 122c0 130 -34.333 195 -103 195z" />
    <glyph glyph-name="one" unicode="1" horiz-adv-x="419" 
d="M307 602l7.99902 -5c-3.33301 -26 -16.833 -125.333 -40.5 -298s-36.167 -264.334 -37.5 -275.001c-1.33301 -10 -3 -16.5 -5 -19.5s-5.66699 -5.16699 -11 -6.5l-40 -4c17.333 114.667 43 295.334 77 542.001c-21.333 -9.33301 -50.666 -20.5 -87.999 -33.5
s-63 -21.167 -77 -24.5l-1 2c3.33301 12 10 25.333 20 40c82.667 30 147.667 57.333 195 82z" />
    <glyph glyph-name="two" unicode="2" horiz-adv-x="419" 
d="M17 1l-2.00293 6.00098c2 2.66699 4.66699 7.16699 8 13.5s6 10.833 8 13.5c114.667 112 191.5 195.833 230.5 251.5s58.5 109.5 58.5 161.5c0 34.667 -9 62.167 -27 82.5s-43.667 30.5 -77 30.5c-52.667 0 -100.667 -26.667 -144 -80h-2
c-8 21.333 -3.33301 41.333 14 60c16.667 17.333 37.834 31.833 63.501 43.5s52.167 17.5 79.5 17.5c44.667 0 79.834 -14.333 105.501 -43s38.5 -65.667 38.5 -111c0 -56 -20 -111 -60 -165c-40.667 -55.333 -115.667 -137 -225 -245
c86 -4.66699 180 -4.33398 282 0.999023c0 -4.66699 -2.83301 -11.167 -8.5 -19.5s-11.5 -13.5 -17.5 -15.5c-15.333 -5.33301 -45.333 -8 -90 -8c-123.333 0 -201.666 2 -234.999 6z" />
    <glyph glyph-name="three" unicode="3" horiz-adv-x="419" 
d="M121 282l0.00195312 2.00195c0.666992 4.66699 4.66699 11.5 12 20.5s12.666 14.167 15.999 15.5c47.333 6.66699 85.833 22.667 115.5 48s44.5 58.666 44.5 99.999c0 27.333 -8.33301 50 -25 68s-38.667 27 -66 27c-46.667 0 -92 -21 -136 -63
c0 0.666992 -0.666992 1 -2 1c-4 18 0.333008 33.333 13 46c12.667 13.333 31.334 25.833 56.001 37.5s50 17.5 76 17.5c40 0 72.5 -12 97.5 -36s37.5 -55.333 37.5 -94c0 -37.333 -11.5 -69.833 -34.5 -97.5s-52.5 -47.834 -88.5 -60.501
c84.667 -23.333 127 -74.333 127 -153c0 -60 -20 -106.833 -60 -140.5s-90.667 -50.5 -152 -50.5c-28.667 0 -54.834 3.83301 -78.501 11.5s-40.5 16.167 -50.5 25.5c-5.33301 5.33301 -9.16602 13 -11.499 23s-2.83301 18.667 -1.5 26l2 1
c45.333 -32 92.666 -48 141.999 -48c48.667 0 87.167 13 115.5 39s42.5 62 42.5 108c0 40 -13.833 71.667 -41.5 95s-63.834 35 -108.501 35c-14 0 -27.667 -1.33301 -41 -4z" />
    <glyph glyph-name="four" unicode="4" horiz-adv-x="419" 
d="M406 630l1.00195 -2.99902c-116.667 -107.333 -233.334 -243.333 -350.001 -408c58.667 -7.33301 132 -11 220 -11l33 201c7.33301 2.66699 21.333 5.66699 42 9l3 -1l-31 -209c22.667 0 47.334 1.33301 74.001 4v-2c-6 -16 -17.333 -27.667 -34 -35
c-7.33301 -2.66699 -22.666 -4.66699 -45.999 -6c-2.66699 -22.667 -9.33398 -71 -20.001 -145c-2 -14.667 -7 -23.334 -15 -26.001c-13.333 -2.66699 -26.666 -4 -39.999 -4c8 42 17.333 100.333 28 175c-120 1.33301 -204 6.33301 -252 15
c-10.667 6.66699 -17.334 15.667 -20.001 27c29.333 44.667 82.166 113.667 158.499 207s130.166 152 161.499 176c28 20.667 57 32.667 87 36z" />
    <glyph glyph-name="five" unicode="5" horiz-adv-x="419" 
d="M61 320l-5.00098 14.001c46 156.667 71 240.667 75 252c26.667 0.666992 71.834 3.33398 135.501 8.00098s97.5 7 101.5 7l2 -1c-1.33301 -12 -5 -21.667 -11 -29c-5.33301 -8 -15.333 -13 -30 -15c-19.333 -2 -51.333 -4.33301 -96 -7s-68.334 -4 -71.001 -4
c-24 -68.667 -43 -131.667 -57 -189c77.333 -17.333 132.333 -34.666 165 -51.999c59.333 -32 89 -79 89 -141c-0.666992 -59.333 -21.5 -106.333 -62.5 -141s-92.833 -52 -155.5 -52c-48.667 0 -86 8.66699 -112 26c-4 3.33301 -7.33301 9.66602 -10 18.999
s-3.66699 18 -3 26c1.33301 0 2 0.333008 2 1c12.667 -8.66699 30.667 -16.334 54 -23.001s46 -10 68 -10c54 0 95.333 13.667 124 41s43 65 43 113c0 35.333 -13.5 63.666 -40.5 84.999s-67.167 39 -120.5 53c-13.333 3.33301 -29.166 6.83301 -47.499 10.5
s-30.833 6.5 -37.5 8.5z" />
    <glyph glyph-name="six" unicode="6" horiz-adv-x="419" 
d="M422 602l-1 -1.99707c-107.333 -18 -191.333 -60.333 -252 -127c-32.667 -36.667 -57.667 -78.5 -75 -125.5s-26 -93.833 -26 -140.5c0 -30.667 3.5 -58.834 10.5 -84.501s20.667 -48.334 41 -68.001s45.833 -29.5 76.5 -29.5c40.667 0 73.5 15.833 98.5 47.5
s37.5 70.167 37.5 115.5c0 36 -8.16699 66 -24.5 90s-41.5 36 -75.5 36c-38 0 -74.667 -14.333 -110 -43l-3 2c-2 16.667 3.66699 30.667 17 42c32 26.667 68.667 40 110 40c44 0 78 -15.833 102 -47.5s36 -70.167 36 -115.5c0 -60 -18.5 -109 -55.5 -147
s-81.833 -57 -134.5 -57c-61.333 0 -106.166 20.167 -134.499 60.5s-42.5 92.833 -42.5 157.5c0 106 34.333 198 103 276c26 30 54 55.5 84 76.5s57.5 35.667 82.5 44s45 14.166 60 17.499s26.833 5 35.5 5c17.333 0 30.666 -7.66699 39.999 -23z" />
    <glyph glyph-name="seven" unicode="7" horiz-adv-x="419" 
d="M40 -13v3c62.667 66 125.667 151.667 189 257s110 205.333 140 300h-255c-31.333 0 -47 3.66699 -47 11c0 11.333 9.33301 23.333 28 36c10.667 -2.66699 42.334 -4 95.001 -4h230c0 -18.667 -7 -49 -21 -91c-27.333 -80 -70.333 -168.833 -129 -266.5
s-106.334 -167.167 -143.001 -208.5c-22 -26 -42 -39.667 -60 -41c-10 0 -19 1.33301 -27 4z" />
    <glyph glyph-name="eight" unicode="8" horiz-adv-x="419" 
d="M238 602h1.00098c38.667 0 71.834 -12.667 99.501 -38s41.5 -57 41.5 -95c0 -21.333 -3.16699 -40.333 -9.5 -57s-17.5 -32.5 -33.5 -47.5s-28.5 -25.667 -37.5 -32s-25.5 -17.166 -49.5 -32.499c48 -32 80 -60.167 96 -84.5s24 -48.833 24 -73.5
c0 -40.667 -15.667 -76.5 -47 -107.5s-77 -46.5 -137 -46.5c-54.667 0 -96.167 15 -124.5 45s-42.5 63 -42.5 99c0 11.333 1.33301 22.166 4 32.499s5.5 19.333 8.5 27s8.5 16 16.5 25l18 20c4 4.33301 12 10.833 24 19.5l23 16.5
c3.33301 2.33301 12.166 7.83301 26.499 16.5s22.5 13.667 24.5 15c-28.667 22.667 -50.334 44.667 -65.001 66s-22 47.333 -22 78c0 42 15 78.167 45 108.5s68.667 45.5 116 45.5zM236.001 565h-1.00098c-34.667 0 -62 -11.333 -82 -34s-30 -47.334 -30 -74.001
c0 -25.333 7.5 -48.166 22.5 -68.499s40.167 -43.166 75.5 -68.499c40.667 25.333 69.334 48.166 86.001 68.499s25 46.833 25 79.5c0 26.667 -9.5 49.5 -28.5 68.5s-41.5 28.5 -67.5 28.5zM193 25l0.998047 -0.000976562c38.667 0 69.334 10.5 92.001 31.5
s34 48.167 34 81.5c0 24.667 -10 47.5 -30 68.5s-51.667 46.167 -95 75.5c-46.667 -26 -79.167 -49.5 -97.5 -70.5s-27.5 -46.167 -27.5 -75.5c0 -31.333 11.833 -57.666 35.5 -78.999s52.834 -32 87.501 -32z" />
    <glyph glyph-name="nine" unicode="9" horiz-adv-x="419" 
d="M301 309l2.00098 -1.99805c0 -16 -5 -28.333 -15 -37c-6.66699 -6 -19.667 -12 -39 -18s-37.333 -9 -54 -9c-45.333 0 -81.333 15.167 -108 45.5s-40 69.166 -40 116.499c0 55.333 17.5 102 52.5 140s77.5 57 127.5 57c38.667 0 71.167 -11.167 97.5 -33.5
s44.833 -49.166 55.5 -80.499s16 -65.333 16 -102c0 -45.333 -6.5 -89.833 -19.5 -133.5s-36.833 -87.834 -71.5 -132.501s-78.334 -82 -131.001 -112c-47.333 -26 -83.666 -39 -108.999 -39c-16.667 0 -28.334 8.33301 -35.001 25c68.667 13.333 131.334 45 188.001 95
c84 72 126 172 126 300c0 49.333 -10.167 91 -30.5 125s-50.833 51 -91.5 51c-36 0 -65.833 -14.833 -89.5 -44.5s-35.5 -65.5 -35.5 -107.5c0 -40.667 10.833 -72.334 32.5 -95.001s48.5 -34 80.5 -34c31.333 0 61.666 8.33301 90.999 25z" />
    <glyph glyph-name="colon" unicode=":" horiz-adv-x="148" 
d="M91 415l1.00098 0.000976562c10.667 0 19 -3.83301 25 -11.5s9 -16.834 9 -27.501c0 -12.667 -3.83301 -23.167 -11.5 -31.5s-17.5 -12.5 -29.5 -12.5c-24 0 -36 12 -36 36c0 14 3.66699 25.333 11 34s17.666 13 30.999 13zM49.001 72.001l1 -0.000976562
c10 0 18 -3.66699 24 -11s9 -16.333 9 -27c0 -13.333 -3.66699 -24.166 -11 -32.499s-17 -12.5 -29 -12.5c-10.667 0 -19.5 3 -26.5 9s-10.5 14.667 -10.5 26c0 14 3.83301 25.5 11.5 34.5s18.167 13.5 31.5 13.5z" />
    <glyph glyph-name="semicolon" unicode=";" horiz-adv-x="148" 
d="M88 415h1.00098c10.667 0 19 -3.66699 25 -11s9 -16.333 9 -27c0 -13.333 -3.66699 -24.166 -11 -32.499s-17 -12.5 -29 -12.5c-10.667 0 -19.5 3.16699 -26.5 9.5s-10.5 15.166 -10.5 26.499c0 14 3.66699 25.333 11 34s17.666 13 30.999 13zM63.001 107l1 -0.00195312
c10.667 0 16 -16.333 16 -49c0 -23.333 -8.5 -51.166 -25.5 -83.499s-35.5 -54.5 -55.5 -66.5c-12 -8 -28.333 -11 -49 -9c24 23.333 43.167 52.833 57.5 88.5s18.833 68.834 13.5 99.501c13.333 13.333 27.333 20 42 20z" />
    <glyph glyph-name="less" unicode="&#x3c;" horiz-adv-x="565" 
d="M443 424l-298.999 -191.001v-3l299 -187c0 -11.333 -3.33301 -21.333 -10 -30c-6.66699 -9.33301 -14.667 -10.666 -24 -3.99902l-315 202c-8.66699 6 -13 10.667 -13 14c0 8.66699 3.66699 16.667 11 24l317 207c9.33301 6.66699 17.333 5 24 -5
c5.33301 -10 8.66602 -19 9.99902 -27z" />
    <glyph glyph-name="equal" unicode="=" horiz-adv-x="565" 
d="M469 322h-407.999c1.33301 26.667 11.666 40 30.999 40h409c-0.666992 -15.333 -3.16699 -25.833 -7.5 -31.5s-12.5 -8.5 -24.5 -8.5zM469.001 130h-407.999c1.33301 26.667 11.666 40 30.999 40h409c-0.666992 -15.333 -3.16699 -25.833 -7.5 -31.5
s-12.5 -8.5 -24.5 -8.5z" />
    <glyph glyph-name="greater" unicode="&#x3e;" horiz-adv-x="565" 
d="M112 44l298.999 190.998v3l-299 187c0 10 3.33301 20 10 30s15.334 11.333 26.001 4l313 -201c8.66699 -5.33301 13 -10 13 -14c0 -11.333 -3.66699 -19.666 -11 -24.999l-316 -207c-10.667 -7.33301 -19 -5.66602 -25 5.00098c-2.66699 4.66699 -6 13.667 -10 27z" />
    <glyph glyph-name="question" unicode="?" horiz-adv-x="283" 
d="M181 607l1 -0.00195312c31.333 0 57.5 -9.16699 78.5 -27.5s31.5 -41.833 31.5 -70.5c0 -27.333 -8.83301 -51 -26.5 -71s-44.167 -41.333 -79.5 -64l-32.5 -21.5c-6.33301 -4.33301 -14.5 -10.833 -24.5 -19.5s-16.833 -17.334 -20.5 -26.001s-5.5 -18.334 -5.5 -29.001
c0.666992 -18.667 9.16699 -34.167 25.5 -46.5s39.833 -18.166 70.5 -17.499c0.666992 0 1.66699 -0.166992 3 -0.5s2.33301 -0.5 3 -0.5c0.666992 -13.333 -2.66602 -22.166 -9.99902 -26.499s-18 -6.5 -32 -6.5c-25.333 0 -49.333 8.5 -72 25.5
s-34.334 41.167 -35.001 72.5c-0.666992 24.667 7.16602 46.834 23.499 66.501s42.5 40.5 78.5 62.5c56 34 84 67.333 84 100c0 16.667 -6 30.834 -18 42.501s-29.667 17.5 -53 17.5c-26 0 -53.333 -9.66699 -82 -29c-8.66699 -7.33301 -15.667 -6.33301 -21 3
c-3.33301 6 -4.33301 12.667 -3 20c34.667 30.667 73.334 46 116.001 46zM119 70.998h1.00098c24 0 36 -13 36 -39c0 -12 -3.83301 -22.167 -11.5 -30.5s-16.834 -12.5 -27.501 -12.5c-11.333 0 -20.5 3.5 -27.5 10.5s-10.5 15.5 -10.5 25.5
c0 13.333 3.83301 24.333 11.5 33s17.167 13 28.5 13z" />
    <glyph glyph-name="at" unicode="@" horiz-adv-x="699" 
d="M486 -57l1.99805 -0.999023c4 -17.333 -0.666992 -30.333 -14 -39c-42 -28 -99.333 -42 -172 -42c-81.333 0 -145.833 27.667 -193.5 83s-71.5 124.333 -71.5 207c0 105.333 33.333 194.333 100 267s154.334 109 263.001 109c78.667 0 142.334 -23.833 191.001 -71.5
s73 -110.5 73 -188.5c0 -66 -16 -122.5 -48 -169.5s-75.667 -70.5 -131 -70.5c-9.33301 0 -18 1.5 -26 4.5s-16.167 8.33301 -24.5 16s-14.333 20 -18 37s-3.83398 37.833 -0.500977 62.5c-20 -38.667 -44.333 -68.334 -73 -89.001s-55 -31 -79 -31
c-22.667 0 -39.667 10.333 -51 31s-17 44 -17 70c0 66.667 18.833 124.667 56.5 174s88.5 74 152.5 74c18 0 46.333 -4.66699 85 -14c-15.333 -62.667 -26.666 -125.667 -33.999 -189c-4.66699 -38 -3.66699 -65.667 3 -83s19.667 -26 39 -26c40.667 0 71.5 18.5 92.5 55.5
s31.5 82.167 31.5 135.5c0 68.667 -19.833 125 -59.5 169s-93.5 66 -161.5 66c-96.667 0 -173.5 -31.833 -230.5 -95.5s-85.5 -142.834 -85.5 -237.501c0 -77.333 21 -139.666 63 -186.999s101.667 -71 179 -71c56.667 0 109.667 14.667 159 44zM398.998 342.001h-0.999023
c-50.667 0 -89.5 -20.5 -116.5 -61.5s-40.5 -88.167 -40.5 -141.5c0 -48 13 -72 39 -72c27.333 0 56.166 18.667 86.499 56s52.5 90 66.5 158c4.66699 26.667 8 44.667 10 54c-9.33301 4.66699 -24 7 -44 7z" />
    <glyph glyph-name="A" unicode="A" horiz-adv-x="585" 
d="M409 228l-254.002 0.00195312l-51.5 -94.5l-43.5 -81.5l-25 -47c-4 -7.33301 -9.33301 -11 -16 -11c-7.33301 0 -18.333 3.33301 -33 10l-1 2c186.667 337.333 293.334 532.666 320.001 585.999l-7 21c6.66699 10 18.334 15 35.001 15c6 0 10.333 -4.33301 13 -13
l63.5 -210.5c31 -104.333 51.833 -172.833 62.5 -205.5c30.667 -102.667 51.667 -167.334 63 -194.001v-2c-19.333 -6 -33.333 -9 -42 -9c-4 0 -7.33301 1.66699 -10 5s-5.66699 10.333 -9 21c-6.66699 20 -16.167 50.5 -28.5 91.5zM175.998 267.002h224l-33 113l-29 100.5
l-18 61.5z" />
    <glyph glyph-name="B" unicode="B" horiz-adv-x="477" 
d="M91 577l-0.000976562 1.00098c2.66699 16.667 8.33398 28 17.001 34c31.333 12 74.666 18 129.999 18c58.667 0 103.167 -12.667 133.5 -38s45.5 -61 45.5 -107c0 -72.667 -39.333 -124.334 -118 -155.001c83.333 -22.667 125 -71.334 125 -146.001
c0 -64 -23.333 -112.333 -70 -145s-101 -49 -163 -49c-48 0 -96.667 8.33301 -146 25l26.5 166l25.5 158.5c6.66699 41.667 11.667 75.834 15 102.501l13.5 87c5 31.333 7.83301 50 8.5 56c-5.33301 -0.666992 -10.666 -1.5 -15.999 -2.5l-16 -3
c-5.33301 -1 -9 -1.83301 -11 -2.5zM362.999 480.001l0.000976562 0.999023c0 22.667 -4.5 42 -13.5 58s-20.833 27.5 -35.5 34.5s-28.334 11.833 -41.001 14.5s-25.667 4 -39 4c-27.333 0 -44 -0.666992 -50 -2l-22 -151c-7.33301 -49.333 -12 -81.666 -14 -96.999
c36 0 59.667 0.666992 71 2c96 8.66699 144 54 144 136zM370 178l0.00195312 1c0 42 -15.333 74 -46 96s-70 33.333 -118 34c-22 0.666992 -43 -0.333008 -63 -3c-4 -30 -10.833 -76.5 -20.5 -139.5s-15.834 -104.5 -18.501 -124.5c19.333 -10 48.666 -15 87.999 -15
c52 0 94.667 13.333 128 40s50 63.667 50 111z" />
    <glyph glyph-name="C" unicode="C" horiz-adv-x="521" 
d="M474 66l2.00195 -1c-1.33301 -19.333 -6.66602 -34 -15.999 -44c-39.333 -24 -92 -36 -158 -36c-83.333 0 -147.5 26.167 -192.5 78.5s-67.5 120.5 -67.5 204.5c0 33.333 4.33301 66.833 13 100.5s22.667 66.834 42 99.501s42.666 61.667 69.999 87
s61.166 45.833 101.499 61.5s84.166 23.5 131.499 23.5c61.333 0 104.666 -11.667 129.999 -35c-3.33301 -25.333 -13.666 -34 -30.999 -26c-31.333 14 -65.666 21 -102.999 21c-86.667 0 -157.834 -31.5 -213.501 -94.5s-83.5 -141.833 -83.5 -236.5
c0 -70.667 18.667 -128.834 56 -174.501s91 -68.5 161 -68.5c64 0 116.667 13.333 158 40z" />
    <glyph glyph-name="D" unicode="D" horiz-adv-x="604" 
d="M96 578l-0.99707 0.999023c1.33301 12.667 6 24.334 14 35.001c38 10.667 85 16 141 16c104.667 0 184.167 -24 238.5 -72s81.166 -122.333 80.499 -223c-0.666992 -71.333 -17.167 -133.5 -49.5 -186.5s-75 -92.667 -128 -119s-112.5 -39.5 -178.5 -39.5
c-52 0 -107.333 8.66699 -166 26c10 60.667 22 138 36 232s23 153.333 27 178l23 158c-4.66699 -0.666992 -10.834 -1.5 -18.501 -2.5s-13.834 -2.16699 -18.501 -3.5zM514.003 330.999c0 174.667 -91.3311 261.997 -273.998 261.997c-19.333 0 -38 -1 -56 -3
c-9.33301 -61.333 -22.5 -152.666 -39.5 -273.999s-30.167 -212.666 -39.5 -273.999c31.333 -10 67.333 -15 108 -15s78.667 6.16699 114 18.5s67.166 30.5 95.499 54.5s50.666 55.833 66.999 95.5s24.5 84.834 24.5 135.501z" />
    <glyph glyph-name="E" unicode="E" horiz-adv-x="413" 
d="M143 341h222c-4 -16.667 -10.167 -27.334 -18.5 -32.001s-24.166 -7 -47.499 -7h-163l-35 -260c17.333 -6 58.333 -9 123 -9c72.667 0 122.667 2 150 6l1 -2c-1.33301 -7.33301 -5.33301 -15.166 -12 -23.499s-14.667 -13.5 -24 -15.5
c-15.333 -2.66699 -50.333 -4 -105 -4c-80.667 0 -139.334 3.66699 -176.001 11l-12 16l67 463c4.66699 34 10 76.667 16 128c12 6.66699 26.333 11 43 13h222c0 -14.667 -4.66699 -24.667 -14 -30c-9.33301 -6 -30.333 -9 -63 -9h-140z" />
    <glyph glyph-name="F" unicode="F" horiz-adv-x="392" 
d="M140 318h231.001c-5.33301 -17.333 -11.833 -28.166 -19.5 -32.499s-20.5 -6.5 -38.5 -6.5h-180c-14.667 -114.667 -27.334 -208 -38.001 -280c-6.66699 -3.33301 -19.334 -5 -38.001 -5c-6 0 -9.83301 1.16699 -11.5 3.5s-2.16699 6.83301 -1.5 13.5l71 493
c2 11.333 6.33301 48.333 13 111c8.66699 3.33301 22 6.66602 40 9.99902h251c-1.33301 -13.333 -6.33301 -23.333 -15 -30c-9.33301 -6 -30.666 -9 -63.999 -9h-165z" />
    <glyph glyph-name="G" unicode="G" horiz-adv-x="594" 
d="M393 640h0.998047c34 0 65.667 -4.5 95 -13.5s51.333 -19.5 66 -31.5c-4.66699 -26.667 -19 -34.334 -43 -23.001c-36 18 -76.333 27 -121 27c-88.667 0 -159.5 -30.333 -212.5 -91s-79.5 -134 -79.5 -220c0 -85.333 22.833 -151 68.5 -197s111.167 -69 196.5 -69
c36.667 0 64 3.66699 82 11c20.667 124.667 32.334 211 35.001 259c19.333 6 33 9 41 9c8.66699 0 12.334 -5 11.001 -15c-2 -18 -7.5 -58 -16.5 -120s-16.167 -115.333 -21.5 -160c-56 -14 -106.333 -21 -151 -21c-94.667 0 -168.667 26 -222 78s-80 126 -80 222
c0 30.667 4 61.834 12 93.501s21.333 63.334 40 95.001s41.167 59.667 67.5 84s59.5 44.166 99.5 59.499s84 23 132 23z" />
    <glyph glyph-name="H" unicode="H" horiz-adv-x="590" 
d="M144 342l329.999 -0.00292969l38 256c2.66699 18 8.66699 27.667 18 29c9.33301 0.666992 22 1 38 1l-74 -504c-7.33301 -46 -12.666 -87.333 -15.999 -124c-11.333 -4 -25.666 -6 -42.999 -6c-8.66699 0 -12 6 -10 18l43 293c-16 -1.33301 -69 -2 -159 -2h-170l-39 -279
c-2.66699 -17.333 -8.33398 -26.666 -17.001 -27.999c-19.333 -1.33301 -33.333 -2 -42 -2c14 86.667 38.333 252.334 73 497.001c10 74.667 15 118.334 15 131.001c5.33301 0.666992 11 1.5 17 2.5s10.833 1.83301 14.5 2.5s7.5 1 11.5 1c2.66699 0 4.5 -0.666992 5.5 -2
s1.83301 -4 2.5 -8s0.666992 -9.83301 0 -17.5s-2 -17.5 -4 -29.5z" />
    <glyph glyph-name="I" unicode="I" horiz-adv-x="208" 
d="M44 12l69.001 479c4 29.333 9.33301 72.666 16 129.999c14 4.66699 28 7 42 7c2.66699 0 4.66699 -0.5 6 -1.5s2.16602 -3.5 2.49902 -7.5s0.166016 -9.66699 -0.500977 -17s-2 -17.666 -4 -30.999l-64 -447c-8.66699 -58.667 -14 -100 -16 -124
c-11.333 -4 -24.666 -6 -39.999 -6c-9.33301 0 -13 6 -11 18z" />
    <glyph glyph-name="J" unicode="J" horiz-adv-x="210" 
d="M-95 -115l2.00195 2.99609c49.333 2.66699 84.5 19.334 105.5 50.001s37.833 92 50.5 184c15.333 105.333 30.666 221.333 45.999 348c8.66699 76 14 126.667 16 152c20 4 34.333 6 43 6c4.66699 0 7.5 -1.83301 8.5 -5.5s0.833008 -12.5 -0.5 -26.5
c-4 -33.333 -26 -201.666 -66 -504.999c-4.66699 -36.667 -11.5 -69.167 -20.5 -97.5s-19.333 -50.666 -31 -66.999s-22.834 -29.833 -33.501 -40.5s-22.5 -18 -35.5 -22s-23 -6.5 -30 -7.5s-14.833 -1.5 -23.5 -1.5c-7.33301 0 -14 3.33301 -20 10
s-9.66699 13.334 -11 20.001z" />
    <glyph glyph-name="K" unicode="K" horiz-adv-x="540" 
d="M44 12l68.002 461c4 24.667 11 74.334 21 149.001c13.333 4 26.333 6 39 6c6 0 9 -3.66699 9 -11s-1 -16.333 -3 -27l-40 -272l365 317c9.33301 1.33301 20.666 -0.333984 33.999 -5.00098c10.667 -3.33301 11.667 -9 3 -17l-169 -145l-173 -149
c3.33301 -4 14.166 -16.333 32.499 -37l45 -50.5l47.5 -53l52.5 -57l47.5 -49.5c16.667 -17.333 31.5 -31.833 44.5 -43.5s23.833 -20.5 32.5 -26.5l-1 -4c-10.667 -4 -24.667 -6 -42 -6c-16 0 -39 15.667 -69 47c-16.667 16.667 -43.667 45.667 -81 87l-109.5 122.5
c-35.667 40.333 -55.5 62.5 -59.5 66.5c-16 -125.333 -30 -230.333 -42 -315c-14 -4 -28.667 -6 -44 -6c-7.33301 0 -10 6 -8 18z" />
    <glyph glyph-name="L" unicode="L" horiz-adv-x="407" 
d="M47 20l65.001 470.997c10 74.667 15 118.334 15 131.001c21.333 4 36 6 44 6c2 0 3.33301 -0.5 4 -1.5s1.16699 -3.66699 1.5 -8s0.166016 -10.166 -0.500977 -17.499s-2 -17.666 -4 -30.999l-70 -528c17.333 -6 58 -9 122 -9c72.667 0 119.334 2 140.001 6l1 -2
c-2 -7.33301 -6.33301 -15.166 -13 -23.499s-14.334 -13.5 -23.001 -15.5c-15.333 -2.66699 -48.666 -4 -99.999 -4c-78.667 0 -135.334 3.33301 -170.001 10c-5.33301 5.33301 -9.33301 10.666 -12 15.999z" />
    <glyph glyph-name="M" unicode="M" horiz-adv-x="793" 
d="M656 614l1 8.99902c10 3.33301 20.667 5 32 5c7.33301 0 11 -5 11 -15c-0.666992 -396 -0.666992 -600.333 0 -613c-12 -4 -26.333 -6 -43 -6c-5.33301 0 -8 5.66699 -8 17c0 9.33301 0.333008 42.333 1 99s1.66699 123.667 3 201l4 229l-101 -198.5l-119.5 -234
c-33 -64.333 -51.167 -100.5 -54.5 -108.5c-7.33301 -6.66699 -17.666 -11 -30.999 -13c-28.667 118 -77.334 298 -146.001 540c-85.333 -323.333 -131.333 -496.666 -138 -519.999c-2.66699 -8 -8.66699 -12 -18 -12c-4 0 -8.33301 0.5 -13 1.5s-8.5 2 -11.5 3
s-4.83301 1.5 -5.5 1.5l77.5 279.5l88.5 320.5l-5 19c6 6 16 9 30 9c4 0 7 -1.16699 9 -3.5s4.33301 -7.5 7 -15.5c5.33301 -16 56 -192 152 -528z" />
    <glyph glyph-name="N" unicode="N" horiz-adv-x="618" 
d="M505 320l39 282c1.33301 14 7.66602 21.667 18.999 23c16 2 26 3 30 3c-42 -276.667 -71.333 -486.667 -88 -630c-7.33301 -7.33301 -15.666 -11 -24.999 -11c-4 0 -9.33301 5.66699 -16 17l-104 174.5l-122 206.5l-37 64.5l-41 71.5l-18 -142
c-6 -47.333 -10 -78 -12 -92l-36 -263c-2 -15.333 -8 -24.333 -18 -27c-10 -2 -21.333 -3 -34 -3c30 193.333 57.667 381 83 563c2 10.667 0.666992 19.667 -4 27l-20 33v5c14.667 4 27.334 6 38.001 6c4.66699 0 10.667 -5 18 -15c7.33301 -11.333 21.166 -34 41.499 -68
l82 -138.5l82.5 -138.5c62 -103.333 99.333 -167.333 112 -192c10 88.667 20 170 30 244z" />
    <glyph glyph-name="O" unicode="O" horiz-adv-x="618" 
d="M354 640h1.00098c51.333 0 94.833 -13 130.5 -39s61.334 -59 77.001 -99s23.5 -85 23.5 -135c0 -37.333 -3.83301 -74 -11.5 -110s-19.667 -70.5 -36 -103.5s-36.333 -62 -60 -87s-53 -44.833 -88 -59.5s-73.167 -22 -114.5 -22c-72 0 -128.667 24.667 -170 74
s-62 116 -62 200c0 63.333 11.667 123.5 35 180.5s59.166 104.667 107.499 143s104.166 57.5 167.499 57.5zM346.001 603h-0.998047c-70.667 0 -129 -34.833 -175 -104.5s-69 -150.834 -69 -243.501c0 -67.333 15.833 -123 47.5 -167s77.167 -66 136.5 -66
c53.333 0 99.166 17.833 137.499 53.5s65.666 78.834 81.999 129.501s24.5 104.334 24.5 161.001c0 67.333 -14.5 123.666 -43.5 168.999s-75.5 68 -139.5 68z" />
    <glyph glyph-name="P" unicode="P" horiz-adv-x="456" 
d="M89 579l-2.00098 2c0 11.333 5.66699 22.666 17 33.999c31.333 10 72.666 15 123.999 15c74 0 128.5 -16.5 163.5 -49.5s52.5 -77.833 52.5 -134.5c0 -36.667 -6.83301 -69 -20.5 -97s-31.167 -49.333 -52.5 -64s-42.666 -25.5 -63.999 -32.5s-42.333 -10.5 -63 -10.5
c-32 0 -55.333 5 -70 15c-8 6 -12.667 17 -14 33l2 3c19.333 -8 42.666 -12 69.999 -12c46.667 0 84.334 12.833 113.001 38.5s43 67.834 43 126.501c0 48 -14.667 84.333 -44 109s-69.666 37 -120.999 37c-22.667 0 -35.667 -0.666992 -39 -2l-42 -295.5l-42 -294.5
c-8.66699 -4 -22.334 -6 -41.001 -6c-9.33301 0 -12.666 6 -9.99902 18c24 154 52 345 84 573c-4 -0.666992 -11.167 -1.66699 -21.5 -3s-17.833 -2.33301 -22.5 -3z" />
    <glyph glyph-name="Q" unicode="Q" horiz-adv-x="617" 
d="M623 -127l0.999023 -2.00195c-8.66699 -19.333 -26.667 -29 -54 -29c-34 0 -93.667 26.667 -179 80c-4 2.66699 -10.833 7 -20.5 13l-18.5 11.5l-15 9c-7.33301 4.33301 -12.166 7 -14.499 8s-6.5 3 -12.5 6s-10.667 5 -14 6l-13.5 4
c-5.66699 1.66699 -11 2.83398 -16 3.50098s-10.5 1.33398 -16.5 2.00098c-68.667 7.33301 -120.334 35.5 -155.001 84.5s-52 112.5 -52 190.5c0 64 11.833 124.5 35.5 181.5s59.667 104.333 108 142s104.166 56.5 167.499 56.5c76.667 0 134.334 -26.333 173.001 -79
s58 -118.334 58 -197.001c0 -88 -20.167 -166.833 -60.5 -236.5s-97.833 -113.167 -172.5 -130.5c12.667 -3.33301 39.334 -18.666 80.001 -45.999c82 -51.333 145.667 -77.333 191 -78zM347.999 602.998l-0.999023 0.000976562c-48 0 -91 -16.333 -129 -49
s-67.167 -75.334 -87.5 -128.001s-30.5 -109 -30.5 -169c0 -68.667 15.5 -125 46.5 -169s76.5 -66 136.5 -66c41.333 0 78.166 10 110.499 30s58 46.833 77 80.5s33.5 70.5 43.5 110.5s15 81.667 15 125c0 66.667 -14.667 122.5 -44 167.5s-75 67.5 -137 67.5z" />
    <glyph glyph-name="R" unicode="R" horiz-adv-x="497" 
d="M87 577l-2.00098 2.99805c2 10 8.33301 20.333 19 31c34 12.667 76.333 19 127 19c59.333 0 105.166 -14.667 137.499 -44s48.5 -69.333 48.5 -120c0 -44.667 -13.833 -83.5 -41.5 -116.5s-64.167 -56.5 -109.5 -70.5c9.33301 -9.33301 38 -53.666 86 -132.999
s80.667 -127.666 98 -144.999v-2c-8 -4.66699 -20.333 -7 -37 -7c-17.333 0 -35.333 15 -54 45l-58.5 97l-44.5 72c-16.667 28 -30 45.167 -40 51.5s-26.667 8.83301 -50 7.5c-6 -0.666992 -16.667 -1 -32 -1l-36 -240c-2.66699 -17.333 -9.66699 -27 -21 -29
c-12 -0.666992 -24.333 -1 -37 -1c24.667 138.667 54.334 336 89.001 592c-5.33301 -0.666992 -10.666 -1.5 -15.999 -2.5s-10.5 -2.16699 -15.5 -3.5s-8.5 -2.33301 -10.5 -3zM179.999 589.998l-40 -289c66 0 115 8 147 24c24 12 43 29.833 57 53.5s21 51.167 21 82.5
c0 40 -12.5 71.833 -37.5 95.5s-61.833 35.5 -110.5 35.5c-12.667 0 -25 -0.666992 -37 -2z" />
    <glyph glyph-name="S" unicode="S" horiz-adv-x="409" 
d="M245 640h0.998047c22.667 0 46.167 -4.33301 70.5 -13s40.833 -19 49.5 -31c-1.33301 -8 -5.16602 -15 -11.499 -21s-12.833 -7 -19.5 -3c-31.333 18.667 -62.666 28 -93.999 28c-37.333 0 -67 -9.83301 -89 -29.5s-33 -47.834 -33 -84.501
c0 -28.667 8.83301 -54.167 26.5 -76.5s48.5 -50.166 92.5 -83.499c40.667 -30 70.5 -57.5 89.5 -82.5s28.5 -54.167 28.5 -87.5c0 -52.667 -17.667 -94.334 -53 -125.001s-82 -46 -140 -46c-58.667 0 -105 17 -139 51c-9.33301 8.66699 -14 16 -14 22
c-0.666992 4 0.5 9 3.5 15s7.16699 10.667 12.5 14c42.667 -40.667 91 -61 145 -61c38 0 69.833 10.167 95.5 30.5s38.5 51.166 38.5 92.499c0 24.667 -9 48.834 -27 72.501s-49.667 52.167 -95 85.5c-41.333 29.333 -70.5 57.333 -87.5 84s-25.5 55.667 -25.5 87
c0 48.667 16.5 87.834 49.5 117.501s74.833 44.5 125.5 44.5z" />
    <glyph glyph-name="T" unicode="T" horiz-adv-x="509" 
d="M189 11l78 574.999h-186c-18 0 -26.333 4.66699 -25 14c4.66699 15.333 11.334 25.333 20.001 30c13.333 -3.33301 61 -5 143 -5h329c-3.33301 -26.667 -19.333 -39.667 -48 -39h-181l-63 -463c-8.66699 -65.333 -13.334 -106.666 -14.001 -123.999
c-10.667 -3.33301 -25.667 -5 -45 -5c-5.33301 0 -8 5.66699 -8 17z" />
    <glyph glyph-name="U" unicode="U" horiz-adv-x="620" 
d="M164 568l-33 -258.001c-24.667 -190 28.333 -285 159 -285c29.333 0 54.166 3.5 74.499 10.5s40.333 21.167 60 42.5s36.5 54 50.5 98s25.333 100.333 34 169l33 250c2.66699 18.667 8.33398 29 17.001 31c17.333 1.33301 28.333 2 33 2l-10 -81
c-5.33301 -43.333 -10.666 -83.666 -15.999 -120.999l-18 -126c-16 -115.333 -45.5 -196.666 -88.5 -243.999s-101.5 -71 -175.5 -71c-80 0 -137.667 26 -173 78s-45.666 136.333 -30.999 253l22 173c3.33301 25.333 7.16602 52.166 11.499 80.499
s6.83301 45.166 7.5 50.499c12.667 5.33301 25.667 8 39 8c4.66699 0 7.16699 -3.66699 7.5 -11s-0.833984 -23.666 -3.50098 -48.999z" />
    <glyph glyph-name="V" unicode="V" horiz-adv-x="558" 
d="M104 628l1.00098 -0.00195312c6 0 14 -20 24 -60l44 -184.5l75 -315.5l148.5 285l144.5 275c15.333 -3.33301 25.666 -6.33301 30.999 -9c8 -4 8.33301 -12.667 1 -26l-303 -566c-8 -17.333 -16.667 -28.333 -26 -33
c-5.33301 -3.33301 -13.666 -5.66602 -24.999 -6.99902c-72.667 304.667 -124.334 514.334 -155.001 629.001c8 8 21.333 12 40 12z" />
    <glyph glyph-name="W" unicode="W" horiz-adv-x="846" 
d="M105 628l0.999023 0.000976562c6 0 11 -13.333 15 -40c4.66699 -25.333 31.334 -198.333 80.001 -519l235 532c1.33301 2 2 6.66699 2 14c14 8.66699 25.333 13 34 13c5.33301 0 9.33301 -8.66699 12 -26c1.33301 -6.66699 6.16602 -35.667 14.499 -87l31.5 -192l40 -252
l256 557l27 -3c12 -3.33301 15.667 -11 11 -23l-137 -289l-132 -278c-9.33301 -18 -18.666 -30.333 -27.999 -37c-12 -6.66699 -22 -9.33398 -30 -8.00098c-2 15.333 -13.333 87.833 -34 217.5l-52 334.5l-230 -521c-5.33301 -10.667 -12.333 -18.667 -21 -24
c-8 -6 -18.667 -9 -32 -9c-54.667 350.667 -89 561 -103 631c12 6 25.333 9 40 9z" />
    <glyph glyph-name="X" unicode="X" horiz-adv-x="517" 
d="M64 617v2.00098c12 6 25.333 9 40 9c4.66699 0 8.83398 -2.16699 12.501 -6.5s9.16699 -13.5 16.5 -27.5l133 -233l202 249c10 12 17.333 18 22 18c11.333 0 23.333 -4.66699 36 -14v-2l-239 -289l81.5 -139.5l65.5 -113c16 -27 29.667 -49.167 41 -66.5v-2
c-14 -5.33301 -27.667 -8 -41 -8c-8 0 -16 6.66699 -24 20c-12.667 20 -36.167 60.5 -70.5 121.5l-85.5 150.5l-134.5 -172.5l-86.5 -108.5c-6 -7.33301 -13 -11 -21 -11c-12.667 0 -23.334 3.66699 -32.001 11v2l253 316l-95.5 167
c-48.333 83.333 -72.833 125.666 -73.5 126.999z" />
    <glyph glyph-name="Y" unicode="Y" horiz-adv-x="526" 
d="M62 617l0.998047 3.00098c16 5.33301 29.667 8 41 8c7.33301 0 18.333 -14.667 33 -44l59 -113l72 -140c16 17.333 58.333 70 127 158s105 134.333 109 139c10 -0.666992 20.333 -3 31 -7s9.33398 -13.667 -3.99902 -29l-126 -153.5l-115 -143.5
c-4 -4.66699 -7.33301 -16 -10 -34l-16 -137c-8.66699 -72.667 -13.334 -114 -14.001 -124c-13.333 -4 -27.666 -6 -42.999 -6c-4.66699 0 -7.5 1.16699 -8.5 3.5s-1.16699 7.16602 -0.5 14.499l29 231c0.666992 7.33301 1.33398 16.166 2.00098 26.499s1 16.833 1 19.5
c0 10.667 -4 23.334 -12 38.001c-67.333 133.333 -119.333 230 -156 290z" />
    <glyph glyph-name="Z" unicode="Z" horiz-adv-x="471" 
d="M444 38l0.999023 -2.00391c-4 -10 -10.167 -18.333 -18.5 -25s-16.166 -11 -23.499 -13c-10.667 -2.66699 -58.667 -4 -144 -4c-121.333 0 -202.333 2.66699 -243 8c-4.66699 1.33301 -9 4.5 -13 9.5s-6 9.16699 -6 12.5c65.333 81.333 139.833 180.5 223.5 297.5
s144.5 205.167 182.5 264.5h-304c-25.333 0 -38 3.33301 -38 10c0 10.667 7.66699 22.334 23 35.001c18.667 -4 46.667 -6 84 -6h305c0.666992 -11.333 -4.33301 -24.666 -15 -39.999c-34.667 -55.333 -89.667 -136.666 -165 -243.999s-149.333 -207.666 -222 -300.999
c49.333 -4.66699 114.5 -7 195.5 -7s140.167 1.66699 177.5 5z" />
    <glyph glyph-name="bracketleft" unicode="[" horiz-adv-x="282" 
d="M87 213c36.667 276.667 58.335 424.998 65.002 444.998c4 3.33301 21.833 7 53.5 11s58.167 6 79.5 6c4 -8 6 -15 6 -21c0 -5.33301 -5.33301 -8.66602 -16 -9.99902c-32 -3.33301 -56 -7 -72 -11c-9.33301 -2.66699 -16 -12 -20 -28
c-0.666992 -4 -2.83398 -19.667 -6.50098 -47l-19.5 -149l-27 -204c-26.667 -208.667 -40 -317.334 -40 -326.001c1.33301 -11.333 7.66602 -18 18.999 -20c6 -1.33301 33.667 -4.66602 83 -9.99902c6.66699 -1.33301 10 -3.33301 10 -6c0 -5.33301 -5 -12.666 -15 -21.999
c-20 0 -41.5 1.16699 -64.5 3.5s-42 4.83301 -57 7.5s-23.167 5 -24.5 7c0 9.33301 15.333 134 46 374z" />
    <glyph glyph-name="backslash" unicode="\" horiz-adv-x="302" 
d="M119 640l128.999 -706c2.66699 -16.667 -1 -25 -11 -25l-28 -4l-126 706c-1.33301 10 -0.666016 17 2.00098 21s10 6.33301 22 7z" />
    <glyph glyph-name="bracketright" unicode="]" horiz-adv-x="282" 
d="M200 284c-29.333 -244 -50.9941 -392.668 -64.9941 -446.001c-4.66699 -2.66699 -22.834 -6.16699 -54.501 -10.5s-58.834 -6.5 -81.501 -6.5c-3.33301 8 -5 15 -5 21c0 4.66699 6.33301 8 19 10c41.333 5.33301 65 9 71 11c8 1.33301 13.667 10.666 17 27.999
c7.33301 32.667 26 166 56 400c26 202.667 39 311.334 39 326.001c-0.666992 9.33301 -6.33398 15 -17.001 17c-18.667 4.66699 -46.667 8.66699 -84 12c-6 1.33301 -9 4 -9 8c2.66699 8 7 15 13 21c25.333 0 54.666 -2.16699 87.999 -6.5s52.666 -8.16602 57.999 -11.499
c-0.666992 -17.333 -3.33398 -44.833 -8.00098 -82.5l-19 -146.5c-8 -60 -14 -108 -18 -144z" />
    <glyph glyph-name="asciicircum" unicode="^" horiz-adv-x="565" 
d="M70 233l170 349.999c4.66699 8.66699 12 14.334 22 17.001c14 2 24.333 2.66699 31 2l180 -369c-3.33301 -3.33301 -9.66602 -6.83301 -18.999 -10.5s-16.333 -5.5 -21 -5.5c-6 0 -12 7.33301 -18 22l-146 312l-146 -318c-6.66699 -10.667 -12.334 -16 -17.001 -16
c-12 0 -24 5.33301 -36 16z" />
    <glyph glyph-name="underscore" unicode="_" horiz-adv-x="500" 
d="M472 -75v-50h-500v50h500z" />
    <glyph glyph-name="grave" unicode="`" horiz-adv-x="400" 
d="M176 676h1.00098c5.33301 -0.666992 18.166 -17.834 38.499 -51.501s35.5 -61.5 45.5 -83.5c4 -10.667 3.66699 -18 -1 -22c-2.66699 -2 -5.16699 -4 -7.5 -6s-4.16602 -3.66699 -5.49902 -5s-2.33301 -2 -3 -2c-30.667 49.333 -63.667 94.333 -99 135
c-5.33301 6.66699 -5.33301 12.334 0 17.001c13.333 12 23.666 18 30.999 18z" />
    <glyph glyph-name="a" unicode="a" horiz-adv-x="466" 
d="M24 113l-0.000976562 1.00293c0 44 9 90.5 27 139.5s44.667 90.5 80 124.5c48.667 45.333 108 68 178 68c24.667 0 61.667 -6 111 -18c-16.667 -72 -32 -168.333 -46 -289c-7.33301 -52.667 -11 -99.334 -11 -140.001c-16 -7.33301 -30.333 -11 -43 -11
c-2 0 -3 5.83301 -3 17.5s0.833008 28.167 2.5 49.5s4.16699 44.666 7.5 69.999c0 2 1.33301 11.167 4 27.5s4.33398 28.166 5.00098 35.499c-34 -66.667 -71.833 -116.667 -113.5 -150s-81.5 -50 -119.5 -50c-22.667 0 -41.5 10.333 -56.5 31s-22.5 52 -22.5 94z
M122.999 32.0029h0.99707c42.667 0 88.667 32.333 138 97s81.333 139 96 223c5.33301 21.333 8 36.333 8 45c-19.333 7.33301 -40.666 11 -63.999 11c-65.333 0 -116.666 -24 -153.999 -72c-46.667 -60 -70 -134.667 -70 -224c0 -24 3.83301 -43.333 11.5 -58
s18.834 -22 33.501 -22z" />
    <glyph glyph-name="b" unicode="b" horiz-adv-x="481" 
d="M170 -12l-0.999023 -0.00195312c-22.667 0 -46 4.33301 -70 13s-43 22 -57 40c2.66699 10.667 13.167 79 31.5 205s30.833 216.333 37.5 271l10 82l5.5 47l2.5 21c17.333 8.66699 31.333 13 42 13c6.66699 0 8 -13.333 4 -40
c-1.33301 -6.66699 -8.33301 -55.667 -21 -147s-23.667 -166.333 -33 -225c32.667 56 69 99.5 109 130.5s78.333 46.5 115 46.5c23.333 0 42.5 -8.16699 57.5 -24.5s24.667 -33.666 29 -51.999s6.5 -37.166 6.5 -56.499c0 -54 -10.167 -105.333 -30.5 -154
s-51.333 -89.167 -93 -121.5s-89.834 -48.5 -144.501 -48.5zM329.001 400.998l-0.999023 0.000976562c-41.333 0 -86 -27.5 -134 -82.5s-78.667 -122.5 -92 -202.5c-4.66699 -28 -7.66699 -47.333 -9 -58c7.33301 -9.33301 19.5 -16.833 36.5 -22.5s32.833 -8.5 47.5 -8.5
c65.333 0 116.166 28.167 152.499 84.5s54.5 123.166 54.5 200.499c0 26.667 -5 48.167 -15 64.5s-23.333 24.5 -40 24.5z" />
    <glyph glyph-name="c" unicode="c" horiz-adv-x="373" 
d="M274 446h0.999023c13.333 0 27.333 -2.5 42 -7.5s24 -10.5 28 -16.5c-1.33301 -8.66699 -4.5 -15.5 -9.5 -20.5s-9.5 -6.83301 -13.5 -5.5c-19.333 7.33301 -38 11 -56 11c-52 0 -95.833 -25 -131.5 -75s-53.5 -111 -53.5 -183c0 -37.333 7.5 -66.333 22.5 -87
s36.833 -31 65.5 -31c48.667 0 95.334 23.333 140.001 70c6.66699 -4 10 -11 10 -21c0 -8 -4 -16 -12 -24c-42 -45.333 -93.333 -68 -154 -68c-34.667 0 -64 12.167 -88 36.5s-36 63.5 -36 117.5c0 78 22.833 148.167 68.5 210.5s104.5 93.5 176.5 93.5z" />
    <glyph glyph-name="d" unicode="d" horiz-adv-x="476" 
d="M113 -12l-1.00098 0.000976562c-27.333 0 -49 11.667 -65 35s-24 57.333 -24 102c0 52 10.333 102 31 150s51.834 88.5 93.501 121.5s88.834 49.5 141.501 49.5c34 0 63 -8.66699 87 -26c14.667 85.333 26.334 168 35.001 248c12.667 8 26.667 12 42 12
c5.33301 0 6 -14.333 2 -43c-42.667 -269.333 -67.667 -435.333 -75 -498c-7.33301 -55.333 -10.333 -102 -9 -140c-16 -7.33301 -30.333 -11 -43 -11c-2.66699 0.666992 -3.33398 15.167 -2.00098 43.5s3.66602 58.5 6.99902 90.5c6 37.333 9 56.666 9 57.999
c-30 -56 -65.333 -102 -106 -138s-81.667 -54 -123 -54zM128.999 33.001h0.999023c42.667 0 89 31 139 93s81.667 136 95 222c0.666992 2.66699 1.5 8.16699 2.5 16.5s1.83301 13.833 2.5 16.5c-21.333 18 -49.666 27 -84.999 27c-61.333 0 -111.333 -27.5 -150 -82.5
s-58 -121.833 -58 -200.5c0 -61.333 17.667 -92 53 -92z" />
    <glyph glyph-name="e" unicode="e" horiz-adv-x="385" 
d="M259 446h1.00098c26.667 0 48.334 -7.16699 65.001 -21.5s25 -33.833 25 -58.5c0 -27.333 -8.5 -51.666 -25.5 -72.999s-39.333 -38.333 -67 -51s-56.334 -22.334 -86.001 -29.001s-59.834 -10.667 -90.501 -12c-2 -10.667 -3 -26.667 -3 -48
c0 -37.333 7.5 -67.166 22.5 -89.499s37.5 -33.5 67.5 -33.5c55.333 0 105 26.333 149 79c6.66699 -2 10 -8.66699 10 -20c0 -10.667 -4.66699 -21.334 -14 -32.001c-39.333 -46 -92.333 -69 -159 -69c-84 0 -126 53 -126 159c0 74 21 142.333 63 205s98 94 168 94z
M249.001 410h-1c-40 0 -74.167 -17 -102.5 -51s-47.833 -74.667 -58.5 -122c74 4.66699 128.5 18.5 163.5 41.5s52.5 50.5 52.5 82.5c0 15.333 -5 27.333 -15 36s-23 13 -39 13z" />
    <glyph glyph-name="f" unicode="f" horiz-adv-x="223" 
d="M95 387l-72.9961 0.00195312c3.33301 24 12.333 36.333 27 37h50c6 45.333 14.333 84.666 25 117.999s21.5 59 32.5 77s23.667 32.333 38 43s27 17.334 38 20.001s23.167 4 36.5 4c27.333 0 46.666 -6.33301 57.999 -19c0 -8 -2.5 -15 -7.5 -21s-10.5 -7.66699 -16.5 -5
c-10.667 4.66699 -22.667 7 -36 7c-34 0 -60 -18.333 -78 -55s-31.667 -93 -41 -169c67.333 0 105.666 1 114.999 3c-6 -16 -14.333 -27.333 -25 -34c-7.33301 -4 -39.333 -6 -96 -6c-16.667 -133.333 -32.334 -249.333 -47.001 -348
c-14 -95.333 -34.833 -162.333 -62.5 -201s-65.167 -58 -112.5 -58c-13.333 0 -26.833 2.33301 -40.5 7s-22.834 10 -27.501 16c-4.66699 5.33301 -6.16699 12.166 -4.5 20.499s5.16699 13.833 10.5 16.5c21.333 -14 42.333 -21 63 -21c39.333 0 67.833 18.667 85.5 56
s33.834 106.666 48.501 207.999c9.33301 64.667 22.666 166 39.999 304z" />
    <glyph glyph-name="g" unicode="g" horiz-adv-x="386" 
d="M219 446l0.996094 0.00195312c26 0 51 -8.33301 75 -25c6.66699 -4.66699 13 -6.33398 19 -5.00098c4 0 17.667 1.5 41 4.5s38.333 5.5 45 7.5c-2 -6 -4.66699 -21.667 -8 -47h-71c9.33301 -21.333 14 -44.333 14 -69c0 -62 -17.167 -111.833 -51.5 -149.5
s-75.166 -56.834 -122.499 -57.501c-15.333 0 -29 2 -41 6c-16 -12 -24 -22.333 -24 -31c0 -16 15 -27.667 45 -35c69.333 -19.333 116 -33.333 140 -42c20.667 -8 36.5 -19.833 47.5 -35.5s16.5 -32.5 16.5 -50.5c0 -37.333 -17.667 -71.166 -53 -101.499
s-81.666 -45.5 -138.999 -45.5c-61.333 0 -108.666 14.333 -141.999 43s-50 59.334 -50 92.001c0 35.333 39 75.333 117 120c-19.333 13.333 -29 29 -29 47c0 6 4.83301 14.167 14.5 24.5s19.834 19.166 30.501 26.499c-35.333 23.333 -53 61.666 -53 114.999
c0 52.667 16.167 100.5 48.5 143.5s75.5 64.5 129.5 64.5zM286.996 317.002v1c0 24 -6.16699 45.333 -18.5 64s-31.833 28 -58.5 28c-34.667 0 -63.334 -16.5 -86.001 -49.5s-34 -73.5 -34 -121.5c0 -32.667 6.83301 -57.334 20.5 -74.001s32.834 -25 57.501 -25
c37.333 0 66.5 17.833 87.5 53.5s31.5 76.834 31.5 123.501zM162.996 -188.998h0.999023c40.667 0 73 9.33301 97 28s36 40 36 64c0 16.667 -4.66699 30.5 -14 41.5s-26 20.5 -50 28.5c-52 17.333 -93.667 29.333 -125 36c-28.667 -15.333 -52.167 -32.166 -70.5 -50.499
s-27.5 -34.5 -27.5 -48.5c0 -26.667 14.833 -49.834 44.5 -69.501s65.834 -29.5 108.501 -29.5z" />
    <glyph glyph-name="h" unicode="h" horiz-adv-x="488" 
d="M351 446l1.00098 -0.00292969c58 0 79.333 -50.333 64 -151l-27 -157c-11.333 -66 -17.666 -112.333 -18.999 -139c-14.667 -7.33301 -29.334 -11 -44.001 -11c-2 0 -3.16699 3.83301 -3.5 11.5s1 22.834 4 45.501s7.5 51.667 13.5 87l31 182c10.667 60 -1 90 -35 90
c-19.333 0 -40.833 -7.5 -64.5 -22.5s-47.334 -36.5 -71.001 -64.5s-45.5 -65.667 -65.5 -113s-34.667 -99.666 -44 -156.999c-4.66699 -26 -9 -41 -13 -45c-6.66699 -5.33301 -21.667 -8.66602 -45 -9.99902c12.667 62.667 39 237.667 79 525c8.66699 62 15 112.333 19 151
c16 8 29.667 12 41 12c4.66699 0 7.16699 -3.83301 7.5 -11.5s-0.833984 -19.167 -3.50098 -34.5l-56 -385c34 64.667 72.333 113.667 115 147s81.334 50 116.001 50z" />
    <glyph glyph-name="i" unicode="i" horiz-adv-x="197" 
d="M145 662l1 0.000976562c17.333 0 26 -10.333 26 -31c0 -11.333 -3.66699 -19.833 -11 -25.5s-15 -8.5 -23 -8.5c-18 0 -27 9.66699 -27 29c0 13.333 3.66699 22.666 11 27.999s15 8 23 8zM136 446.001h1c6 0 8 -7.66699 6 -23l-53 -392
c-1.33301 -14.667 -5.33301 -24 -12 -28c-14 -6 -27.667 -9.66699 -41 -11c10 65.333 22 149.333 36 252c14 106.667 21.333 170 22 190c17.333 8 31 12 41 12z" />
    <glyph glyph-name="j" unicode="j" horiz-adv-x="200" 
d="M145 662l1 0.000976562c17.333 0 26 -10.333 26 -31c0 -11.333 -3.66699 -19.833 -11 -25.5s-15 -8.5 -23 -8.5c-18 0 -27 9.66699 -27 29c0 13.333 3.66699 22.666 11 27.999s15 8 23 8zM139 446.001l1.00098 -0.00292969c4.66699 0 6 -11 4 -33
c-9.33301 -80.667 -26.666 -209 -51.999 -385c-4.66699 -32 -9.5 -59.167 -14.5 -81.5s-11.667 -44.666 -20 -66.999s-18 -40.333 -29 -54s-25 -24.667 -42 -33s-36.5 -12.5 -58.5 -12.5c-12.667 0 -24.334 3.33301 -35.001 10c-6 4 -9.5 10.333 -10.5 19s0.5 15 4.5 19
c12 -6.66699 25.333 -10 40 -10c34.667 0 60 14.333 76 43s29.333 77.334 40 146.001c15.333 102.667 28.666 197.334 39.999 284.001c9.33301 71.333 14 119 14 143c13.333 8 27.333 12 42 12z" />
    <glyph glyph-name="k" unicode="k" horiz-adv-x="428" 
d="M406 420c-22.667 -12.667 -60.998 -39.499 -114.998 -80.499s-95.333 -74.167 -124 -99.5c20.667 -30 54.334 -71.167 101.001 -123.5s82 -87.833 106 -106.5c-2 -4 -7.16699 -8.66699 -15.5 -14s-15.5 -8 -21.5 -8c-9.33301 0 -32.333 19.667 -69 59
c-60 66 -111.667 127.667 -155 185c-8.66699 -65.333 -18 -126 -28 -182c-4.66699 -26 -9.66699 -41.333 -15 -46c-10 -8 -24 -12 -42 -12c19.333 91.333 47 266.666 83 525.999c12 88.667 18 138 18 148c13.333 9.33301 27.666 14 42.999 14c5.33301 0 6.33301 -15 3 -45
c0 -2 -7.33301 -49.667 -22 -143s-27.334 -177 -38.001 -251c41.333 38.667 106.333 92 195 160c39.333 30 63.333 45 72 45c5.33301 0 10.666 -3 15.999 -9s8 -11.667 8 -17z" />
    <glyph glyph-name="l" unicode="l" horiz-adv-x="197" 
d="M173 635l-85.999 -594c-3.33301 -24 -9 -37.667 -17 -41c-10.667 -4 -23.667 -6.66699 -39 -8c20 108 46.333 283 79 525c11.333 78.667 18 129.667 20 153c17.333 6.66699 31.333 10 42 10c5.33301 0 5.66602 -15 0.999023 -45z" />
    <glyph glyph-name="m" unicode="m" horiz-adv-x="768" 
d="M122 252l2.99316 0.00390625c30.667 58 66.334 104.833 107.001 140.5s79 53.5 115 53.5c60 0 81.333 -54.333 64 -163c-1.33301 -6 -2.16602 -11.167 -2.49902 -15.5s-0.833008 -8.16602 -1.5 -11.499h3c32.667 61.333 68.834 108.333 108.501 141s77.167 49 112.5 49
c61.333 0 83 -55.667 65 -167c-1.33301 -8.66699 -9 -55.667 -23 -141c-10 -63.333 -15.667 -109.666 -17 -138.999c-13.333 -7.33301 -28.666 -11 -45.999 -11c-1.33301 1.33301 -1.83301 7.5 -1.5 18.5s1.83301 27.833 4.5 50.5s6.33398 47 11.001 73
c17.333 105.333 26.333 161 27 167c8.66699 70 -4.66602 105 -39.999 105c-16 0 -34.667 -7 -56 -21s-43.833 -34.5 -67.5 -61.5s-46 -65.167 -67 -114.5s-37.167 -105 -48.5 -167c-2.66699 -12.667 -5.16699 -21.334 -7.5 -26.001s-6.16602 -8.33398 -11.499 -11.001
c-9.33301 -5.33301 -21.666 -8.33301 -36.999 -9c1.33301 9.33301 5.5 33.5 12.5 72.5l21 122c7 42.333 12.5 80.166 16.5 113.499c8.66699 68 -4 102 -38 102c-15.333 0 -33.5 -6.83301 -54.5 -20.5s-43.667 -33.834 -68 -60.501s-47.333 -64.834 -69 -114.501
s-37.5 -105.834 -47.5 -168.501c-2.66699 -20 -9 -32.333 -19 -37c-8.66699 -4.66699 -21.334 -7.66699 -38.001 -9c22 126.667 36 212 42 256c13.333 97.333 19.333 159.333 18 186c12 8 26.667 12 44 12c2 0 3.33301 -3.66699 4 -11s0.166992 -22.666 -1.5 -45.999
s-4.83398 -53.333 -9.50098 -90c-0.666992 -3.33301 -1.66699 -10.333 -3 -21s-2.66602 -19.334 -3.99902 -26.001z" />
    <glyph glyph-name="n" unicode="n" horiz-adv-x="486" 
d="M120 248h2.99902c30.667 58.667 67 106.334 109 143.001s81.333 55 118 55c12 0 22.167 -1.66699 30.5 -5s16.833 -10.5 25.5 -21.5s13.334 -27.167 14.001 -48.5s-1 -50 -5 -86c-2 -11.333 -5.5 -32.5 -10.5 -63.5l-13.5 -83.5c-11.333 -78.667 -17 -125 -17 -139
c-14.667 -7.33301 -30.334 -11 -47.001 -11c-1.33301 2 -2 7 -2 15s1.33301 23.667 4 47s6.66699 50.666 12 81.999c0.666992 5.33301 4.5 28 11.5 68s12.167 73.333 15.5 100c6 28.667 6.33301 52.834 1 72.501s-18 29.5 -38 29.5c-18 0 -38.5 -8 -61.5 -24
s-46.333 -38.333 -70 -67s-45.667 -67 -66 -115s-35.166 -100.667 -44.499 -158c-2.66699 -12.667 -5.16699 -21.334 -7.5 -26.001s-6.16602 -8.33398 -11.499 -11.001c-9.33301 -5.33301 -21.666 -8.33301 -36.999 -9c13.333 72.667 27 158 41 256
c14 98.667 20 160.667 18 186c10.667 8 25.334 12 44.001 12c1.33301 0 2.16602 -4.16699 2.49902 -12.5s-0.333984 -24.166 -2.00098 -47.499s-4.83398 -52.333 -9.50098 -87c-0.666992 -8.66699 -3 -25.667 -7 -51z" />
    <glyph glyph-name="o" unicode="o" horiz-adv-x="446" 
d="M258 446l1 0.000976562c48 0 83.333 -15.333 106 -46s34 -71 34 -121c0 -80.667 -22 -149.334 -66 -206.001s-97.667 -85 -161 -85c-96 0 -144 55.667 -144 167c0 44 8.5 87.667 25.5 131s43.667 80.833 80 112.5s77.833 47.5 124.5 47.5zM252 409.001
l-0.999023 0.00195312c-44.667 0 -83.834 -25.5 -117.501 -76.5s-50.5 -111.5 -50.5 -181.5c0 -44.667 9 -76.834 27 -96.501s40.667 -29.5 68 -29.5c42 0 80.167 23.667 114.5 71s51.5 110.666 51.5 189.999c0 34 -7.16699 63 -21.5 87s-37.833 36 -70.5 36z" />
    <glyph glyph-name="p" unicode="p" horiz-adv-x="481" 
d="M120 268h2.99902c31.333 54.667 66 97.834 104 129.501s77 47.5 117 47.5c33.333 0 57.5 -14.167 72.5 -42.5s22.5 -58.833 22.5 -91.5c0 -87.333 -23 -163 -69 -227s-105.667 -96 -179 -96c-44 0 -79.333 14 -106 42c-2.66699 -19.333 -6.16699 -42 -10.5 -68l-13 -78.5
c-4.33301 -26.333 -7.16602 -44.166 -8.49902 -53.499c-3.33301 -22 -8 -35 -14 -39c-8 -6.66699 -22 -10.334 -42 -11.001c30.667 171.333 56.334 332.666 77.001 483.999c12.667 95.333 19.667 152.666 21 171.999c16 10.667 33 16 51 16
c-3.33301 -21.333 -7.83301 -52.166 -13.5 -92.499s-9.83398 -70.833 -12.501 -91.5zM325.999 400l-0.999023 -0.000976562c-40.667 0 -85.667 -29 -135 -87s-80.333 -129.333 -93 -214c-0.666992 -3.33301 -2 -11 -4 -23c9.33301 -13.333 23.333 -24.333 42 -33
s38 -13 58 -13c61.333 0 108.666 27 141.999 81s50 118.333 50 193c0 28.667 -5 51.834 -15 69.501s-24.667 26.5 -44 26.5z" />
    <glyph glyph-name="q" unicode="q" horiz-adv-x="476" 
d="M24 119l0.00292969 0.999023c0 54 10.167 105.333 30.5 154s52.166 89.5 95.499 122.5s93.666 49.5 150.999 49.5c30.667 0 73 -7.33301 127 -22c-12 -63.333 -43.333 -264 -94 -602c-2.66699 -16.667 -8.33398 -27.667 -17.001 -33
c-10 -5.33301 -23.333 -8.33301 -40 -9c3.33301 14.667 8.33301 42.334 15 83.001l25 155.5l25 152.5c-32 -60 -68.333 -105.5 -109 -136.5s-80.667 -46.5 -120 -46.5c-25.333 0 -46.5 11.167 -63.5 33.5s-25.5 54.833 -25.5 97.5zM77.0029 120.999l0.000976562 -0.998047
c0 -23.333 4.66699 -43.833 14 -61.5s23 -26.5 41 -26.5c17.333 0 37 6.33301 59 19s44.833 31.5 68.5 56.5s45.667 59.833 66 104.5s34.833 94.667 43.5 150c0.666992 4 2 15 4 33c-26 8.66699 -52.667 13 -80 13c-45.333 0 -84.833 -14.333 -118.5 -43
s-58.334 -64.334 -74.001 -107.001s-23.5 -88.334 -23.5 -137.001z" />
    <glyph glyph-name="r" unicode="r" horiz-adv-x="313" 
d="M121 270l2 0.000976562c25.333 54 52.833 96.833 82.5 128.5s56.834 47.5 81.501 47.5c16 0 27 -5.33301 33 -16c0.666992 -10.667 -5.33301 -23.334 -18 -38.001c-9.33301 5.33301 -18.333 8 -27 8c-6 0 -13.833 -2.83301 -23.5 -8.5s-22 -16.834 -37 -33.501
s-29.833 -37.5 -44.5 -62.5s-29.5 -59.667 -44.5 -104s-27.5 -94.166 -37.5 -149.499c-4.66699 -24.667 -11.334 -38.667 -20.001 -42c-9.33301 -4 -22 -6.66699 -38 -8c13.333 62.667 29.333 159.667 48 291c10 70 12 120.333 6 151c9.33301 8 23 12 41 12
c2 0 3.66699 -5 5 -15s1.5 -29.167 0.5 -57.5s-4.16699 -62.833 -9.5 -103.5z" />
    <glyph glyph-name="s" unicode="s" horiz-adv-x="331" 
d="M200 446h1c14.667 0 31 -3.33301 49 -10s30.667 -14.667 38 -24c-5.33301 -22 -15.666 -29.667 -30.999 -23c-27.333 12 -49.333 18 -66 18c-24 0 -44.167 -7.33301 -60.5 -22s-24.5 -33.667 -24.5 -57c0 -17.333 5.16699 -32.166 15.5 -44.499
s32.833 -30.166 67.5 -53.499c34 -22 56 -41 66 -57s15 -34.667 15 -56c0 -36.667 -13.833 -67.334 -41.5 -92.001s-62.5 -37 -104.5 -37c-51.333 0 -87 12.667 -107 38c-6 8.66699 -4 22 6 40c34 -26 68.333 -39 103 -39c31.333 0 55 7.5 71 22.5s24 34.167 24 57.5
c0 17.333 -5 32.5 -15 45.5s-32.667 31.167 -68 54.5c-30.667 19.333 -51.5 37.166 -62.5 53.499s-16.5 35.833 -16.5 58.5c0 36 13.667 66.167 41 90.5s60.666 36.5 99.999 36.5z" />
    <glyph glyph-name="t" unicode="t" horiz-adv-x="294" 
d="M243 100l2.00195 0.000976562c10 -18.667 6.33301 -38 -11 -58c-32 -36 -67.667 -54 -107 -54c-26.667 0 -45.667 10.667 -57 32s-13 59.333 -5 114c6 44.667 19.333 129 40 253h-69c0 8 2.66699 16.167 8 24.5s11.333 12.5 18 12.5h49c2 9.33301 4 20 6 32
s3.66699 21.667 5 29s2.83301 14.833 4.5 22.5s3.16699 13.667 4.5 18s2.66602 7.16602 3.99902 8.49902c14.667 14.667 30 22 46 22l-23 -132c73.333 0 118.666 1.33301 135.999 4c-4 -14.667 -12.333 -25.667 -25 -33c-8 -5.33301 -47 -8 -117 -8
c-20 -119.333 -33.333 -207 -40 -263c-4 -34 -3.66699 -58 1 -72s14.667 -21 30 -21c32 0 65.333 23 100 69z" />
    <glyph glyph-name="u" unicode="u" horiz-adv-x="478" 
d="M342 156l-2.00195 0.998047c-58.667 -112.667 -128.667 -169 -210 -169c-34 0 -56.5 15.167 -67.5 45.5s-12.5 69.5 -4.5 117.5c6.66699 42.667 14.667 89 24 139c8 50 14.333 97.667 19 143c16 8.66699 30.667 13 44 13c5.33301 0 6.66602 -10.667 3.99902 -32
c-20.667 -124 -35.667 -218 -45 -282c-5.33301 -35.333 -3.5 -61 5.5 -77s22.167 -24 39.5 -24c16 0 33.833 5.66699 53.5 17s40.834 29.333 63.501 54s44 61.5 64 110.5s35.667 106.167 47 171.5c4.66699 30.667 11.334 48.334 20.001 53.001c12.667 6 25.334 9 38.001 9
c-22 -102 -38.667 -204.333 -50 -307c-8 -59.333 -11 -106 -9 -140c-16 -7.33301 -30 -11 -42 -11c-2 0 -3.16699 6.33301 -3.5 19s0.5 32.334 2.5 59.001s5 56.667 9 90z" />
    <glyph glyph-name="v" unicode="v" horiz-adv-x="404" 
d="M379 400l-0.00195312 -1.00098c0 -51.333 -18 -107.666 -54 -168.999c-48.667 -85.333 -107 -157.666 -175 -216.999c-10.667 -8.66699 -18.667 -14 -24 -16c-16 -6 -26.667 -9 -32 -9c-9.33301 18.667 -16.666 64.667 -21.999 138
c-5.33301 86 -8.66602 188.667 -9.99902 308c14 8 27.333 12 40 12c6 0 9 -7.66699 9 -23c-1.33301 -106 2 -207.333 10 -304c3.33301 -40 6.66602 -63 9.99902 -69c52 47.333 98.833 103.666 140.5 168.999s62.5 128 62.5 188v28c14.667 7.33301 26.334 11 35.001 11
c6.66699 0 10 -15.333 10 -46z" />
    <glyph glyph-name="w" unicode="w" horiz-adv-x="634" 
d="M353 416l1.00488 0.00195312c5.33301 0 8 -7.66699 8 -23c0 -42.667 3.5 -105.834 10.5 -189.501s13.833 -133.5 20.5 -149.5c39.333 42 78 95.667 116 161s57 127 57 185c0 11.333 -1 24 -3 38c10.667 5.33301 22 8 34 8c3.33301 0 6.16602 -5.66699 8.49902 -17
s3.5 -22.333 3.5 -33c0 -44 -13.167 -93.667 -39.5 -149s-52.5 -100.333 -78.5 -135s-51.333 -65 -76 -91c-10.667 -10.667 -21.334 -19 -32.001 -25c-12 -6 -21.333 -9 -28 -9c-6.66699 15.333 -13.834 60.5 -21.501 135.5s-12.167 135.167 -13.5 180.5
c-21.333 -44.667 -50.833 -96 -88.5 -154s-69.5 -102.333 -95.5 -133c-5.33301 -6.66699 -13 -13 -23 -19c-10 -5.33301 -19.333 -8.33301 -28 -9c-10 18.667 -15.667 68 -17 148c-0.666992 30.667 -0.833984 81.167 -0.500977 151.5s0.5 119.166 0.5 146.499
c20 8 33.667 12 41 12s10.666 -7.66699 9.99902 -23c-4 -96 -5.33301 -187.333 -4 -274c0 -45.333 2.33301 -75 7 -89c27.333 35.333 61.333 84.333 102 147s71.334 118.667 92.001 168v27c13.333 9.33301 25.666 14 36.999 14z" />
    <glyph glyph-name="x" unicode="x" horiz-adv-x="388" 
d="M55 433l1.00293 1.99805c11.333 7.33301 24 11 38 11c6 0 12.333 -7.33301 19 -22l86 -167c88 94.667 143.333 160 166 196c6 0 11.667 -3.33301 17 -10s7.66602 -14 6.99902 -22c-4.66699 -15.333 -62 -81.666 -172 -198.999c62 -120 100.667 -192.667 116 -218v-2
c-10.667 -5.33301 -23.334 -8 -38.001 -8c-8 0 -14.333 3.66699 -19 11c-6 9.33301 -14.167 24 -24.5 44l-36.5 71.5l-34 66.5c-104.667 -112.667 -163.667 -183 -177 -211c-7.33301 0 -14 2.83301 -20 8.5s-9 10.834 -9 15.501c0 8.66699 11 26 33 52
s73.333 83.333 154 172c-34.667 72 -70.334 141.667 -107.001 209z" />
    <glyph glyph-name="y" unicode="y" horiz-adv-x="399" 
d="M-7 -225c-9.33301 0 -18.333 3.16406 -27 9.49707s-12.334 11.5 -11.001 15.5c54.667 48.667 110.667 112.334 168 191.001c-7.33301 16 -14.666 43 -21.999 81c-25.333 134.667 -42.666 255 -51.999 361c13.333 8.66699 26 13 38 13c6 0 9.66699 -6 11 -18
c10.667 -99.333 25.667 -206.666 45 -321.999c6 -36 12 -59 18 -69c56 78.667 98.667 153.834 128 225.501s45 130.5 47 176.5c9.33301 4.66699 20.333 7 33 7c5.33301 0 8 -7.33301 8 -22c0 -36.667 -13.667 -89.5 -41 -158.5s-66 -141.5 -116 -217.5
c-35.333 -53.333 -76.333 -107.5 -123 -162.5s-81.334 -91.833 -104.001 -110.5z" />
    <glyph glyph-name="z" unicode="z" horiz-adv-x="345" 
d="M207 434h1c73.333 0 115.666 0.666992 126.999 2c-2.66699 -12 -8.66699 -26.667 -18 -44c-14 -25.333 -46.833 -73.666 -98.5 -144.999s-104.5 -140 -158.5 -206c6.66699 -4 45.334 -6 116.001 -6c82.667 0 129.667 1.66699 141 5c1.33301 -5.33301 0 -11.833 -4 -19.5
s-10.333 -13.5 -19 -17.5c-8.66699 -5.33301 -52 -8 -130 -8c-100.667 0 -156.334 3.66699 -167.001 11c-4.66699 7.33301 -7.66699 13 -9 17c36.667 42 88 106 154 192s108.667 146.333 128 181c-37.333 -1.33301 -67.666 -2 -90.999 -2
c-32.667 0 -57.5 0.166992 -74.5 0.5s-30.833 1.16602 -41.5 2.49902s-17.167 2.83301 -19.5 4.5s-2.83301 4.5 -1.5 8.5c2.66699 8.66699 11.667 19.667 27 33c4 -4 13.5 -6.5 28.5 -7.5s51.5 -1.5 109.5 -1.5z" />
    <glyph glyph-name="braceleft" unicode="{" horiz-adv-x="282" 
d="M292 700c2 -4.66699 3.00195 -10.665 3.00195 -17.998c0 -6 -7 -11 -21 -15c-54.667 -16.667 -82 -62.334 -82 -137.001c0 -62.667 -0.666992 -102.667 -2 -120c-6.66699 -70 -33 -113.333 -79 -130c22 -19.333 35.5 -41.5 40.5 -66.5s3.16699 -54.833 -5.5 -89.5
c-16 -76 -25.667 -128 -29 -156c-8.66699 -68 14.333 -107 69 -117c6 -1.33301 9 -4.33301 9 -9c-3.33301 -10 -9.33301 -16.333 -18 -19c-80 7.33301 -115.333 60.333 -106 159c2.66699 24.667 8.66699 60.167 18 106.5s14.666 75.166 15.999 86.499
c4 30.667 1.33301 53.834 -8 69.501s-28 26.167 -56 31.5c-1.33301 0.666992 -2 2.16699 -2 4.5s0.833008 5.16602 2.5 8.49902s3.5 6.33301 5.5 9c54 0.666992 84.667 27.667 92 81c2 14 4 63.667 6 149c2 69.333 23.667 118 65 146c23.333 16 50.666 24.667 81.999 26z
" />
    <glyph glyph-name="bar" unicode="|" horiz-adv-x="251" 
d="M133 750v-1000h-45v1000h45z" />
    <glyph glyph-name="braceright" unicode="}" horiz-adv-x="282" 
d="M98 699c38 -3.33301 66.498 -19.1689 85.498 -47.502s26.167 -65.5 21.5 -111.5c-3.33301 -25.333 -9.16602 -58.666 -17.499 -99.999s-12.833 -64.666 -13.5 -69.999c-7.33301 -47.333 12 -71.333 58 -72c3.33301 -7.33301 1.33301 -14.666 -6 -21.999
c-31.333 -7.33301 -52.166 -18.833 -62.499 -34.5s-17.5 -42.834 -21.5 -81.501c-2.66699 -26 -4.83398 -59 -6.50098 -99s-2.5 -62.667 -2.5 -68c-4 -70 -26 -117.667 -66 -143c-25.333 -16.667 -53 -26 -83 -28c-1.33301 4 -2 10 -2 18c0 7.33301 7.33301 13 22 17
c30 9.33301 51 24.333 63 45s18.333 48.667 19 84c0 27.333 2.66699 81.666 8 162.999c3.33301 38.667 10.5 68.667 21.5 90s29.833 36.333 56.5 45c-17.333 9.33301 -29.333 22 -36 38s-9.5 30.5 -8.5 43.5s3.5 29.833 7.5 50.5c13.333 56 22.333 102 27 138
c8 66.667 -16 105.334 -72 116.001c-4.66699 1.33301 -7.66699 4.33301 -9 9c2.66699 10 8.33398 16.667 17.001 20z" />
    <glyph glyph-name="asciitilde" unicode="~" horiz-adv-x="565" 
d="M175 353l0.999023 0.00292969c22 0 41 -4.5 57 -13.5s33.333 -22.833 52 -41.5c2 -2 7.33301 -7.66699 16 -17s14.5 -15.5 17.5 -18.5s8.33301 -7.83301 16 -14.5s14 -11.334 19 -14.001s10.833 -5.16699 17.5 -7.5s13.334 -3.5 20.001 -3.5
c21.333 0 37.833 8.16699 49.5 24.5s19.834 45.166 24.501 86.499c1.33301 10 5 15 11 15c10.667 0 19.667 -4.33301 27 -13c-5.33301 -105.333 -42.333 -158 -111 -158c-22 0 -42.333 6.5 -61 19.5s-42 34.167 -70 63.5c-32 32.667 -60 49 -84 49
c-40 0 -66.333 -36.333 -79 -109c-2.66699 -14 -10.667 -21 -24 -21c-8 0 -15.333 1.33301 -22 4c4 36 11.167 66.333 21.5 91s22.166 42.167 35.499 52.5s25 17.166 35 20.499s20.333 5 31 5z" />
    <glyph glyph-name="uni00A0" unicode="&#xa0;" horiz-adv-x="215" 
 />
    <glyph glyph-name="exclamdown" unicode="&#xa1;" horiz-adv-x="155" 
d="M87 364h-1c-10 0 -18.167 3.5 -24.5 10.5s-9.5 15.833 -9.5 26.5c0 13.333 3.83301 24.166 11.5 32.499s17.834 12.5 30.501 12.5c10 0 18.333 -3.33301 25 -10s10 -15.667 10 -27c0 -13.333 -3.83301 -24.166 -11.5 -32.499s-17.834 -12.5 -30.501 -12.5zM3 -172
h-0.999023c-8 0 -11 6 -9 18c3.33301 18 13.333 80.833 30 188.5l28 180.5c1.33301 11.333 5.66602 20 12.999 26c12 6.66699 20.667 10 26 10c-0.666992 -9.33301 -7.16699 -71.5 -19.5 -186.5s-19.833 -185.833 -22.5 -212.5c-2.66699 -6 -9.16699 -11.5 -19.5 -16.5
s-18.833 -7.5 -25.5 -7.5z" />
    <glyph glyph-name="cent" unicode="&#xa2;" horiz-adv-x="419" 
d="M312 574l-15.0039 -77.001c33.333 -4 59 -13 77 -27c-1.33301 -10.667 -5.66602 -18.667 -12.999 -24c-6 -4 -14 -3.66699 -24 1c-19.333 8.66699 -40.333 13 -63 13c-56 0 -98.833 -17.333 -128.5 -52s-44.5 -76.667 -44.5 -126c0 -43.333 11.833 -78.333 35.5 -105
s55.5 -40 95.5 -40c20.667 0 42 3.33301 64 10s39 14.334 51 23.001c4.66699 -20.667 -1.33301 -35.667 -18 -45c-23.333 -15.333 -54.666 -24.333 -93.999 -27l-13 -74c-1.33301 -8 -3.66602 -13.5 -6.99902 -16.5s-8.66602 -5.16699 -15.999 -6.5
c-4 -0.666992 -11.667 -1 -23 -1l20 99c-49.333 8.66699 -85.833 28.667 -109.5 60s-35.5 70.333 -35.5 117c0 57.333 18.167 106.666 54.5 147.999s85.833 65 148.5 71l13 60c2 9.33301 7.66699 15 17 17c10.667 2.66699 20 3.33398 28 2.00098z" />
    <glyph glyph-name="sterling" unicode="&#xa3;" horiz-adv-x="419" 
d="M382 15l1.00195 -1.00098c-4 -19.333 -12.667 -32 -26 -38c-18.667 -9.33301 -46.334 -14 -83.001 -14c-94.667 0 -187.667 18 -279 54l5 13c60.667 46.667 93.667 129 99 247c-46.667 0 -72.667 2.33301 -78 7c-3.33301 3.33301 -3 6 1 8c25.333 14 52 22 80 24
c5.33301 104 22 180.667 50 230s71.333 74 130 74c36.667 0 64.667 -9.66699 84 -29c0 -8.66699 -2.83301 -16 -8.5 -22s-12.167 -7 -19.5 -3c-20 9.33301 -40.333 14 -61 14c-26 0 -47.333 -6.66699 -64 -20s-29.167 -36 -37.5 -68s-13.833 -57.167 -16.5 -75.5
s-5.33398 -48.833 -8.00098 -91.5c-0.666992 -4.66699 -1 -8 -1 -10c116 0 177.667 0.333008 185 1c-6 -21.333 -20.667 -33.666 -44 -36.999c-9.33301 -1.33301 -57.666 -2 -144.999 -2c-4 -106 -32.667 -185 -86 -237c22.667 -9.33301 56.167 -17.833 100.5 -25.5
s82.166 -11.5 113.499 -11.5c49.333 0 85.333 4.33301 108 13z" />
    <glyph glyph-name="currency" unicode="&#xa4;" horiz-adv-x="419" 
d="M224 470l1 0.00292969c39.333 0 71.333 -11 96 -33c9.33301 9.33301 20.333 21.166 33 35.499s21.667 24.166 27 29.499c10 -10 15 -23.667 15 -41c-0.666992 -2.66699 -3 -6.33398 -7 -11.001l-19.5 -22l-24.5 -27c14 -29.333 21 -59.333 21 -90
c0 -58.667 -16.667 -103.667 -50 -135c30.667 -42 46.334 -64 47.001 -66c-8 -19.333 -16 -29.333 -24 -30c-3.33301 0.666992 -22 24 -56 70c-25.333 -18 -55 -27 -89 -27c-30.667 0 -57.667 6.66699 -81 20l-45 -50c-11.333 -12.667 -21 -16.667 -29 -12
c-10 8 -15 16.667 -15 26c2 2 10 10.667 24 26l34 37c-24 29.333 -36 67 -36 113c0 51.333 17.333 95.666 52 132.999c-0.666992 0.666992 -4.83398 5.83398 -12.501 15.501l-22.5 29.5c-6.66699 8.66699 -8 16.667 -4 24c6 10 12.667 16.333 20 19
c28 -34.667 45 -55 51 -61c26 18 57.333 27 94 27zM217 434.003l-1 0.000976562c-36.667 0 -66.5 -14.333 -89.5 -43s-34.5 -65 -34.5 -109c0 -34.667 9.16699 -63.834 27.5 -87.501s44.166 -35.5 77.499 -35.5c36.667 0 66.334 14 89.001 42s34 64 34 108
c0 37.333 -8.33301 67.5 -25 90.5s-42.667 34.5 -78 34.5z" />
    <glyph glyph-name="yen" unicode="&#xa5;" horiz-adv-x="419" 
d="M234 311l132.998 0.000976562l-6 -20c-2 -9.33301 -9.33301 -14 -22 -14h-116l-11 -87h127l-9 -22c-3.33301 -8 -11.666 -12 -24.999 -12h-98l-17 -156c-12.667 -5.33301 -24.667 -8 -36 -8c-6.66699 0 -9.33398 6.66699 -8.00098 20l17 144h-128
c-1.33301 14 2.33398 25.333 11.001 34h123l10 87h-137c0 13.333 4 24.666 12 33.999h127c-55.333 120 -99 209.667 -131 269v3c11.333 8 23.333 12 36 12c4.66699 0 8.66699 -3.33301 12 -10c4.66699 -8.66699 13.5 -27.167 26.5 -55.5l46 -99.5l42.5 -91
c80.667 108 140 189.667 178 245c4 5.33301 7.83301 8.5 11.5 9.5s8.5 0.166992 14.5 -2.5c16 -4.66699 21.333 -10 16 -16c-5.33301 -6.66699 -71.666 -94.667 -198.999 -264z" />
    <glyph glyph-name="brokenbar" unicode="&#xa6;" horiz-adv-x="251" 
d="M133 675v-350h-45v350h45zM133 175v-350h-45v350h45z" />
    <glyph glyph-name="section" unicode="&#xa7;" horiz-adv-x="408" 
d="M270 630l1.00391 0.000976562c12.667 0 26.167 -2.5 40.5 -7.5s25.166 -11.5 32.499 -19.5c-0.666992 -7.33301 -3.83398 -13.833 -9.50098 -19.5s-11.834 -6.5 -18.501 -2.5c-17.333 8.66699 -34 13 -50 13c-28 0 -48.333 -7.83301 -61 -23.5s-18.667 -35.5 -18 -59.5
c0.666992 -12 3.66699 -24.5 9 -37.5s10.5 -23.5 15.5 -31.5s15.667 -23.5 32 -46.5l36.5 -52.5c25.333 -37.333 43.5 -68.666 54.5 -93.999s16.5 -50.333 16.5 -75c0 -36 -6.83301 -69.5 -20.5 -100.5s-40.834 -65.167 -81.501 -102.5
c-10 -28.667 -26.167 -51.167 -48.5 -67.5s-48.5 -24.5 -78.5 -24.5c-24 0 -45.167 4.83301 -63.5 14.5s-31.5 20.167 -39.5 31.5c5.33301 23.333 15 29.666 29 18.999c24.667 -18.667 51 -28 79 -28c22 0 41.167 7.66699 57.5 23s23.5 36.333 21.5 63
c-1.33301 15.333 -6.83301 33.666 -16.5 54.999s-30.5 55.666 -62.5 102.999c-52 76.667 -78 135.334 -78 176.001c0 75.333 32.667 140.333 98 195c8.66699 32 23.5 56.5 44.5 73.5s47.167 25.5 78.5 25.5zM309.004 167.001l0.00195312 0.998047
c0 37.333 -24.667 91 -74 161l-43 64c-8.66699 13.333 -17.834 29.833 -27.501 49.5s-15.167 36.5 -16.5 50.5c-38.667 -40 -58 -88 -58 -144c0 -17.333 4.33301 -36.666 13 -57.999s17.5 -39.166 26.5 -53.499l42.5 -65.5c25.333 -38 43.166 -67.667 53.499 -89
s17.5 -44.666 21.5 -69.999c41.333 41.333 62 92.666 62 153.999z" />
    <glyph glyph-name="dieresis" unicode="&#xa8;" horiz-adv-x="400" 
d="M157 611l1 -0.000976562c9.33301 0 17.166 -3.5 23.499 -10.5s9.5 -15.5 9.5 -25.5c0 -11.333 -3.66699 -20.833 -11 -28.5s-16.666 -11.5 -27.999 -11.5c-10 0 -18.167 3.33301 -24.5 10s-9.5 15.334 -9.5 26.001c0 10 3.5 19.167 10.5 27.5s16.5 12.5 28.5 12.5z
M307 610.999h1.00098c10 0 18 -3.5 24 -10.5s9 -15.5 9 -25.5c0 -11.333 -3.66699 -20.833 -11 -28.5s-16.333 -11.5 -27 -11.5c-10 0 -18.333 3.16699 -25 9.5s-10 14.833 -10 25.5c0 10 3.66699 19.333 11 28s16.666 13 27.999 13z" />
    <glyph glyph-name="copyright" unicode="&#xa9;" horiz-adv-x="669" 
d="M341 630h0.999023c86.667 0 156.834 -30.333 210.501 -91s80.5 -135 80.5 -223c0 -92.667 -28 -168.167 -84 -226.5s-125.333 -87.5 -208 -87.5c-84 0 -154.333 29.167 -211 87.5s-85 133.833 -85 226.5s28.333 168.167 85 226.5s127 87.5 211 87.5zM341.999 596h-1
c-74 0 -134.833 -27 -182.5 -81s-71.5 -120.333 -71.5 -199c0 -77.333 24 -143.333 72 -198s109.333 -82 184 -82c73.333 0 133 26.833 179 80.5s69 120.167 69 199.5c0 77.333 -22.5 143.333 -67.5 198s-105.5 82 -181.5 82zM452.999 203v-2.00098
c-2 -14.667 -7.66699 -25.667 -17 -33c-16 -10.667 -41.667 -16 -77 -16c-47.333 0 -86.333 15 -117 45s-46 68.667 -46 116c0 48.667 15.833 88.834 47.5 120.501s73.5 47.5 125.5 47.5c19.333 0 37.5 -2.66699 54.5 -8s28.5 -11 34.5 -17
c0 -22.667 -8.33301 -30.334 -25 -23.001c-22 9.33301 -45.333 14 -70 14c-30 0 -57.667 -10.667 -83 -32s-38 -53 -38 -95c0 -41.333 11.667 -73.666 35 -96.999s56.333 -35 99 -35c29.333 0 55 5 77 15z" />
    <glyph glyph-name="ordfeminine" unicode="&#xaa;" horiz-adv-x="325" 
d="M99 275h-1.00195c-15.333 0 -28.5 7.16699 -39.5 21.5s-16.5 35.833 -16.5 64.5c0 56 16.5 105.167 49.5 147.5s76.833 63.5 131.5 63.5c10.667 0 38 -4 82 -12c-9.33301 -35.333 -19 -99.666 -29 -192.999c-5.33301 -44.667 -7.66602 -72.334 -6.99902 -83.001
c-24 -6 -36.333 -9 -37 -9c-6.66699 0 -7.66699 17.333 -3 52c2 16.667 4.66699 34.667 8 54c-20 -34 -42.667 -60.167 -68 -78.5s-48.666 -27.5 -69.999 -27.5zM114.998 316h0.999023c23.333 0 49.166 16.5 77.499 49.5s46.833 74.5 55.5 124.5
c0.666992 2 1.83398 9 3.50098 21s2.83398 19.667 3.50098 23c-10 3.33301 -24.333 5 -43 5c-38 0 -68.333 -17.833 -91 -53.5s-34 -76.167 -34 -121.5c0 -32 9 -48 27 -48z" />
    <glyph glyph-name="guillemotleft" unicode="&#xab;" horiz-adv-x="515" 
d="M92 223c10 -15.333 26.165 -43.834 48.498 -85.501s33.833 -66.167 34.5 -73.5c0 -5.33301 -2.16699 -11.166 -6.5 -17.499s-9.16602 -10.166 -14.499 -11.499c-23.333 47.333 -59 105.666 -107 174.999c-3.33301 6 -5 14 -5 24c61.333 58.667 110 118 146 178
c10.667 -8.66699 16.667 -19 18 -31c0.666992 -10 -13.666 -34.167 -42.999 -72.5s-53 -66.833 -71 -85.5zM257.998 222.999c15.333 -21.333 33.832 -51.8301 55.499 -91.4971s32.834 -65.167 33.501 -76.5c0.666992 -6.66699 -1.83301 -13.334 -7.5 -20.001
s-11.167 -11 -16.5 -13c-24.667 61.333 -61.667 123.666 -111 186.999c-4 7.33301 -6 15.666 -6 24.999c58 58 109.333 121 154 189c13.333 -8 20 -17.333 20 -28c0.666992 -14.667 -40 -72 -122 -172z" />
    <glyph glyph-name="logicalnot" unicode="&#xac;" horiz-adv-x="565" 
d="M452 85v232h-394c0.666992 15.333 3 25.833 7 31.5s11.333 8.5 22 8.5h404l7 -9v-234c0 -16.667 -13.333 -25.667 -40 -27z" />
    <glyph glyph-name="uni00AD" unicode="&#xad;" horiz-adv-x="252" 
d="M221 268l1.00195 -2.00098c-2 -10 -7.33301 -19.833 -16 -29.5s-20.334 -16.167 -35.001 -19.5c-50.667 -12 -102.334 -18.667 -155.001 -20l-2 3c7.33301 24.667 16.333 38.334 27 41.001c102.667 13.333 162.667 22.333 180 27z" />
    <glyph glyph-name="registered" unicode="&#xae;" horiz-adv-x="229" 
d="M148 640l1 -0.00195312c29.333 0 53.333 -9.66699 72 -29s28 -43.666 28 -72.999c0 -28.667 -9.33301 -52.667 -28 -72s-43 -29 -73 -29c-29.333 0 -53.166 9.66699 -71.499 29s-27.5 43.333 -27.5 72s9.16699 52.834 27.5 72.501s42.166 29.5 71.499 29.5zM147 619.998
h-1.00098c-20.667 0 -38 -7.66699 -52 -23s-21 -34.666 -21 -57.999c0 -24.667 7 -44.5 21 -59.5s32.333 -22.5 55 -22.5c22 0 40.167 7.66699 54.5 23s21.5 35 21.5 59c0 23.333 -7.16699 42.666 -21.5 57.999s-33.166 23 -56.499 23zM133.999 527.998l0.00195312 -33.999
c0 -5.33301 -2.66699 -8 -8 -8h-13v102c21.333 2.66699 32.333 4 33 4c28.667 0 43 -10.667 43 -32c0 -13.333 -7 -22 -21 -26c1.33301 -1.33301 5.66602 -8.33301 12.999 -21s13 -20.667 17 -24v-2c-5.33301 -1.33301 -10 -2 -14 -2c-6.66699 0 -12.334 3.33301 -17.001 10
c-5.33301 8 -9.33301 15.667 -12 23c-4 7.33301 -11 10.666 -21 9.99902zM134.001 575.999l-0.000976562 -35c10 0 16.667 0.333008 20 1c8.66699 2.66699 13 8.66699 13 18c0 11.333 -6.66699 17 -20 17c-7.33301 0 -11.666 -0.333008 -12.999 -1z" />
    <glyph glyph-name="macron" unicode="&#xaf;" horiz-adv-x="400" 
d="M319 544h-169c-7.33301 0 -11 3.33301 -11 10c0 14 4.33301 24.333 13 31h173c6 0 9 -2 9 -6c0 -11.333 -5 -23 -15 -35z" />
    <glyph glyph-name="degree" unicode="&#xb0;" horiz-adv-x="256" 
d="M167 602h1c26.667 0 48 -9 64 -27s24 -40.667 24 -68c0 -30 -10.167 -55.333 -30.5 -76s-46.833 -31 -79.5 -31c-24 0 -44.5 8 -61.5 24s-25.5 38 -25.5 66c0 31.333 10 57.833 30 79.5s46 32.5 78 32.5zM164 568h-0.998047c-20.667 0 -36.334 -7 -47.001 -21
s-16 -32.333 -16 -55c0 -17.333 4.66699 -31.333 14 -42s21.666 -16 36.999 -16c20 0 35.667 6.5 47 19.5s17 30.167 17 51.5c0 42 -17 63 -51 63z" />
    <glyph glyph-name="plusminus" unicode="&#xb1;" horiz-adv-x="565" 
d="M252 302l-197 -0.000976562c1.33301 26.667 12 40 32 40h165v115c0 26 -1 47.333 -3 64l23 5c10 2 16.667 0.333008 20 -5s5 -14.666 5 -27.999v-151h197c-1.33301 -26.667 -12 -40 -32 -40h-165v-177c0 -16.667 -9.33301 -26 -28 -28l-17 -2v207zM463 -0.000976562
h-406.999c1.33301 26.667 11.666 40 30.999 40h408c-1.33301 -26.667 -12 -40 -32 -40z" />
    <glyph glyph-name="twosuperior" unicode="&#xb2;" 
d="M79 675l-1.99902 0.000976562c-1.33301 6 -0.833008 13.333 1.5 22s5.5 14.667 9.5 18c27.333 23.333 58 35 92 35c28 0 50.667 -8.16699 68 -24.5s26 -38.5 26 -66.5c0 -12 -2 -24.167 -6 -36.5s-10.167 -24.333 -18.5 -36l-23 -31c-7 -9 -16.833 -19 -29.5 -30l-28 -24
c-6 -5 -15.5 -12.333 -28.5 -22s-19.833 -14.834 -20.5 -15.501c43.333 -2.66699 98.333 -2.66699 165 0c-6.66699 -16.667 -13.334 -27 -20.001 -31c-10 -4 -40 -6 -90 -6c-59.333 0 -101.666 2 -126.999 6l-1 3c0.666992 2 1.5 4 2.5 6s2.16699 4.16699 3.5 6.5
s2.33301 4.16602 3 5.49902c1.33301 0.666992 13.666 9.83398 36.999 27.501s39.833 30.667 49.5 39s23 21 40 38s29.167 33.333 36.5 49s11 31.5 11 47.5c0 18.667 -5.5 33.167 -16.5 43.5s-24.833 15.5 -41.5 15.5c-34 0 -65 -13 -93 -39z" />
    <glyph glyph-name="threesuperior" unicode="&#xb3;" 
d="M106 563l-2 4c7.33301 14.667 12 22.667 14 24c63.333 14 95 40 95 78c0 13.333 -4.33301 24 -13 32s-20.667 12 -36 12c-28.667 0 -55.334 -12.333 -80.001 -37c-1.33301 1.33301 -2.66602 3.66602 -3.99902 6.99902c-2.66699 14 0.333008 25.333 9 34
c24 22 52.333 33 85 33c23.333 0 43 -6.5 59 -19.5s24 -30.833 24 -53.5c0 -21.333 -5.66699 -38.333 -17 -51s-26.666 -24 -45.999 -34c48 -14 72 -41.333 72 -82c0 -34.667 -13 -61.5 -39 -80.5s-56 -28.5 -90 -28.5c-19.333 0 -37 2.5 -53 7.5s-26.333 11.167 -31 18.5
c-4.66699 9.33301 -6.33398 19.333 -5.00098 30h2c26.667 -14 54.334 -21 83.001 -21c24.667 0 45.5 5.66699 62.5 17s25.5 29.333 25.5 54c0 18.667 -7.33301 33.334 -22 44.001s-33.334 16 -56.001 16c-12.667 0 -25 -1.33301 -37 -4z" />
    <glyph glyph-name="acute" unicode="&#xb4;" horiz-adv-x="400" 
d="M275 674l0.999023 0.000976562c12 0 22.667 -6 32 -18c5.33301 -5.33301 4 -11.666 -4 -18.999c-22 -24.667 -55 -69.334 -99 -134.001c-4.66699 2 -10.667 7.33301 -18 16c-3.33301 3.33301 -1.66602 12 5.00098 26c12.667 25.333 28.5 53.166 47.5 83.499
s30.833 45.5 35.5 45.5z" />
    <glyph glyph-name="mu" unicode="&#xb5;" horiz-adv-x="480" 
d="M83 290c8 50 14.335 97.666 19.002 142.999c16 8.66699 30.667 13 44 13c5.33301 0 6.66602 -10.667 3.99902 -32c-20.667 -124 -35.334 -218 -44.001 -282c-5.33301 -35.333 -3.5 -61 5.5 -77s21.833 -24 38.5 -24c16 0 33.833 5.66699 53.5 17s40.834 29.333 63.501 54
s44 61.5 64 110.5s35.667 106.167 47 171.5c3.33301 20 6.16602 33.167 8.49902 39.5s6.16602 10.833 11.499 13.5c12.667 6 25.334 9 38.001 9c-22 -102 -38.667 -204.333 -50 -307c-8 -59.333 -11 -106 -9 -140c-16 -7.33301 -30 -11 -42 -11
c-2 0 -3.16699 6.33301 -3.5 19s0.5 32.334 2.5 59.001s5 56.667 9 90l-2 1c-58.667 -112.667 -128.334 -169 -209.001 -169c-21.333 0 -37.666 9 -48.999 27c-6 -42.667 -17.667 -121 -35 -235c-11.333 0 -22 3 -32 9c-12 6 -16 18.667 -12 38z" />
    <glyph glyph-name="paragraph" unicode="&#xb6;" horiz-adv-x="448" 
d="M289 170l-33.001 -8.00098c-10.667 -2.66699 -23.334 -4 -38.001 -4c-38.667 0 -73.667 14.833 -105 44.5s-46.666 70.167 -45.999 121.5c0.666992 61.333 19.834 110.333 57.501 147s81.834 55 132.501 55h94h99l1 -4c-2.66699 -10 -9 -19.333 -19 -28l-56 -5l-46 -341
c-12.667 -94 -33.334 -163.833 -62.001 -209.5s-71 -68.5 -127 -68.5c-29.333 0 -53.333 5.66699 -72 17s-28.334 22 -29.001 32c0 8.66699 4.33301 17.334 13 26.001h2c24.667 -25.333 55 -38 91 -38c37.333 0 66.333 16.667 87 50s36.334 85.333 47.001 156z" />
    <glyph glyph-name="periodcentered" unicode="&#xb7;" horiz-adv-x="148" 
d="M74 266l1.00098 -0.00195312c10 0 18 -3.66699 24 -11s9 -16.333 9 -27c0 -13.333 -3.83301 -24.166 -11.5 -32.499s-17.834 -12.5 -30.501 -12.5c-10.667 0 -19.167 3.33301 -25.5 10s-9.5 15.334 -9.5 26.001c0 14 3.83301 25.333 11.5 34s18.167 13 31.5 13z" />
    <glyph glyph-name="cedilla" unicode="&#xb8;" horiz-adv-x="400" 
d="M172 4h45.002l-42 -58c39.333 -14 59 -36.667 59 -68c0 -28.667 -12.333 -50.667 -37 -66s-52.334 -24.666 -83.001 -27.999c-4.66699 0.666992 -8.66699 4 -12 10s-4.66602 11 -3.99902 15c-0.666992 2 -0.333984 3.66699 0.999023 5s4.33301 2.66602 9 3.99902
c51.333 10 77 27.667 77 53c0 14 -7.83301 24.333 -23.5 31s-33.834 10 -54.501 10v3z" />
    <glyph glyph-name="onesuperior" unicode="&#xb9;" 
d="M226 750l3 -2c0 -0.666992 -2.83301 -21.834 -8.5 -63.501l-17.5 -131.5c-6 -46 -10.667 -83 -14 -111c-0.666992 -10 -7 -15.667 -19 -17l-25 -2c6 26.667 18.667 117 38 271c-34.667 -11.333 -64 -17.666 -88 -18.999l-1 2c2 8 7 17 15 27
c19.333 4.66699 41.333 12 66 22s41.667 18 51 24z" />
    <glyph glyph-name="ordmasculine" unicode="&#xba;" horiz-adv-x="295" 
d="M195 572h0.998047c28.667 0 51.167 -11 67.5 -33s24.5 -48 24.5 -78c0 -56 -13.667 -101 -41 -135s-61.666 -51 -102.999 -51c-31.333 0 -55.666 10.167 -72.999 30.5s-26 47.833 -26 82.5c0 48 13.5 90.667 40.5 128s63.5 56 109.5 56zM187.998 538l-1 -0.000976562
c-29.333 0 -52.833 -15.5 -70.5 -46.5s-26.5 -64.833 -26.5 -101.5c0 -54.667 19.333 -82 58 -82c25.333 0 47.333 13.833 66 41.5s28 63.834 28 108.501c0 21.333 -4.5 40 -13.5 56s-22.5 24 -40.5 24z" />
    <glyph glyph-name="guillemotright" unicode="&#xbb;" horiz-adv-x="515" 
d="M413 223c-8.66699 12.667 -24.501 40.502 -47.501 83.502s-34.833 67.833 -35.5 74.5c-0.666992 5.33301 1.33301 11.166 6 17.499s9.66699 10.166 15 11.499c20.667 -41.333 56.334 -99.666 107.001 -174.999c3.33301 -6 5 -14 5 -24
c-61.333 -58.667 -110 -118 -146 -178c-10.667 9.33301 -16.667 19.666 -18 30.999c-0.666992 9.33301 13 32.5 41 69.5s52.333 66.833 73 89.5zM246.999 223.002c-14 19.333 -32.167 49.1699 -54.5 89.5029s-33.833 66.166 -34.5 77.499
c-0.666992 7.33301 2 14.166 8 20.499s11.667 10.5 17 12.5c22 -58.667 58.667 -121 110 -187c4 -6.66699 6 -15 6 -25c-58.667 -58.667 -109.667 -121.667 -153 -189c-12.667 7.33301 -19.667 16.666 -21 27.999c0 4.66699 3.33301 13 10 25s15.834 25.667 27.501 41
l33 42.5l32.5 40.5c11.333 14 17.666 22 18.999 24z" />
    <glyph glyph-name="onequarter" unicode="&#xbc;" horiz-adv-x="650" 
d="M210 602l2.00293 -2c-0.666992 -6.66699 -3.33398 -27.834 -8.00098 -63.501l-17 -130.5c-6.66699 -51.333 -11.334 -88.666 -14.001 -111.999c-0.666992 -10 -7.33398 -15.667 -20.001 -17l-25 -2c4.66699 21.333 17 111 37 269c-30 -10 -58.667 -15.667 -86 -17l-1 2
c2 8 7 17 15 27c19.333 4.66699 41.333 12 66 22s41.667 18 51 24zM534.003 599l-437 -621c-7.33301 -9.33301 -13.333 -10.666 -18 -3.99902c-8.66699 7.33301 -13 15.666 -13 24.999l437 622c6 8.66699 13 8.66699 21 0c6 -8 9.33301 -15.333 10 -22zM557.003 335
l2.99414 -4.00195c-65.333 -60 -128.666 -131 -189.999 -213c18 -2.66699 56 -4.66699 114 -6l13 80c2.66699 2.66699 8.5 6 17.5 10s15.167 6.33301 18.5 7h4l-14 -95c14.667 0 31.334 1.33301 50.001 4l1 -3c-4.66699 -13.333 -11 -23 -19 -29
c-1.33301 -0.666992 -13.666 -2.66699 -36.999 -6c-3.33301 -20.667 -6.66602 -47 -9.99902 -79c-15.333 -5.33301 -28.666 -8.66602 -39.999 -9.99902l-4 5c6.66699 35.333 11 62.666 13 81.999c-70.667 0 -119.334 2.66699 -146.001 8c-2 2 -4.66699 5.66699 -8 11
s-4.66602 9 -3.99902 11c22 30.667 51.833 67.834 89.5 111.501s65.5 73.5 83.5 89.5c20.667 16.667 42.334 25.334 65.001 26.001z" />
    <glyph glyph-name="onehalf" unicode="&#xbd;" horiz-adv-x="650" 
d="M203 602l2.00293 -2c-0.666992 -6.66699 -3.33398 -27.834 -8.00098 -63.501l-17 -130.5c-6.66699 -51.333 -11.334 -88.666 -14.001 -111.999c-0.666992 -10 -7.33398 -15.667 -20.001 -17l-25 -2c4.66699 21.333 17 111 37 269c-29.333 -10 -58 -15.667 -86 -17l-1 2
c2 8 7 17 15 27c19.333 4.66699 41.333 12 66 22s41.667 18 51 24zM527.003 599l-436.999 -621c-7.33301 -9.33301 -13.333 -10.666 -18 -3.99902c-8.66699 7.33301 -13 15.666 -13 24.999l437 622c6.66699 8.66699 13.667 8.66699 21 0
c5.33301 -6.66699 8.66602 -14 9.99902 -22zM481.004 321l1 -0.00195312c28 0 50.5 -8.33301 67.5 -25s25.5 -39 25.5 -67c0 -12 -2 -24.167 -6 -36.5s-10 -24.333 -18 -36s-15.833 -22.167 -23.5 -31.5s-17.667 -19.333 -30 -30l-28 -24
c-6.33301 -5.33301 -15.666 -12.5 -27.999 -21.5s-19.166 -14.167 -20.499 -15.5c43.333 -2.66699 98.333 -2.66699 165 0c-6.66699 -16.667 -13.334 -27 -20.001 -31c-10 -4 -40 -6 -90 -6c-58.667 0 -101 2 -127 6l-1 3c0.666992 2 1.5 4 2.5 6s2.16699 4.16699 3.5 6.5
s2.33301 4.16602 3 5.49902l31 23.5c18 13.667 31 23.834 39 30.501s20 17.334 36 32.001s28 27.334 36 38.001s15.333 23.167 22 37.5s10 27.833 10 40.5c0 18 -5.66699 32.333 -17 43s-25 16 -41 16c-34 0 -64.667 -12.667 -92 -38h-2
c-1.33301 5.33301 -0.833008 12.5 1.5 21.5s5.5 15.167 9.5 18.5c27.333 22.667 57.666 34 90.999 34z" />
    <glyph glyph-name="threequarters" unicode="&#xbe;" horiz-adv-x="650" 
d="M168 602l0.999023 -0.00195312c23.333 0 42.833 -6.5 58.5 -19.5s23.5 -30.833 23.5 -53.5c0 -35.333 -21.333 -63.666 -64 -84.999c48 -15.333 72 -42.666 72 -81.999c0 -34.667 -13 -61.5 -39 -80.5s-56 -28.5 -90 -28.5c-19.333 0 -37 2.5 -53 7.5
s-26.333 11.167 -31 18.5c-5.33301 10.667 -7.33301 20.667 -6 30l1 1c26.667 -14.667 55 -22 85 -22c24.667 0 45.5 5.66699 62.5 17s25.5 29.333 25.5 54c0 19.333 -7.33301 34.166 -22 44.499s-33.334 15.5 -56.001 15.5c-3.33301 0 -15.666 -1.33301 -36.999 -4l-2 2
c6 15.333 11 24 15 26c63.333 15.333 95 41.333 95 78c0 13.333 -4.33301 24 -13 32s-20.667 12 -36 12c-28.667 0 -55.667 -12 -81 -36c-2 1.33301 -3.66699 4 -5 8c-1.33301 12.667 2.33398 23.334 11.001 32.001c24 22 52.333 33 85 33zM571.999 598.998l-437 -621
c-7.33301 -9.33301 -13.333 -10.666 -18 -3.99902c-8.66699 7.33301 -13 15.666 -13 24.999l437 622c6 8.66699 13 8.66699 21 0c6 -8 9.33301 -15.333 10 -22zM566.999 334.998l2.99805 -5.00098c-66.667 -62 -130 -132.667 -190 -212c18 -2.66699 56 -4.66699 114 -6
l13 80c2.66699 2.66699 8.5 6 17.5 10s15.167 6.33301 18.5 7h4l-14 -95c14 0 30.333 1.33301 49 4l2 -3c-4.66699 -13.333 -11 -23 -19 -29c-1.33301 -0.666992 -13.666 -2.66699 -36.999 -6c-3.33301 -21.333 -6.66602 -47.666 -9.99902 -78.999
c-14.667 -5.33301 -27.667 -8.66602 -39 -9.99902l-4 5c6.66699 35.333 11 62.666 13 81.999c-72 0 -120.667 2.66699 -146 8c-2.66699 2 -5.66699 5.66699 -9 11s-4.66602 9 -3.99902 11c21.333 30.667 51 67.5 89 110.5s66.333 72.833 85 89.5
c17.333 16 38.666 25 63.999 27z" />
    <glyph glyph-name="questiondown" unicode="&#xbf;" horiz-adv-x="283" 
d="M154 364h-0.999023c-24 0 -36 12.667 -36 38c0 12 3.83301 22.333 11.5 31s17.5 13 29.5 13c11.333 0 20.166 -3.5 26.499 -10.5s9.5 -16.167 9.5 -27.5c0 -12.667 -3.66699 -23.167 -11 -31.5s-17 -12.5 -29 -12.5zM88.001 -172h-0.99707c-30 0 -55.333 9 -76 27
s-31 42.333 -31 73c0 26 9.16699 49 27.5 69s44.833 41 79.5 63c29.333 18 51 33.833 65 47.5s21 29.834 21 48.501c0 20 -8.66699 36 -26 48s-42 17.667 -74 17c-2.66699 1.33301 -4 2.66602 -4 3.99902c-1.33301 8 1.66699 15.667 9 23c6 4.66699 16.333 7 31 7
c27.333 0 52.666 -8.5 75.999 -25.5s35 -41.833 35 -74.5c0 -24 -8 -45.833 -24 -65.5s-41.667 -39.5 -77 -59.5c-28.667 -17.333 -50.667 -33.833 -66 -49.5s-23 -33.5 -23 -53.5c0 -16.667 6.16699 -30.667 18.5 -42s29.833 -17 52.5 -17
c27.333 0 54.666 9.66699 81.999 29c9.33301 7.33301 16.666 6.33301 21.999 -3c3.33301 -6 4.33301 -12.667 3 -20c-35.333 -30.667 -75.333 -46 -120 -46z" />
    <glyph glyph-name="Agrave" unicode="&#xc0;" horiz-adv-x="585" 
d="M409 228l-254.002 0.00195312l-51.5 -94.5l-43.5 -81.5l-25 -47c-4 -7.33301 -9.33301 -11 -16 -11c-7.33301 0 -18.333 3.33301 -33 10l-1 2c186.667 337.333 293.334 532.666 320.001 585.999l-7 21c6.66699 10 18.334 15 35.001 15c6 0 10.333 -4.33301 13 -13
l63.5 -210.5c31 -104.333 51.833 -172.833 62.5 -205.5c30.667 -102.667 51.667 -167.334 63 -194.001v-2c-19.333 -6 -33.333 -9 -42 -9c-4 0 -7.33301 1.66699 -10 5s-5.66699 10.333 -9 21c-6.66699 20 -16.167 50.5 -28.5 91.5zM175.998 267.002h224l-33 113l-29 100.5
l-18 61.5zM244.998 770.002h1.00098c8 0 27.167 -8.66699 57.5 -26s54.5 -33 72.5 -47c7.33301 -5.33301 8.66602 -11.333 3.99902 -18c-3.33301 -4.66699 -8 -9.33398 -14 -14.001c-60 30.667 -110.667 52.334 -152 65.001
c-6.66699 1.33301 -8.33398 4.66602 -5.00098 9.99902c2.66699 6.66699 7.83398 13.334 15.501 20.001s14.5 10 20.5 10z" />
    <glyph glyph-name="Aacute" unicode="&#xc1;" horiz-adv-x="585" 
d="M409 228l-254.002 0.00195312l-51.5 -94.5l-43.5 -81.5l-25 -47c-4 -7.33301 -9.33301 -11 -16 -11c-7.33301 0 -18.333 3.33301 -33 10l-1 2c186.667 337.333 293.334 532.666 320.001 585.999l-7 21c6.66699 10 18.334 15 35.001 15c6 0 10.333 -4.33301 13 -13
l63.5 -210.5c31 -104.333 51.833 -172.833 62.5 -205.5c30.667 -102.667 51.667 -167.334 63 -194.001v-2c-19.333 -6 -33.333 -9 -42 -9c-4 0 -7.33301 1.66699 -10 5s-5.66699 10.333 -9 21c-6.66699 20 -16.167 50.5 -28.5 91.5zM175.998 267.002h224l-33 113l-29 100.5
l-18 61.5zM420.998 769.002c5.33301 -2.66699 11.501 -7.33301 18.501 -14s11.833 -12.667 14.5 -18c2.66699 -7.33301 -1 -12.666 -11 -15.999c-59.333 -16.667 -111 -35.334 -155 -56.001c-5.33301 3.33301 -9.33301 8.33301 -12 15c-3.33301 7.33301 -1 13.333 7 18
c17.333 12 42.166 26.5 74.499 43.5s53.5 26.167 63.5 27.5z" />
    <glyph glyph-name="Acircumflex" unicode="&#xc2;" horiz-adv-x="585" 
d="M409 228l-254.002 0.00195312l-51.5 -94.5l-43.5 -81.5l-25 -47c-4 -7.33301 -9.33301 -11 -16 -11c-7.33301 0 -18.333 3.33301 -33 10l-1 2c186.667 337.333 293.334 532.666 320.001 585.999l-7 21c6.66699 10 18.334 15 35.001 15c6 0 10.333 -4.33301 13 -13
l63.5 -210.5c31 -104.333 51.833 -172.833 62.5 -205.5c30.667 -102.667 51.667 -167.334 63 -194.001v-2c-19.333 -6 -33.333 -9 -42 -9c-4 0 -7.33301 1.66699 -10 5s-5.66699 10.333 -9 21c-6.66699 20 -16.167 50.5 -28.5 91.5zM175.998 267.002h224l-33 113l-29 100.5
l-18 61.5zM240.998 660.002h-0.998047c-8 0 -15.667 3.66699 -23 11c37.333 32 71 63 101 93c4 4 8.33301 7.33301 13 10c6 1.33301 11 2 15 2c21.333 -32 50.333 -65.333 87 -100c-7.33301 -10.667 -16 -16 -26 -16c-8.66699 0 -14.334 2 -17.001 6
c-8 6 -27.333 25.667 -58 59c-30 -28 -53.667 -47.333 -71 -58c-10.667 -4.66699 -17.334 -7 -20.001 -7z" />
    <glyph glyph-name="Atilde" unicode="&#xc3;" horiz-adv-x="585" 
d="M409 228l-254.002 0.00195312l-51.5 -94.5l-43.5 -81.5l-25 -47c-4 -7.33301 -9.33301 -11 -16 -11c-7.33301 0 -18.333 3.33301 -33 10l-1 2c186.667 337.333 293.334 532.666 320.001 585.999l-7 21c6.66699 10 18.334 15 35.001 15c6 0 10.333 -4.33301 13 -13
l63.5 -210.5c31 -104.333 51.833 -172.833 62.5 -205.5c30.667 -102.667 51.667 -167.334 63 -194.001v-2c-19.333 -6 -33.333 -9 -42 -9c-4 0 -7.33301 1.66699 -10 5s-5.66699 10.333 -9 21c-6.66699 20 -16.167 50.5 -28.5 91.5zM175.998 267.002h224l-33 113l-29 100.5
l-18 61.5zM289.998 770.002l1 -0.000976562c20.667 0 40.667 -11.667 60 -35c16 -19.333 26.667 -29 32 -29c10.667 0 18.334 17.667 23.001 53c1.33301 7.33301 4.66602 11 9.99902 11c8.66699 0 16.667 -5.33301 24 -16c-2 -26.667 -8 -48.167 -18 -64.5
s-23.333 -24.5 -40 -24.5c-4 0 -7.83301 0.666992 -11.5 2s-6.66699 2.5 -9 3.5s-5.5 3.33301 -9.5 7s-6.83301 6.33398 -8.5 8.00098l-10 10.5l-10.5 11c-13.333 15.333 -24.333 23 -33 23c-10.667 0 -20 -16.333 -28 -49c-1.33301 -7.33301 -4 -11 -8 -11
s-13 2.66699 -27 8c6.66699 61.333 27.667 92 63 92z" />
    <glyph glyph-name="Adieresis" unicode="&#xc4;" horiz-adv-x="585" 
d="M409 228l-254.002 0.00195312l-51.5 -94.5l-43.5 -81.5l-25 -47c-4 -7.33301 -9.33301 -11 -16 -11c-7.33301 0 -18.333 3.33301 -33 10l-1 2c186.667 337.333 293.334 532.666 320.001 585.999l-7 21c6.66699 10 18.334 15 35.001 15c6 0 10.333 -4.33301 13 -13
l63.5 -210.5c31 -104.333 51.833 -172.833 62.5 -205.5c30.667 -102.667 51.667 -167.334 63 -194.001v-2c-19.333 -6 -33.333 -9 -42 -9c-4 0 -7.33301 1.66699 -10 5s-5.66699 10.333 -9 21c-6.66699 20 -16.167 50.5 -28.5 91.5zM175.998 267.002h224l-33 113l-29 100.5
l-18 61.5zM253.998 742.002h1.00195c9.33301 0 17.166 -3.66699 23.499 -11s9.5 -16 9.5 -26c0 -11.333 -3.66699 -20.833 -11 -28.5s-16.333 -11.5 -27 -11.5c-10 0 -18.333 3.33301 -25 10s-10 16 -10 28c0 10 3.66699 19 11 27s16.666 12 27.999 12zM407 742.002h1
c9.33301 0 17.333 -3.5 24 -10.5s10 -15.5 10 -25.5c0 -12.667 -3.5 -22.667 -10.5 -30s-16.167 -11 -27.5 -11c-10 0 -18.333 3.33301 -25 10s-10 15.667 -10 27c0 10 3.66699 19.167 11 27.5s16.333 12.5 27 12.5z" />
    <glyph glyph-name="Aring" unicode="&#xc5;" horiz-adv-x="585" 
d="M409 228l-254.002 0.00195312l-51.5 -94.5l-43.5 -81.5l-25 -47c-4 -7.33301 -9.33301 -11 -16 -11c-7.33301 0 -18.333 3.33301 -33 10l-1 2c186.667 337.333 293.334 532.666 320.001 585.999l-7 21c6.66699 10 18.334 15 35.001 15c6 0 10.333 -4.33301 13 -13
l63.5 -210.5c31 -104.333 51.833 -172.833 62.5 -205.5c30.667 -102.667 51.667 -167.334 63 -194.001v-2c-19.333 -6 -33.333 -9 -42 -9c-4 0 -7.33301 1.66699 -10 5s-5.66699 10.333 -9 21c-6.66699 20 -16.167 50.5 -28.5 91.5zM175.998 267.002h224l-33 113l-29 100.5
l-18 61.5zM338.998 824.002h0.999023c22.667 0 40.834 -7.33301 54.501 -22s20.5 -33.667 20.5 -57c0 -25.333 -8.33301 -45.833 -25 -61.5s-38 -23.5 -64 -23.5c-22 0 -40 7 -54 21s-21 33.333 -21 58c0 24 8.33301 44.167 25 60.5s37.667 24.5 63 24.5zM334.997 788.002
h-0.999023c-12.667 0 -22.834 -5.16699 -30.501 -15.5s-11.5 -21.5 -11.5 -33.5c0 -29.333 13 -44 39 -44c12.667 0 23 4.66699 31 14s12 20.333 12 33c0 30.667 -13 46 -39 46z" />
    <glyph glyph-name="AE" unicode="&#xc6;" horiz-adv-x="760" 
d="M482 300h223.996c-6 -16.667 -12.5 -27.334 -19.5 -32.001s-18.5 -7 -34.5 -7h-174l-26 -219c18.667 -5.33301 59.667 -8 123 -8c68.667 0 119 1.66699 151 5l1 -5c-6.66699 -11.333 -19 -22.666 -37 -33.999c-14.667 -3.33301 -49.667 -5 -105 -5
c-85.333 0 -143.333 3.33301 -174 10l-12 20l30 236c-113.333 0 -185.666 -4 -216.999 -12c-99.333 -144.667 -158.666 -228.667 -177.999 -252c-4 -5.33301 -9.66699 -8 -17 -8c-9.33301 0 -20.666 4 -33.999 12l1 4l422 582c2 2 7 11.333 15 28
c10.667 4 33.334 7.33301 68.001 10h246c0 -14.667 -4.66699 -24.667 -14 -30c-9.33301 -6 -28 -9 -56 -9h-148zM468.996 586h-15l-212 -296c32.667 6.66699 96.667 10 192 10z" />
    <glyph glyph-name="Ccedilla" unicode="&#xc7;" horiz-adv-x="521" 
d="M227 -85l52.002 71.0029c-75.333 4.66699 -133.666 33 -174.999 85s-62 117.667 -62 197c0 42 7.33301 84.167 22 126.5s36 82.166 64 119.499s65.667 67.666 113 90.999s100.333 35 159 35c59.333 0 102.333 -12 129 -36c-3.33301 -25.333 -13.333 -33.666 -30 -24.999
c-30 14 -64.333 21 -103 21c-86.667 0 -157.834 -31.5 -213.501 -94.5s-83.5 -141.833 -83.5 -236.5c0 -70.667 18.833 -128.834 56.5 -174.501s91.5 -68.5 161.5 -68.5c32.667 0 63.167 4.33301 91.5 13s50.166 18 65.499 28l2 -2c0 -18 -5.33301 -32.333 -16 -43
c-34.667 -22 -80 -34 -136 -36l-29 -40c39.333 -14 59 -37.333 59 -70c0 -28 -12.333 -49.5 -37 -64.5s-52.334 -24.167 -83.001 -27.5c-4.66699 0.666992 -8.66699 4 -12 10s-4.66602 11 -3.99902 15c-0.666992 2 -0.333984 3.66699 0.999023 5s4.33301 2.66602 9 3.99902
c52 10 78 28 78 54c0 14 -7.83301 24.167 -23.5 30.5s-34.167 9.5 -55.5 9.5v3z" />
    <glyph glyph-name="Egrave" unicode="&#xc8;" horiz-adv-x="413" 
d="M143 341h222c-4 -16.667 -10.167 -27.334 -18.5 -32.001s-24.166 -7 -47.499 -7h-163l-35 -260c17.333 -6 58.333 -9 123 -9c72.667 0 122.667 2 150 6l1 -2c-1.33301 -7.33301 -5.33301 -15.166 -12 -23.499s-14.667 -13.5 -24 -15.5
c-15.333 -2.66699 -50.333 -4 -105 -4c-80.667 0 -139.334 3.66699 -176.001 11l-12 16l67 463c4.66699 34 10 76.667 16 128c12 6.66699 26.333 11 43 13h222c0 -14.667 -4.66699 -24.667 -14 -30c-9.33301 -6 -30.333 -9 -63 -9h-140zM196 770h1.00098
c8 0 27.167 -8.66699 57.5 -26s54.5 -33 72.5 -47c7.33301 -5.33301 8.66602 -11.333 3.99902 -18c-3.33301 -4.66699 -8 -9.33398 -14 -14.001c-60 30.667 -110.667 52.334 -152 65.001c-6.66699 1.33301 -8.33398 4.66602 -5.00098 9.99902
c2.66699 6.66699 7.83398 13.334 15.501 20.001s14.5 10 20.5 10z" />
    <glyph glyph-name="Eacute" unicode="&#xc9;" horiz-adv-x="413" 
d="M143 341h222c-4 -16.667 -10.167 -27.334 -18.5 -32.001s-24.166 -7 -47.499 -7h-163l-35 -260c17.333 -6 58.333 -9 123 -9c72.667 0 122.667 2 150 6l1 -2c-1.33301 -7.33301 -5.33301 -15.166 -12 -23.499s-14.667 -13.5 -24 -15.5
c-15.333 -2.66699 -50.333 -4 -105 -4c-80.667 0 -139.334 3.66699 -176.001 11l-12 16l67 463c4.66699 34 10 76.667 16 128c12 6.66699 26.333 11 43 13h222c0 -14.667 -4.66699 -24.667 -14 -30c-9.33301 -6 -30.333 -9 -63 -9h-140zM360 769
c5.33301 -2.66699 11.501 -7.33301 18.501 -14s11.833 -12.667 14.5 -18c2.66699 -7.33301 -1 -12.666 -11 -15.999c-59.333 -16.667 -111 -35.334 -155 -56.001c-5.33301 3.33301 -9.33301 8.33301 -12 15c-3.33301 7.33301 -1 13.333 7 18
c17.333 12 42.166 26.5 74.499 43.5s53.5 26.167 63.5 27.5z" />
    <glyph glyph-name="Ecircumflex" unicode="&#xca;" horiz-adv-x="413" 
d="M143 341h222c-4 -16.667 -10.167 -27.334 -18.5 -32.001s-24.166 -7 -47.499 -7h-163l-35 -260c17.333 -6 58.333 -9 123 -9c72.667 0 122.667 2 150 6l1 -2c-1.33301 -7.33301 -5.33301 -15.166 -12 -23.499s-14.667 -13.5 -24 -15.5
c-15.333 -2.66699 -50.333 -4 -105 -4c-80.667 0 -139.334 3.66699 -176.001 11l-12 16l67 463c4.66699 34 10 76.667 16 128c12 6.66699 26.333 11 43 13h222c0 -14.667 -4.66699 -24.667 -14 -30c-9.33301 -6 -30.333 -9 -63 -9h-140zM187 665l-0.998047 0.000976562
c-8 0 -15.667 3.66699 -23 11c37.333 32 71 63 101 93c4 3.33301 8.33301 6.66602 13 9.99902c6 1.33301 11 2 15 2c21.333 -32 50.333 -65.333 87 -100c-7.33301 -10.667 -16 -16 -26 -16c-8.66699 0 -14.334 2 -17.001 6c-8 6 -27.333 25.667 -58 59
c-30 -28 -53.667 -47.333 -71 -58c-10.667 -4.66699 -17.334 -7 -20.001 -7z" />
    <glyph glyph-name="Edieresis" unicode="&#xcb;" horiz-adv-x="413" 
d="M143 341h222c-4 -16.667 -10.167 -27.334 -18.5 -32.001s-24.166 -7 -47.499 -7h-163l-35 -260c17.333 -6 58.333 -9 123 -9c72.667 0 122.667 2 150 6l1 -2c-1.33301 -7.33301 -5.33301 -15.166 -12 -23.499s-14.667 -13.5 -24 -15.5
c-15.333 -2.66699 -50.333 -4 -105 -4c-80.667 0 -139.334 3.66699 -176.001 11l-12 16l67 463c4.66699 34 10 76.667 16 128c12 6.66699 26.333 11 43 13h222c0 -14.667 -4.66699 -24.667 -14 -30c-9.33301 -6 -30.333 -9 -63 -9h-140zM200 747h1.00195
c9.33301 0 17.166 -3.66699 23.499 -11s9.5 -16 9.5 -26c0 -11.333 -3.66699 -20.833 -11 -28.5s-16.333 -11.5 -27 -11.5c-10 0 -18.333 3.33301 -25 10s-10 16 -10 28c0 10 3.66699 19 11 27s16.666 12 27.999 12zM353.002 747h1c9.33301 0 17.333 -3.5 24 -10.5
s10 -15.5 10 -25.5c0 -12.667 -3.5 -22.667 -10.5 -30s-16.167 -11 -27.5 -11c-10 0 -18.333 3.33301 -25 10s-10 15.667 -10 27c0 10 3.66699 19.167 11 27.5s16.333 12.5 27 12.5z" />
    <glyph glyph-name="Igrave" unicode="&#xcc;" horiz-adv-x="208" 
d="M44 12l69.001 479c4 29.333 9.33301 72.666 16 129.999c14 4.66699 28 7 42 7c2.66699 0 4.66699 -0.5 6 -1.5s2.16602 -3.5 2.49902 -7.5s0.166016 -9.66699 -0.500977 -17s-2 -17.666 -4 -30.999l-64 -447c-8.66699 -58.667 -14 -100 -16 -124
c-11.333 -4 -24.666 -6 -39.999 -6c-9.33301 0 -13 6 -11 18zM81.001 770h1.00098c8 0 27.167 -8.66699 57.5 -26s54.5 -33 72.5 -47c7.33301 -5.33301 8.66602 -11.333 3.99902 -18c-3.33301 -4.66699 -8 -9.33398 -14 -14.001c-60 30.667 -110.667 52.334 -152 65.001
c-6.66699 1.33301 -8.33398 4.66602 -5.00098 9.99902c2.66699 6.66699 7.83398 13.334 15.501 20.001s14.5 10 20.5 10z" />
    <glyph glyph-name="Iacute" unicode="&#xcd;" horiz-adv-x="208" 
d="M44 12l69.001 479c4 29.333 9.33301 72.666 16 129.999c14 4.66699 28 7 42 7c2.66699 0 4.66699 -0.5 6 -1.5s2.16602 -3.5 2.49902 -7.5s0.166016 -9.66699 -0.500977 -17s-2 -17.666 -4 -30.999l-64 -447c-8.66699 -58.667 -14 -100 -16 -124
c-11.333 -4 -24.666 -6 -39.999 -6c-9.33301 0 -13 6 -11 18zM257.001 769c5.33301 -2.66699 11.501 -7.33301 18.501 -14s11.833 -12.667 14.5 -18c2.66699 -7.33301 -1 -12.666 -11 -15.999c-59.333 -16.667 -111 -35.334 -155 -56.001
c-5.33301 3.33301 -9.33301 8.33301 -12 15c-3.33301 7.33301 -1 13.333 7 18c17.333 12 42.166 26.5 74.499 43.5s53.5 26.167 63.5 27.5z" />
    <glyph glyph-name="Icircumflex" unicode="&#xce;" horiz-adv-x="208" 
d="M44 12l69.001 479c4 29.333 9.33301 72.666 16 129.999c14 4.66699 28 7 42 7c2.66699 0 4.66699 -0.5 6 -1.5s2.16602 -3.5 2.49902 -7.5s0.166016 -9.66699 -0.500977 -17s-2 -17.666 -4 -30.999l-64 -447c-8.66699 -58.667 -14 -100 -16 -124
c-11.333 -4 -24.666 -6 -39.999 -6c-9.33301 0 -13 6 -11 18zM72.001 665l-0.998047 0.000976562c-8 0 -15.667 3.66699 -23 11c37.333 32 71 63 101 93c3.33301 3.33301 7.66602 6.66602 12.999 9.99902c6 1.33301 11 2 15 2c21.333 -32 50.333 -65.333 87 -100
c-7.33301 -10.667 -16 -16 -26 -16c-8 0 -13.667 2 -17 6c-8 6 -27.333 25.667 -58 59c-30 -28 -53.667 -47.333 -71 -58c-10.667 -4.66699 -17.334 -7 -20.001 -7z" />
    <glyph glyph-name="Idieresis" unicode="&#xcf;" horiz-adv-x="208" 
d="M44 12l69.001 479c4 29.333 9.33301 72.666 16 129.999c14 4.66699 28 7 42 7c2.66699 0 4.66699 -0.5 6 -1.5s2.16602 -3.5 2.49902 -7.5s0.166016 -9.66699 -0.500977 -17s-2 -17.666 -4 -30.999l-64 -447c-8.66699 -58.667 -14 -100 -16 -124
c-11.333 -4 -24.666 -6 -39.999 -6c-9.33301 0 -13 6 -11 18zM88.001 742h1.00195c9.33301 0 17.166 -3.66699 23.499 -11s9.5 -16 9.5 -26c0 -11.333 -3.66699 -20.833 -11 -28.5s-16.333 -11.5 -27 -11.5c-10 0 -18.333 3.33301 -25 10s-10 16 -10 28
c0 10 3.66699 19 11 27s16.666 12 27.999 12zM241.003 742h1c9.33301 0 17.333 -3.5 24 -10.5s10 -15.5 10 -25.5c0 -12.667 -3.5 -22.667 -10.5 -30s-16.167 -11 -27.5 -11c-10 0 -18.333 3.33301 -25 10s-10 15.667 -10 27c0 10 3.66699 19.167 11 27.5
s16.333 12.5 27 12.5z" />
    <glyph glyph-name="Eth" unicode="&#xd0;" horiz-adv-x="614" 
d="M106 578l-0.998047 0.999023c1.33301 12.667 6 24.334 14 35.001c38 10.667 85 16 141 16c104 0 183.333 -24.333 238 -73s81.667 -123.667 81 -225c-0.666992 -71.333 -17.167 -133.166 -49.5 -185.499s-75 -91.5 -128 -117.5s-112.5 -39 -178.5 -39
c-52 0 -107.333 8.66699 -166 26c15.333 93.333 30 188.666 44 285.999h-84c6 26 22.667 39 50 39h40c2 12 4.5 28.5 7.5 49.5s4.83301 32.833 5.5 35.5c13.333 93.333 21 146 23 158c-4.66699 -0.666992 -10.834 -1.5 -18.501 -2.5s-13.834 -2.16699 -18.501 -3.5z
M278.002 301.999h-125.998l-37 -260c31.333 -10 67.333 -15 108 -15s78.667 6.16699 114 18.5s67.166 30.5 95.499 54.5s50.666 55.667 66.999 95s24.5 84.333 24.5 135c0 175.333 -91.333 263 -274 263c-19.333 0 -38 -1 -56 -3l-36 -249h174c-6 -26 -24 -39 -54 -39z" />
    <glyph glyph-name="Ntilde" unicode="&#xd1;" horiz-adv-x="618" 
d="M505 320l39 282c1.33301 14 7.66602 21.667 18.999 23c16 2 26 3 30 3c-42 -276.667 -71.333 -486.667 -88 -630c-7.33301 -7.33301 -15.666 -11 -24.999 -11c-4 0 -9.33301 5.66699 -16 17l-104 174.5l-122 206.5l-37 64.5l-41 71.5l-18 -142
c-6 -47.333 -10 -78 -12 -92l-36 -263c-2 -15.333 -8 -24.333 -18 -27c-10 -2 -21.333 -3 -34 -3c30 193.333 57.667 381 83 563c2 10.667 0.666992 19.667 -4 27l-20 33v5c14.667 4 27.334 6 38.001 6c4.66699 0 10.667 -5 18 -15c7.33301 -11.333 21.166 -34 41.499 -68
l82 -138.5l82.5 -138.5c62 -103.333 99.333 -167.333 112 -192c10 88.667 20 170 30 244zM327 770l1 -0.000976562c20.667 0 40.667 -11.667 60 -35c16 -19.333 26.667 -29 32 -29c10.667 0 18.334 17.667 23.001 53c1.33301 7.33301 4.66602 11 9.99902 11
c8.66699 0 16.667 -5.33301 24 -16c-2 -26.667 -8 -48.167 -18 -64.5s-23.333 -24.5 -40 -24.5c-4 0 -7.83301 0.666992 -11.5 2s-6.66699 2.5 -9 3.5s-5.5 3.33301 -9.5 7s-6.83301 6.33398 -8.5 8.00098l-10 10.5l-10.5 11c-13.333 15.333 -24.333 23 -33 23
c-10.667 0 -20 -16.333 -28 -49c-1.33301 -7.33301 -4 -11 -8 -11s-13 2.66699 -27 8c6.66699 61.333 27.667 92 63 92z" />
    <glyph glyph-name="Ograve" unicode="&#xd2;" horiz-adv-x="618" 
d="M354 640h1.00098c51.333 0 94.833 -13 130.5 -39s61.334 -59 77.001 -99s23.5 -85 23.5 -135c0 -37.333 -3.83301 -74 -11.5 -110s-19.667 -70.5 -36 -103.5s-36.333 -62 -60 -87s-53 -44.833 -88 -59.5s-73.167 -22 -114.5 -22c-72 0 -128.667 24.667 -170 74
s-62 116 -62 200c0 63.333 11.667 123.5 35 180.5s59.166 104.667 107.499 143s104.166 57.5 167.499 57.5zM346.001 603h-0.998047c-70.667 0 -129 -34.833 -175 -104.5s-69 -150.834 -69 -243.501c0 -67.333 15.833 -123 47.5 -167s77.167 -66 136.5 -66
c53.333 0 99.166 17.833 137.499 53.5s65.666 78.834 81.999 129.501s24.5 104.334 24.5 161.001c0 67.333 -14.5 123.666 -43.5 168.999s-75.5 68 -139.5 68zM290.003 776h1.00098c8 0 27.167 -8.66699 57.5 -26s54.5 -33 72.5 -47
c7.33301 -5.33301 8.66602 -11.333 3.99902 -18c-3.33301 -4.66699 -8 -9.33398 -14 -14.001c-60 30.667 -110.667 52.334 -152 65.001c-6.66699 1.33301 -8.33398 4.66602 -5.00098 9.99902c2.66699 6.66699 7.83398 13.334 15.501 20.001s14.5 10 20.5 10z" />
    <glyph glyph-name="Oacute" unicode="&#xd3;" horiz-adv-x="618" 
d="M354 640h1.00098c51.333 0 94.833 -13 130.5 -39s61.334 -59 77.001 -99s23.5 -85 23.5 -135c0 -37.333 -3.83301 -74 -11.5 -110s-19.667 -70.5 -36 -103.5s-36.333 -62 -60 -87s-53 -44.833 -88 -59.5s-73.167 -22 -114.5 -22c-72 0 -128.667 24.667 -170 74
s-62 116 -62 200c0 63.333 11.667 123.5 35 180.5s59.166 104.667 107.499 143s104.166 57.5 167.499 57.5zM346.001 603h-0.998047c-70.667 0 -129 -34.833 -175 -104.5s-69 -150.834 -69 -243.501c0 -67.333 15.833 -123 47.5 -167s77.167 -66 136.5 -66
c53.333 0 99.166 17.833 137.499 53.5s65.666 78.834 81.999 129.501s24.5 104.334 24.5 161.001c0 67.333 -14.5 123.666 -43.5 168.999s-75.5 68 -139.5 68zM444.003 781c5.33301 -2.66699 11.501 -7.33301 18.501 -14s11.833 -12.667 14.5 -18
c2.66699 -7.33301 -1 -12.666 -11 -15.999c-59.333 -16.667 -111 -35.334 -155 -56.001c-5.33301 3.33301 -9.33301 8.33301 -12 15c-3.33301 7.33301 -1 13.333 7 18c17.333 12 42.166 26.5 74.499 43.5s53.5 26.167 63.5 27.5z" />
    <glyph glyph-name="Ocircumflex" unicode="&#xd4;" horiz-adv-x="618" 
d="M354 640h1.00098c51.333 0 94.833 -13 130.5 -39s61.334 -59 77.001 -99s23.5 -85 23.5 -135c0 -37.333 -3.83301 -74 -11.5 -110s-19.667 -70.5 -36 -103.5s-36.333 -62 -60 -87s-53 -44.833 -88 -59.5s-73.167 -22 -114.5 -22c-72 0 -128.667 24.667 -170 74
s-62 116 -62 200c0 63.333 11.667 123.5 35 180.5s59.166 104.667 107.499 143s104.166 57.5 167.499 57.5zM346.001 603h-0.998047c-70.667 0 -129 -34.833 -175 -104.5s-69 -150.834 -69 -243.501c0 -67.333 15.833 -123 47.5 -167s77.167 -66 136.5 -66
c53.333 0 99.166 17.833 137.499 53.5s65.666 78.834 81.999 129.501s24.5 104.334 24.5 161.001c0 67.333 -14.5 123.666 -43.5 168.999s-75.5 68 -139.5 68zM274.003 680l-0.998047 0.000976562c-8 0 -15.667 3.66699 -23 11c37.333 32 71 63 101 93
c3.33301 3.33301 7.66602 6.66602 12.999 9.99902c6 1.33301 11 2 15 2c21.333 -32 50.333 -65.333 87 -100c-7.33301 -10.667 -16 -16 -26 -16c-8 0 -13.667 2 -17 6c-8 6 -27.333 25.667 -58 59c-30 -28 -53.667 -47.333 -71 -58c-10.667 -4.66699 -17.334 -7 -20.001 -7z
" />
    <glyph glyph-name="Otilde" unicode="&#xd5;" horiz-adv-x="618" 
d="M354 640h1.00098c51.333 0 94.833 -13 130.5 -39s61.334 -59 77.001 -99s23.5 -85 23.5 -135c0 -37.333 -3.83301 -74 -11.5 -110s-19.667 -70.5 -36 -103.5s-36.333 -62 -60 -87s-53 -44.833 -88 -59.5s-73.167 -22 -114.5 -22c-72 0 -128.667 24.667 -170 74
s-62 116 -62 200c0 63.333 11.667 123.5 35 180.5s59.166 104.667 107.499 143s104.166 57.5 167.499 57.5zM346.001 603h-0.998047c-70.667 0 -129 -34.833 -175 -104.5s-69 -150.834 -69 -243.501c0 -67.333 15.833 -123 47.5 -167s77.167 -66 136.5 -66
c53.333 0 99.166 17.833 137.499 53.5s65.666 78.834 81.999 129.501s24.5 104.334 24.5 161.001c0 67.333 -14.5 123.666 -43.5 168.999s-75.5 68 -139.5 68zM321.003 785l1 -0.000976562c20.667 0 40.667 -11.667 60 -35c16 -19.333 26.667 -29 32 -29
c10.667 0 18.334 17.667 23.001 53c1.33301 7.33301 4.66602 11 9.99902 11c8.66699 0 16.667 -5.33301 24 -16c-2 -26.667 -8 -48.167 -18 -64.5s-23.333 -24.5 -40 -24.5c-4 0 -7.83301 0.666992 -11.5 2s-6.66699 2.5 -9 3.5s-5.5 3.33301 -9.5 7
s-6.83301 6.33398 -8.5 8.00098l-10 10.5l-10.5 11c-13.333 15.333 -24.333 23 -33 23c-10.667 0 -20 -16.333 -28 -49c-1.33301 -7.33301 -4 -11 -8 -11s-13 2.66699 -27 8c6.66699 61.333 27.667 92 63 92z" />
    <glyph glyph-name="Odieresis" unicode="&#xd6;" horiz-adv-x="618" 
d="M354 640h1.00098c51.333 0 94.833 -13 130.5 -39s61.334 -59 77.001 -99s23.5 -85 23.5 -135c0 -37.333 -3.83301 -74 -11.5 -110s-19.667 -70.5 -36 -103.5s-36.333 -62 -60 -87s-53 -44.833 -88 -59.5s-73.167 -22 -114.5 -22c-72 0 -128.667 24.667 -170 74
s-62 116 -62 200c0 63.333 11.667 123.5 35 180.5s59.166 104.667 107.499 143s104.166 57.5 167.499 57.5zM346.001 603h-0.998047c-70.667 0 -129 -34.833 -175 -104.5s-69 -150.834 -69 -243.501c0 -67.333 15.833 -123 47.5 -167s77.167 -66 136.5 -66
c53.333 0 99.166 17.833 137.499 53.5s65.666 78.834 81.999 129.501s24.5 104.334 24.5 161.001c0 67.333 -14.5 123.666 -43.5 168.999s-75.5 68 -139.5 68zM290.003 757h1.00195c9.33301 0 17.166 -3.66699 23.499 -11s9.5 -16 9.5 -26
c0 -11.333 -3.66699 -20.833 -11 -28.5s-16.333 -11.5 -27 -11.5c-10 0 -18.333 3.33301 -25 10s-10 16 -10 28c0 10 3.66699 19 11 27s16.666 12 27.999 12zM443.005 757h1c9.33301 0 17.333 -3.5 24 -10.5s10 -15.5 10 -25.5c0 -12.667 -3.5 -22.667 -10.5 -30
s-16.167 -11 -27.5 -11c-10 0 -18.333 3.33301 -25 10s-10 15.667 -10 27c0 10 3.66699 19.167 11 27.5s16.333 12.5 27 12.5z" />
    <glyph glyph-name="multiply" unicode="&#xd7;" horiz-adv-x="565" 
d="M484 427l-177.004 -183.997l162 -170c6.66699 -6 7.33398 -13.667 2.00098 -23c-4 -7.33301 -10.667 -14.333 -20 -21l-175 184l-173 -184c-5.33301 3.33301 -11.333 11.666 -18 24.999c-2.66699 7.33301 -0.666992 15.333 6 24l157 164l-162 168
c-5.33301 5.33301 -5.33301 13.666 0 24.999c4.66699 8 10.334 13.667 17.001 17l175 -180l160 166c10.667 11.333 20.334 13.666 29.001 6.99902c4.66699 -3.33301 10.334 -9.33301 17.001 -18z" />
    <glyph glyph-name="Oslash" unicode="&#xd8;" horiz-adv-x="618" 
d="M566 640l-47.9971 -69c45.333 -48 68 -117.667 68 -209c0 -47.333 -6.5 -93 -19.5 -137s-31.833 -84.167 -56.5 -120.5s-57 -65.333 -97 -87s-85 -32.5 -135 -32.5c-60 0 -109.333 17.333 -148 52l-52 -71c-6.66699 -8.66699 -13.334 -10.334 -20.001 -5.00098
c-8 6.66699 -13.667 14 -17 22l59 83c-37.333 48.667 -56 115.334 -56 200.001c0 64 12.333 124.333 37 181s61 103 109 139s102.333 54 163 54c55.333 0 99.666 -13.333 132.999 -40l37 52c8.66699 14 16.667 18 24 12c11.333 -10 17.666 -18 18.999 -24zM132.003 109
l328.001 456c-28.667 25.333 -66.334 38 -113.001 38c-70 0 -129 -33.333 -177 -100s-72 -143.667 -72 -231c0 -70 11.333 -124.333 34 -163zM489.004 533l-331.999 -456.998c30 -36 71 -54 123 -54c42.667 0 80.667 10.667 114 32s59.666 49.166 78.999 83.499
s33.833 71 43.5 110s14.5 78.833 14.5 119.5c0 73.333 -14 128.666 -42 165.999z" />
    <glyph glyph-name="Ugrave" unicode="&#xd9;" horiz-adv-x="620" 
d="M164 568l-33 -258.001c-24.667 -190 28.333 -285 159 -285c29.333 0 54.166 3.5 74.499 10.5s40.333 21.167 60 42.5s36.5 54 50.5 98s25.333 100.333 34 169l33 250c2.66699 18.667 8.33398 29 17.001 31c17.333 1.33301 28.333 2 33 2l-10 -81
c-5.33301 -43.333 -10.666 -83.666 -15.999 -120.999l-18 -126c-16 -115.333 -45.5 -196.666 -88.5 -243.999s-101.5 -71 -175.5 -71c-80 0 -137.667 26 -173 78s-45.666 136.333 -30.999 253l22 173c3.33301 25.333 7.16602 52.166 11.499 80.499
s6.83301 45.166 7.5 50.499c12.667 5.33301 25.667 8 39 8c4.66699 0 7.16699 -3.66699 7.5 -11s-0.833984 -23.666 -3.50098 -48.999zM294 769.999h1.00098c8 0 27.167 -8.66699 57.5 -26s54.5 -33 72.5 -47c7.33301 -5.33301 8.66602 -11.333 3.99902 -18
c-3.33301 -4.66699 -8 -9.33398 -14 -14.001c-60 30.667 -110.667 52.334 -152 65.001c-6.66699 1.33301 -8.33398 4.66602 -5.00098 9.99902c2.66699 6.66699 7.83398 13.334 15.501 20.001s14.5 10 20.5 10z" />
    <glyph glyph-name="Uacute" unicode="&#xda;" horiz-adv-x="620" 
d="M164 568l-33 -258.001c-24.667 -190 28.333 -285 159 -285c29.333 0 54.166 3.5 74.499 10.5s40.333 21.167 60 42.5s36.5 54 50.5 98s25.333 100.333 34 169l33 250c2.66699 18.667 8.33398 29 17.001 31c17.333 1.33301 28.333 2 33 2l-10 -81
c-5.33301 -43.333 -10.666 -83.666 -15.999 -120.999l-18 -126c-16 -115.333 -45.5 -196.666 -88.5 -243.999s-101.5 -71 -175.5 -71c-80 0 -137.667 26 -173 78s-45.666 136.333 -30.999 253l22 173c3.33301 25.333 7.16602 52.166 11.499 80.499
s6.83301 45.166 7.5 50.499c12.667 5.33301 25.667 8 39 8c4.66699 0 7.16699 -3.66699 7.5 -11s-0.833984 -23.666 -3.50098 -48.999zM438 768.999c5.33301 -2.66699 11.501 -7.33301 18.501 -14s11.833 -12.667 14.5 -18c2.66699 -7.33301 -1 -12.666 -11 -15.999
c-59.333 -16.667 -111 -35.334 -155 -56.001c-5.33301 3.33301 -9.33301 8.33301 -12 15c-3.33301 7.33301 -1 13.333 7 18c17.333 12 42.166 26.5 74.499 43.5s53.5 26.167 63.5 27.5z" />
    <glyph glyph-name="Ucircumflex" unicode="&#xdb;" horiz-adv-x="620" 
d="M164 568l-33 -258.001c-24.667 -190 28.333 -285 159 -285c29.333 0 54.166 3.5 74.499 10.5s40.333 21.167 60 42.5s36.5 54 50.5 98s25.333 100.333 34 169l33 250c2.66699 18.667 8.33398 29 17.001 31c17.333 1.33301 28.333 2 33 2l-10 -81
c-5.33301 -43.333 -10.666 -83.666 -15.999 -120.999l-18 -126c-16 -115.333 -45.5 -196.666 -88.5 -243.999s-101.5 -71 -175.5 -71c-80 0 -137.667 26 -173 78s-45.666 136.333 -30.999 253l22 173c3.33301 25.333 7.16602 52.166 11.499 80.499
s6.83301 45.166 7.5 50.499c12.667 5.33301 25.667 8 39 8c4.66699 0 7.16699 -3.66699 7.5 -11s-0.833984 -23.666 -3.50098 -48.999zM278 664.999l-0.998047 0.000976562c-8 0 -15.667 3.66699 -23 11c37.333 32 71 63 101 93
c3.33301 3.33301 7.66602 6.66602 12.999 9.99902c6 1.33301 11 2 15 2c21.333 -32 50.333 -65.333 87 -100c-7.33301 -10.667 -16 -16 -26 -16c-8 0 -13.667 2 -17 6c-8 6 -27.333 25.667 -58 59c-30 -28 -53.667 -47.333 -71 -58c-10.667 -4.66699 -17.334 -7 -20.001 -7z
" />
    <glyph glyph-name="Udieresis" unicode="&#xdc;" horiz-adv-x="620" 
d="M164 568l-33 -258.001c-24.667 -190 28.333 -285 159 -285c29.333 0 54.166 3.5 74.499 10.5s40.333 21.167 60 42.5s36.5 54 50.5 98s25.333 100.333 34 169l33 250c2.66699 18.667 8.33398 29 17.001 31c17.333 1.33301 28.333 2 33 2l-10 -81
c-5.33301 -43.333 -10.666 -83.666 -15.999 -120.999l-18 -126c-16 -115.333 -45.5 -196.666 -88.5 -243.999s-101.5 -71 -175.5 -71c-80 0 -137.667 26 -173 78s-45.666 136.333 -30.999 253l22 173c3.33301 25.333 7.16602 52.166 11.499 80.499
s6.83301 45.166 7.5 50.499c12.667 5.33301 25.667 8 39 8c4.66699 0 7.16699 -3.66699 7.5 -11s-0.833984 -23.666 -3.50098 -48.999zM292 741.999h1.00195c9.33301 0 17.166 -3.66699 23.499 -11s9.5 -16 9.5 -26c0 -11.333 -3.66699 -20.833 -11 -28.5
s-16.333 -11.5 -27 -11.5c-10 0 -18.333 3.33301 -25 10s-10 16 -10 28c0 10 3.66699 19 11 27s16.666 12 27.999 12zM445.002 741.999h1c9.33301 0 17.333 -3.5 24 -10.5s10 -15.5 10 -25.5c0 -12.667 -3.5 -22.667 -10.5 -30s-16.167 -11 -27.5 -11
c-10 0 -18.333 3.33301 -25 10s-10 15.667 -10 27c0 10 3.66699 19.167 11 27.5s16.333 12.5 27 12.5z" />
    <glyph glyph-name="Yacute" unicode="&#xdd;" horiz-adv-x="526" 
d="M62 617l0.998047 3.00098c16 5.33301 29.667 8 41 8c7.33301 0 18.333 -14.667 33 -44l59 -113l72 -140c16 17.333 58.333 70 127 158s105 134.333 109 139c10 -0.666992 20.333 -3 31 -7s9.33398 -13.667 -3.99902 -29l-126 -153.5l-115 -143.5
c-4 -4.66699 -7.33301 -16 -10 -34l-16 -137c-8.66699 -72.667 -13.334 -114 -14.001 -124c-13.333 -4 -27.666 -6 -42.999 -6c-4.66699 0 -7.5 1.16699 -8.5 3.5s-1.16699 7.16602 -0.5 14.499l29 231c0.666992 7.33301 1.33398 16.166 2.00098 26.499s1 16.833 1 19.5
c0 10.667 -4 23.334 -12 38.001c-67.333 133.333 -119.333 230 -156 290zM395.998 769.001c5.33301 -2.66699 11.501 -7.33301 18.501 -14s11.833 -12.667 14.5 -18c2.66699 -7.33301 -1 -12.666 -11 -15.999c-59.333 -16.667 -111 -35.334 -155 -56.001
c-5.33301 3.33301 -9.33301 8.33301 -12 15c-3.33301 7.33301 -1 13.333 7 18c17.333 12 42.166 26.5 74.499 43.5s53.5 26.167 63.5 27.5z" />
    <glyph glyph-name="Thorn" unicode="&#xde;" horiz-adv-x="447" 
d="M45 13l65.999 478c0.666992 4 2 12.833 4 26.5s4 29.334 6 47.001s4.33301 36.167 7 55.5c14 5.33301 27 8 39 8c6 0 9.33301 -2.33301 10 -7s0 -15.334 -2 -32.001l-13 -91c37.333 2.66699 58.333 4 63 4c64 0 112 -16.167 144 -48.5s48 -74.833 48 -127.5
c0 -33.333 -5.66699 -62.833 -17 -88.5s-25 -45.5 -41 -59.5s-34.167 -25.5 -54.5 -34.5s-38 -14.833 -53 -17.5s-28.5 -4 -40.5 -4c-26.667 0 -44 3 -52 9c-9.33301 8.66699 -13.333 19.334 -12 32.001c12.667 -4 29.334 -6 50.001 -6c13.333 0 27.833 2 43.5 6
s33.334 11.167 53.001 21.5s36 27.666 49 51.999s19.5 53.833 19.5 88.5c0 44.667 -12.667 79.167 -38 103.5s-62.333 36.166 -111 35.499c-19.333 0 -38 -1.66699 -56 -5l-44 -335c-10.667 -81.333 -16 -122.666 -16 -123.999c-24 -4 -38.667 -6 -44 -6
c-6.66699 0 -9.33398 6.33301 -8.00098 19z" />
    <glyph glyph-name="germandbls" unicode="&#xdf;" horiz-adv-x="490" 
d="M95 387l-73.001 -0.000976562c0 8.66699 2.5 16.834 7.5 24.501s11.5 11.834 19.5 12.501h51c4.66699 26 9.5 49 14.5 69s13.167 42.833 24.5 68.5s24.333 46.834 39 63.501s34 31 58 43s51 18 81 18c42 0 74.5 -12.667 97.5 -38s34.5 -56.666 34.5 -93.999
c0 -22 -3 -39 -9 -51c-90.667 -48.667 -136 -101.334 -136 -158.001c0 -10.667 3.33301 -21.667 10 -33s13.834 -21 21.501 -29l37.5 -38c38.667 -39.333 58 -76.666 58 -111.999c0 -47.333 -15 -83.333 -45 -108s-66.667 -37 -110 -37c-26 0 -50.667 5.33301 -74 16
s-36.666 20.334 -39.999 29.001c-4.66699 9.33301 -4 20.666 2 33.999c2 3.33301 5.66699 3.66602 11 0.999023c33.333 -25.333 69 -38 107 -38c29.333 0 53 8 71 24s27 38.667 27 68c0 30 -19.333 64 -58 102c-44.667 42 -67 79.667 -67 113s13.833 65.666 41.5 96.999
s61.167 59.333 100.5 84c2.66699 12 4 25.667 4 41c0 25.333 -8.16699 46.666 -24.5 63.999s-37.5 26 -63.5 26c-48 0 -85.833 -21.333 -113.5 -64s-47.167 -111 -58.5 -205c-12.667 -106 -27.334 -218.333 -44.001 -337c-5.33301 -37.333 -11.333 -70 -18 -98
s-16.167 -55.333 -28.5 -82s-28.333 -47.167 -48 -61.5s-42.834 -21.5 -69.501 -21.5c-36.667 0 -59.667 8 -69 24c-3.33301 5.33301 -4.66602 11.333 -3.99902 18s2.33398 11.667 5.00098 15c16.667 -12 38.667 -18 66 -18c37.333 0 64.5 21 81.5 63s33.167 121 48.5 237
c11.333 84.667 22.666 174 33.999 268z" />
    <glyph glyph-name="agrave" unicode="&#xe0;" horiz-adv-x="466" 
d="M24 113l-0.000976562 1.00293c0 44 9 90.5 27 139.5s44.667 90.5 80 124.5c48.667 45.333 108 68 178 68c24.667 0 61.667 -6 111 -18c-16.667 -72 -32 -168.333 -46 -289c-7.33301 -52.667 -11 -99.334 -11 -140.001c-16 -7.33301 -30.333 -11 -43 -11
c-2 0 -3 5.83301 -3 17.5s0.833008 28.167 2.5 49.5s4.16699 44.666 7.5 69.999c0 2 1.33301 11.167 4 27.5s4.33398 28.166 5.00098 35.499c-34 -66.667 -71.833 -116.667 -113.5 -150s-81.5 -50 -119.5 -50c-22.667 0 -41.5 10.333 -56.5 31s-22.5 52 -22.5 94z
M122.999 32.0029h0.99707c42.667 0 88.667 32.333 138 97s81.333 139 96 223c5.33301 21.333 8 36.333 8 45c-19.333 7.33301 -40.666 11 -63.999 11c-65.333 0 -116.666 -24 -153.999 -72c-46.667 -60 -70 -134.667 -70 -224c0 -24 3.83301 -43.333 11.5 -58
s18.834 -22 33.501 -22zM248.996 676.003h1.00098c5.33301 -0.666992 18.166 -17.834 38.499 -51.501s35.5 -61.5 45.5 -83.5c4 -10.667 3.66699 -18 -1 -22c-2.66699 -2 -5.16699 -4 -7.5 -6s-4.16602 -3.66699 -5.49902 -5s-2.33301 -2 -3 -2
c-30.667 49.333 -63.667 94.333 -99 135c-5.33301 6.66699 -5.33301 12.334 0 17.001c13.333 12 23.666 18 30.999 18z" />
    <glyph glyph-name="aacute" unicode="&#xe1;" horiz-adv-x="466" 
d="M24 113l-0.000976562 1.00293c0 44 9 90.5 27 139.5s44.667 90.5 80 124.5c48.667 45.333 108 68 178 68c24.667 0 61.667 -6 111 -18c-16.667 -72 -32 -168.333 -46 -289c-7.33301 -52.667 -11 -99.334 -11 -140.001c-16 -7.33301 -30.333 -11 -43 -11
c-2 0 -3 5.83301 -3 17.5s0.833008 28.167 2.5 49.5s4.16699 44.666 7.5 69.999c0 2 1.33301 11.167 4 27.5s4.33398 28.166 5.00098 35.499c-34 -66.667 -71.833 -116.667 -113.5 -150s-81.5 -50 -119.5 -50c-22.667 0 -41.5 10.333 -56.5 31s-22.5 52 -22.5 94z
M122.999 32.0029h0.99707c42.667 0 88.667 32.333 138 97s81.333 139 96 223c5.33301 21.333 8 36.333 8 45c-19.333 7.33301 -40.666 11 -63.999 11c-65.333 0 -116.666 -24 -153.999 -72c-46.667 -60 -70 -134.667 -70 -224c0 -24 3.83301 -43.333 11.5 -58
s18.834 -22 33.501 -22zM347.996 674.003l0.998047 0.000976562c12 0 22.667 -6 32 -18c4.66699 -5.33301 3.33398 -11.666 -3.99902 -18.999c-22 -24.667 -55 -69.334 -99 -134.001c-4.66699 2 -10.667 7.33301 -18 16c-3.33301 3.33301 -1.66602 12 5.00098 26
c12.667 25.333 28.5 53.166 47.5 83.499s30.833 45.5 35.5 45.5z" />
    <glyph glyph-name="acircumflex" unicode="&#xe2;" horiz-adv-x="466" 
d="M24 113l-0.000976562 1.00293c0 44 9 90.5 27 139.5s44.667 90.5 80 124.5c48.667 45.333 108 68 178 68c24.667 0 61.667 -6 111 -18c-16.667 -72 -32 -168.333 -46 -289c-7.33301 -52.667 -11 -99.334 -11 -140.001c-16 -7.33301 -30.333 -11 -43 -11
c-2 0 -3 5.83301 -3 17.5s0.833008 28.167 2.5 49.5s4.16699 44.666 7.5 69.999c0 2 1.33301 11.167 4 27.5s4.33398 28.166 5.00098 35.499c-34 -66.667 -71.833 -116.667 -113.5 -150s-81.5 -50 -119.5 -50c-22.667 0 -41.5 10.333 -56.5 31s-22.5 52 -22.5 94z
M122.999 32.0029h0.99707c42.667 0 88.667 32.333 138 97s81.333 139 96 223c5.33301 21.333 8 36.333 8 45c-19.333 7.33301 -40.666 11 -63.999 11c-65.333 0 -116.666 -24 -153.999 -72c-46.667 -60 -70 -134.667 -70 -224c0 -24 3.83301 -43.333 11.5 -58
s18.834 -22 33.501 -22zM212.996 503.003l-0.999023 -0.000976562c-4 0 -9 1.5 -15 4.5s-9.66699 6.16699 -11 9.5l39.5 62c19.667 30.667 34.5 55 44.5 73c5.33301 8.66699 11.333 14 18 16c10.667 2.66699 17 4 19 4c6.66699 -17.333 29.334 -69.333 68.001 -156
c-10.667 -8.66699 -19.667 -13 -27 -13c-4.66699 0 -8.66699 3.33301 -12 10c-2.66699 4.66699 -18.334 39.334 -47.001 104.001l-68 -110c-2.66699 -2.66699 -5.33398 -4 -8.00098 -4z" />
    <glyph glyph-name="atilde" unicode="&#xe3;" horiz-adv-x="466" 
d="M24 113l-0.000976562 1.00293c0 44 9 90.5 27 139.5s44.667 90.5 80 124.5c48.667 45.333 108 68 178 68c24.667 0 61.667 -6 111 -18c-16.667 -72 -32 -168.333 -46 -289c-7.33301 -52.667 -11 -99.334 -11 -140.001c-16 -7.33301 -30.333 -11 -43 -11
c-2 0 -3 5.83301 -3 17.5s0.833008 28.167 2.5 49.5s4.16699 44.666 7.5 69.999c0 2 1.33301 11.167 4 27.5s4.33398 28.166 5.00098 35.499c-34 -66.667 -71.833 -116.667 -113.5 -150s-81.5 -50 -119.5 -50c-22.667 0 -41.5 10.333 -56.5 31s-22.5 52 -22.5 94z
M122.999 32.0029h0.99707c42.667 0 88.667 32.333 138 97s81.333 139 96 223c5.33301 21.333 8 36.333 8 45c-19.333 7.33301 -40.666 11 -63.999 11c-65.333 0 -116.666 -24 -153.999 -72c-46.667 -60 -70 -134.667 -70 -224c0 -24 3.83301 -43.333 11.5 -58
s18.834 -22 33.501 -22zM248.996 625.003l1.00195 0.000976562c18 0 37 -11.333 57 -34c14.667 -18 24.667 -27 30 -27c10.667 0 17.667 16.667 21 50c2 7.33301 5.66699 11 11 11c8.66699 0 16.667 -5 24 -15c-1.33301 -26.667 -6.83301 -48 -16.5 -64
s-22.834 -24 -39.501 -24c-4 0 -7.66699 0.5 -11 1.5s-6.33301 2.16699 -9 3.5s-5.83398 3.66602 -9.50098 6.99902s-6.5 5.83301 -8.5 7.5s-5.33301 5.16699 -10 10.5s-8 9 -10 11c-12.667 14.667 -22.667 22 -30 22c-11.333 0 -20.333 -15.667 -27 -47
c-1.33301 -6.66699 -4 -10 -8 -10s-13 2.66699 -27 8c2 23.333 7.83301 44 17.5 62s24.5 27 44.5 27z" />
    <glyph glyph-name="adieresis" unicode="&#xe4;" horiz-adv-x="466" 
d="M24 113l-0.000976562 1.00293c0 44 9 90.5 27 139.5s44.667 90.5 80 124.5c48.667 45.333 108 68 178 68c24.667 0 61.667 -6 111 -18c-16.667 -72 -32 -168.333 -46 -289c-7.33301 -52.667 -11 -99.334 -11 -140.001c-16 -7.33301 -30.333 -11 -43 -11
c-2 0 -3 5.83301 -3 17.5s0.833008 28.167 2.5 49.5s4.16699 44.666 7.5 69.999c0 2 1.33301 11.167 4 27.5s4.33398 28.166 5.00098 35.499c-34 -66.667 -71.833 -116.667 -113.5 -150s-81.5 -50 -119.5 -50c-22.667 0 -41.5 10.333 -56.5 31s-22.5 52 -22.5 94z
M122.999 32.0029h0.99707c42.667 0 88.667 32.333 138 97s81.333 139 96 223c5.33301 21.333 8 36.333 8 45c-19.333 7.33301 -40.666 11 -63.999 11c-65.333 0 -116.666 -24 -153.999 -72c-46.667 -60 -70 -134.667 -70 -224c0 -24 3.83301 -43.333 11.5 -58
s18.834 -22 33.501 -22zM212.996 611.003l1 -0.000976562c9.33301 0 17.166 -3.5 23.499 -10.5s9.5 -15.5 9.5 -25.5c0 -11.333 -3.66699 -20.833 -11 -28.5s-16.666 -11.5 -27.999 -11.5c-10 0 -18.167 3.33301 -24.5 10s-9.5 15.334 -9.5 26.001
c0 10 3.5 19.167 10.5 27.5s16.5 12.5 28.5 12.5zM362.996 611.002h1.00098c10 0 18 -3.5 24 -10.5s9 -15.5 9 -25.5c0 -11.333 -3.66699 -20.833 -11 -28.5s-16.333 -11.5 -27 -11.5c-10 0 -18.333 3.16699 -25 9.5s-10 14.833 -10 25.5c0 10 3.66699 19.333 11 28
s16.666 13 27.999 13z" />
    <glyph glyph-name="aring" unicode="&#xe5;" horiz-adv-x="466" 
d="M24 113l-0.000976562 1.00293c0 44 9 90.5 27 139.5s44.667 90.5 80 124.5c48.667 45.333 108 68 178 68c24.667 0 61.667 -6 111 -18c-16.667 -72 -32 -168.333 -46 -289c-7.33301 -52.667 -11 -99.334 -11 -140.001c-16 -7.33301 -30.333 -11 -43 -11
c-2 0 -3 5.83301 -3 17.5s0.833008 28.167 2.5 49.5s4.16699 44.666 7.5 69.999c0 2 1.33301 11.167 4 27.5s4.33398 28.166 5.00098 35.499c-34 -66.667 -71.833 -116.667 -113.5 -150s-81.5 -50 -119.5 -50c-22.667 0 -41.5 10.333 -56.5 31s-22.5 52 -22.5 94z
M122.999 32.0029h0.99707c42.667 0 88.667 32.333 138 97s81.333 139 96 223c5.33301 21.333 8 36.333 8 45c-19.333 7.33301 -40.666 11 -63.999 11c-65.333 0 -116.666 -24 -153.999 -72c-46.667 -60 -70 -134.667 -70 -224c0 -24 3.83301 -43.333 11.5 -58
s18.834 -22 33.501 -22zM300.996 655.003l0.999023 0.00195312c22.667 0 40.667 -7 54 -21s20 -32.333 20 -55c0 -24.667 -8.16699 -44.667 -24.5 -60s-36.833 -23 -61.5 -23c-22 0 -39.667 6.66699 -53 20s-20 31.666 -20 54.999s7.83301 43.166 23.5 59.499
s35.834 24.5 60.501 24.5zM298.995 621.005h-1.00098c-12 0 -21.833 -5 -29.5 -15s-11.5 -20.667 -11.5 -32c0 -28.667 12.333 -43 37 -43c12.667 0 22.834 4.5 30.501 13.5s11.5 19.5 11.5 31.5c0 30 -12.333 45 -37 45z" />
    <glyph glyph-name="ae" unicode="&#xe6;" horiz-adv-x="622" 
d="M270 105l-1.99414 0.000976562c-62 -77.333 -121 -116 -177 -116c-20.667 0 -37.834 7.66699 -51.501 23s-20.5 39 -20.5 71c0 41.333 11.333 85.166 34 131.499s54 86.166 94 119.499c70 56 161 87.333 273 94c26 12 54 18 84 18c27.333 0 48.833 -8 64.5 -24
s23.5 -36.333 23.5 -61c-0.666992 -29.333 -10.834 -55.166 -30.501 -77.499s-44.334 -39.5 -74.001 -51.5s-58.834 -21 -87.501 -27s-55.334 -9.33301 -80.001 -10c-2 -22.667 -2.33301 -46.167 -1 -70.5s9.66602 -46 24.999 -65s36 -28.5 62 -28.5
c55.333 0 107.333 26.667 156 80c6 -2.66699 9 -10 9 -22c0 -10.667 -4.66699 -20.667 -14 -30c-45.333 -47.333 -100 -71 -164 -71c-34.667 0 -62.5 10.5 -83.5 31.5s-34.167 49.5 -39.5 85.5zM490.006 409.001l-1.00098 0.000976562c-32.667 0 -64.667 -16.667 -96 -50
s-53.666 -75.333 -66.999 -126c144 9.33301 216 51.666 216 126.999c0 14.667 -4.83301 26.5 -14.5 35.5s-22.167 13.5 -37.5 13.5zM109.005 32.002l1 -0.00195312c20.667 0 45.334 10.833 74.001 32.5s56 54.167 82 97.5c4 53.333 18 101.833 42 145.5s47 70.834 69 81.501
c-38.667 -4 -77.334 -14.667 -116.001 -32s-71.667 -39.666 -99 -66.999c-26 -26 -47.333 -57.5 -64 -94.5s-25 -72.5 -25 -106.5c0 -38 12 -57 36 -57z" />
    <glyph glyph-name="ccedilla" unicode="&#xe7;" horiz-adv-x="370" 
d="M93 -85l55 74.001c-38.667 0.666992 -68.667 14.5 -90 41.5s-32 64.167 -32 111.5c0 78 22.833 148.167 68.5 210.5s104.5 93.5 176.5 93.5c14.667 0 29.167 -2.5 43.5 -7.5s23.5 -10.833 27.5 -17.5c-0.666992 -8.66699 -3.66699 -15.5 -9 -20.5s-10 -6.5 -14 -4.5
c-19.333 7.33301 -37.666 11 -54.999 11c-52.667 0 -96.834 -24.833 -132.501 -74.5s-53.5 -110.834 -53.5 -183.501c0 -37.333 7.5 -66.333 22.5 -87s36.833 -31 65.5 -31c48.667 0 95.334 23.333 140.001 70c6.66699 -4 10 -10.667 10 -20c0 -8 -4 -16 -12 -24
c-30 -32 -66.333 -53 -109 -63l-34 -47c39.333 -14 59 -37 59 -69c0 -27.333 -12.333 -48.833 -37 -64.5s-52 -25.167 -82 -28.5c-4.66699 0.666992 -8.83398 4 -12.501 10s-5.16699 11 -4.5 15c0 3.33301 3.33301 6 10 8c52 10.667 78 28.667 78 54
c0 26 -26.333 39.667 -79 41v2z" />
    <glyph glyph-name="egrave" unicode="&#xe8;" horiz-adv-x="385" 
d="M259 446h1.00098c26.667 0 48.334 -7.16699 65.001 -21.5s25 -33.833 25 -58.5c0 -27.333 -8.5 -51.666 -25.5 -72.999s-39.333 -38.333 -67 -51s-56.334 -22.334 -86.001 -29.001s-59.834 -10.667 -90.501 -12c-2 -10.667 -3 -26.667 -3 -48
c0 -37.333 7.5 -67.166 22.5 -89.499s37.5 -33.5 67.5 -33.5c55.333 0 105 26.333 149 79c6.66699 -2 10 -8.66699 10 -20c0 -10.667 -4.66699 -21.334 -14 -32.001c-39.333 -46 -92.333 -69 -159 -69c-84 0 -126 53 -126 159c0 74 21 142.333 63 205s98 94 168 94z
M249.001 410h-1c-40 0 -74.167 -17 -102.5 -51s-47.833 -74.667 -58.5 -122c74 4.66699 128.5 18.5 163.5 41.5s52.5 50.5 52.5 82.5c0 15.333 -5 27.333 -15 36s-23 13 -39 13zM202.001 676h1.00098c5.33301 -0.666992 18.166 -17.834 38.499 -51.501
s35.5 -61.5 45.5 -83.5c4 -10.667 3.66699 -18 -1 -22c-2.66699 -2 -5.16699 -4 -7.5 -6s-4.16602 -3.66699 -5.49902 -5s-2.33301 -2 -3 -2c-30.667 49.333 -63.667 94.333 -99 135c-5.33301 6.66699 -5.33301 12.334 0 17.001c13.333 12 23.666 18 30.999 18z" />
    <glyph glyph-name="eacute" unicode="&#xe9;" horiz-adv-x="385" 
d="M259 446h1.00098c26.667 0 48.334 -7.16699 65.001 -21.5s25 -33.833 25 -58.5c0 -27.333 -8.5 -51.666 -25.5 -72.999s-39.333 -38.333 -67 -51s-56.334 -22.334 -86.001 -29.001s-59.834 -10.667 -90.501 -12c-2 -10.667 -3 -26.667 -3 -48
c0 -37.333 7.5 -67.166 22.5 -89.499s37.5 -33.5 67.5 -33.5c55.333 0 105 26.333 149 79c6.66699 -2 10 -8.66699 10 -20c0 -10.667 -4.66699 -21.334 -14 -32.001c-39.333 -46 -92.333 -69 -159 -69c-84 0 -126 53 -126 159c0 74 21 142.333 63 205s98 94 168 94z
M249.001 410h-1c-40 0 -74.167 -17 -102.5 -51s-47.833 -74.667 -58.5 -122c74 4.66699 128.5 18.5 163.5 41.5s52.5 50.5 52.5 82.5c0 15.333 -5 27.333 -15 36s-23 13 -39 13zM301.001 674l0.999023 0.000976562c12 0 22.667 -6 32 -18
c5.33301 -5.33301 4 -11.666 -4 -18.999c-22 -24.667 -55 -69.334 -99 -134.001c-4.66699 2 -10.667 7.33301 -18 16c-3.33301 3.33301 -1.66602 12 5.00098 26c12.667 25.333 28.5 53.166 47.5 83.499s30.833 45.5 35.5 45.5z" />
    <glyph glyph-name="ecircumflex" unicode="&#xea;" horiz-adv-x="385" 
d="M259 446h1.00098c26.667 0 48.334 -7.16699 65.001 -21.5s25 -33.833 25 -58.5c0 -27.333 -8.5 -51.666 -25.5 -72.999s-39.333 -38.333 -67 -51s-56.334 -22.334 -86.001 -29.001s-59.834 -10.667 -90.501 -12c-2 -10.667 -3 -26.667 -3 -48
c0 -37.333 7.5 -67.166 22.5 -89.499s37.5 -33.5 67.5 -33.5c55.333 0 105 26.333 149 79c6.66699 -2 10 -8.66699 10 -20c0 -10.667 -4.66699 -21.334 -14 -32.001c-39.333 -46 -92.333 -69 -159 -69c-84 0 -126 53 -126 159c0 74 21 142.333 63 205s98 94 168 94z
M249.001 410h-1c-40 0 -74.167 -17 -102.5 -51s-47.833 -74.667 -58.5 -122c74 4.66699 128.5 18.5 163.5 41.5s52.5 50.5 52.5 82.5c0 15.333 -5 27.333 -15 36s-23 13 -39 13zM169.001 503l-0.999023 -0.000976562c-4 0 -9 1.5 -15 4.5s-9.66699 6.16699 -11 9.5l39.5 62
c19.667 30.667 34.5 55 44.5 73c5.33301 8.66699 11.333 14 18 16c10.667 2.66699 17 4 19 4c6.66699 -17.333 29.334 -69.333 68.001 -156c-10.667 -8.66699 -19.667 -13 -27 -13c-4.66699 0 -8.66699 3.33301 -12 10c-2.66699 4.66699 -18.334 39.334 -47.001 104.001
l-68 -110c-2.66699 -2.66699 -5.33398 -4 -8.00098 -4z" />
    <glyph glyph-name="edieresis" unicode="&#xeb;" horiz-adv-x="385" 
d="M259 446h1.00098c26.667 0 48.334 -7.16699 65.001 -21.5s25 -33.833 25 -58.5c0 -27.333 -8.5 -51.666 -25.5 -72.999s-39.333 -38.333 -67 -51s-56.334 -22.334 -86.001 -29.001s-59.834 -10.667 -90.501 -12c-2 -10.667 -3 -26.667 -3 -48
c0 -37.333 7.5 -67.166 22.5 -89.499s37.5 -33.5 67.5 -33.5c55.333 0 105 26.333 149 79c6.66699 -2 10 -8.66699 10 -20c0 -10.667 -4.66699 -21.334 -14 -32.001c-39.333 -46 -92.333 -69 -159 -69c-84 0 -126 53 -126 159c0 74 21 142.333 63 205s98 94 168 94z
M249.001 410h-1c-40 0 -74.167 -17 -102.5 -51s-47.833 -74.667 -58.5 -122c74 4.66699 128.5 18.5 163.5 41.5s52.5 50.5 52.5 82.5c0 15.333 -5 27.333 -15 36s-23 13 -39 13zM172.001 611l1 -0.000976562c9.33301 0 17.166 -3.5 23.499 -10.5s9.5 -15.5 9.5 -25.5
c0 -11.333 -3.66699 -20.833 -11 -28.5s-16.666 -11.5 -27.999 -11.5c-10 0 -18.167 3.33301 -24.5 10s-9.5 15.334 -9.5 26.001c0 10 3.5 19.167 10.5 27.5s16.5 12.5 28.5 12.5zM322.001 610.999h1.00098c10 0 18 -3.5 24 -10.5s9 -15.5 9 -25.5
c0 -11.333 -3.66699 -20.833 -11 -28.5s-16.333 -11.5 -27 -11.5c-10 0 -18.333 3.16699 -25 9.5s-10 14.833 -10 25.5c0 10 3.66699 19.333 11 28s16.666 13 27.999 13z" />
    <glyph glyph-name="igrave" unicode="&#xec;" horiz-adv-x="197" 
d="M136 446h1c6 0 8 -7.66699 6 -23l-53 -392c-1.33301 -14.667 -5.33301 -24 -12 -28c-14 -6 -27.667 -9.66699 -41 -11c10 65.333 22 149.333 36 252c14 106.667 21.333 170 22 190c17.333 8 31 12 41 12zM77 676h1.00098
c5.33301 -0.666992 18.166 -17.834 38.499 -51.501s35.5 -61.5 45.5 -83.5c4 -10.667 3.66699 -18 -1 -22c-2.66699 -2 -5.16699 -4 -7.5 -6s-4.16602 -3.66699 -5.49902 -5s-2.33301 -2 -3 -2c-30.667 49.333 -63.667 94.333 -99 135
c-5.33301 6.66699 -5.33301 12.334 0 17.001c13.333 12 23.666 18 30.999 18z" />
    <glyph glyph-name="iacute" unicode="&#xed;" horiz-adv-x="197" 
d="M136 446h1c6 0 8 -7.66699 6 -23l-53 -392c-1.33301 -14.667 -5.33301 -24 -12 -28c-14 -6 -27.667 -9.66699 -41 -11c10 65.333 22 149.333 36 252c14 106.667 21.333 170 22 190c17.333 8 31 12 41 12zM191 674l0.999023 0.000976562c12 0 22.667 -6 32 -18
c5.33301 -5.33301 4 -11.666 -4 -18.999c-22 -24.667 -55 -69.334 -99 -134.001c-4.66699 2 -10.667 7.33301 -18 16c-3.33301 3.33301 -1.66602 12 5.00098 26c12.667 25.333 28.5 53.166 47.5 83.499s30.833 45.5 35.5 45.5z" />
    <glyph glyph-name="icircumflex" unicode="&#xee;" horiz-adv-x="197" 
d="M136 446h1c6 0 8 -7.66699 6 -23l-53 -392c-1.33301 -14.667 -5.33301 -24 -12 -28c-14 -6 -27.667 -9.66699 -41 -11c10 65.333 22 149.333 36 252c14 106.667 21.333 170 22 190c17.333 8 31 12 41 12zM62 503l-0.998047 -0.000976562c-4 0 -9 1.5 -15 4.5
s-9.66699 6.16699 -11 9.5l39.5 62c19.667 30.667 34.5 55 44.5 73c5.33301 8.66699 11.333 14 18 16c10.667 2.66699 17 4 19 4l68 -156c-10.667 -8.66699 -19.667 -13 -27 -13c-4.66699 0 -8.66699 3.33301 -12 10c-2.66699 4.66699 -18.334 39.334 -47.001 104.001
l-68 -110c-2.66699 -2.66699 -5.33398 -4 -8.00098 -4z" />
    <glyph glyph-name="idieresis" unicode="&#xef;" horiz-adv-x="197" 
d="M136 446h1c6 0 8 -7.66699 6 -23l-53 -392c-1.33301 -14.667 -5.33301 -24 -12 -28c-14 -6 -27.667 -9.66699 -41 -11c10 65.333 22 149.333 36 252c14 106.667 21.333 170 22 190c17.333 8 31 12 41 12zM56 611l1 -0.000976562c9.33301 0 17.166 -3.5 23.499 -10.5
s9.5 -15.5 9.5 -25.5c0 -11.333 -3.66699 -20.833 -11 -28.5s-16.666 -11.5 -27.999 -11.5c-10 0 -18.167 3.33301 -24.5 10s-9.5 15.334 -9.5 26.001c0 10 3.5 19.167 10.5 27.5s16.5 12.5 28.5 12.5zM206 610.999h1.00098c10 0 18 -3.5 24 -10.5s9 -15.5 9 -25.5
c0 -11.333 -3.66699 -20.833 -11 -28.5s-16.333 -11.5 -27 -11.5c-10 0 -18.333 3.16699 -25 9.5s-10 14.833 -10 25.5c0 10 3.66699 19.333 11 28s16.666 13 27.999 13z" />
    <glyph glyph-name="eth" unicode="&#xf0;" horiz-adv-x="428" 
d="M390 618l-69.9961 -43.998c49.333 -68 74 -150.667 74 -248c0 -28.667 -2.33301 -57.5 -7 -86.5s-12.5 -59 -23.5 -90s-24.833 -58.167 -41.5 -81.5s-38.5 -42.5 -65.5 -57.5s-57.5 -22.5 -91.5 -22.5c-47.333 0 -81.833 16.333 -103.5 49s-32.5 73 -32.5 121
c0.666992 45.333 9.5 89.5 26.5 132.5s43.333 79.667 79 110s76.5 45.5 122.5 45.5c31.333 0 57.666 -8.33301 78.999 -25c-1.33301 14.667 -7.66602 36.5 -18.999 65.5s-23 50.5 -35 64.5l-102 -60c-6 -4 -10.833 -5.5 -14.5 -4.5s-5.16699 4.5 -4.5 10.5
c0 10 1.66699 18.333 5 25l96 57c-10.667 13.333 -29.334 27.666 -56.001 42.999s-50.334 25.666 -71.001 30.999l-1 2c4 5.33301 7.33301 10 10 14c6 7.33301 13.667 11 23 11c10.667 -0.666992 30.667 -9 60 -25s53.666 -34 72.999 -54l79 50
c10.667 6.66699 16 5.66699 16 -3c1.33301 -10.667 -0.333984 -20.667 -5.00098 -30zM177.004 25.002h1.00293c11.333 0 23.666 2.5 36.999 7.5s27.666 14.667 42.999 29s29.166 32.166 41.499 53.499s22.666 50 30.999 86s12.5 76.667 12.5 122
c0 4 -0.166992 10.5 -0.5 19.5s-0.5 15.833 -0.5 20.5c-6 13.333 -17.167 24 -33.5 32s-33.5 12 -51.5 12c-51.333 0 -93.166 -25.167 -125.499 -75.5s-48.5 -108.166 -48.5 -173.499c0 -40.667 7.83301 -73 23.5 -97s39.167 -36 70.5 -36z" />
    <glyph glyph-name="ntilde" unicode="&#xf1;" horiz-adv-x="486" 
d="M120 248h2.99902c30.667 58.667 67 106.334 109 143.001s81.333 55 118 55c12 0 22.167 -1.66699 30.5 -5s16.833 -10.5 25.5 -21.5s13.334 -27.167 14.001 -48.5s-1 -50 -5 -86c-2 -11.333 -5.5 -32.5 -10.5 -63.5l-13.5 -83.5c-11.333 -78.667 -17 -125 -17 -139
c-14.667 -7.33301 -30.334 -11 -47.001 -11c-1.33301 2 -2 7 -2 15s1.33301 23.667 4 47s6.66699 50.666 12 81.999c0.666992 5.33301 4.5 28 11.5 68s12.167 73.333 15.5 100c6 28.667 6.33301 52.834 1 72.501s-18 29.5 -38 29.5c-18 0 -38.5 -8 -61.5 -24
s-46.333 -38.333 -70 -67s-45.667 -67 -66 -115s-35.166 -100.667 -44.499 -158c-2.66699 -12.667 -5.16699 -21.334 -7.5 -26.001s-6.16602 -8.33398 -11.499 -11.001c-9.33301 -5.33301 -21.666 -8.33301 -36.999 -9c13.333 72.667 27 158 41 256
c14 98.667 20 160.667 18 186c10.667 8 25.334 12 44.001 12c1.33301 0 2.16602 -4.16699 2.49902 -12.5s-0.333984 -24.166 -2.00098 -47.499s-4.83398 -52.333 -9.50098 -87c-0.666992 -8.66699 -3 -25.667 -7 -51zM230.999 625l1.00195 0.000976562
c18 0 37 -11.333 57 -34c14.667 -18 24.667 -27 30 -27c10.667 0 17.667 16.667 21 50c2 7.33301 5.66699 11 11 11c8.66699 0 16.667 -5 24 -15c-1.33301 -26.667 -6.83301 -48 -16.5 -64s-22.834 -24 -39.501 -24c-4 0 -7.66699 0.5 -11 1.5s-6.33301 2.16699 -9 3.5
s-5.83398 3.66602 -9.50098 6.99902s-6.5 5.83301 -8.5 7.5s-5.33301 5.16699 -10 10.5s-8 9 -10 11c-12.667 14.667 -22.667 22 -30 22c-11.333 0 -20.333 -15.667 -27 -47c-1.33301 -6.66699 -4 -10 -8 -10s-13 2.66699 -27 8c2 23.333 7.83301 44 17.5 62
s24.5 27 44.5 27z" />
    <glyph glyph-name="ograve" unicode="&#xf2;" horiz-adv-x="446" 
d="M258 446l1 0.000976562c48 0 83.333 -15.333 106 -46s34 -71 34 -121c0 -80.667 -22 -149.334 -66 -206.001s-97.667 -85 -161 -85c-96 0 -144 55.667 -144 167c0 44 8.5 87.667 25.5 131s43.667 80.833 80 112.5s77.833 47.5 124.5 47.5zM252 409.001
l-0.999023 0.00195312c-44.667 0 -83.834 -25.5 -117.501 -76.5s-50.5 -111.5 -50.5 -181.5c0 -44.667 9 -76.834 27 -96.501s40.667 -29.5 68 -29.5c42 0 80.167 23.667 114.5 71s51.5 110.666 51.5 189.999c0 34 -7.16699 63 -21.5 87s-37.833 36 -70.5 36z
M224.001 676.003h1.00098c5.33301 -0.666992 18.166 -17.834 38.499 -51.501s35.5 -61.5 45.5 -83.5c4 -10.667 3.66699 -18 -1 -22c-2.66699 -2 -5.16699 -4 -7.5 -6s-4.16602 -3.66699 -5.49902 -5s-2.33301 -2 -3 -2c-30.667 49.333 -63.667 94.333 -99 135
c-5.33301 6.66699 -5.33301 12.334 0 17.001c13.333 12 23.666 18 30.999 18z" />
    <glyph glyph-name="oacute" unicode="&#xf3;" horiz-adv-x="446" 
d="M258 446l1 0.000976562c48 0 83.333 -15.333 106 -46s34 -71 34 -121c0 -80.667 -22 -149.334 -66 -206.001s-97.667 -85 -161 -85c-96 0 -144 55.667 -144 167c0 44 8.5 87.667 25.5 131s43.667 80.833 80 112.5s77.833 47.5 124.5 47.5zM252 409.001
l-0.999023 0.00195312c-44.667 0 -83.834 -25.5 -117.501 -76.5s-50.5 -111.5 -50.5 -181.5c0 -44.667 9 -76.834 27 -96.501s40.667 -29.5 68 -29.5c42 0 80.167 23.667 114.5 71s51.5 110.666 51.5 189.999c0 34 -7.16699 63 -21.5 87s-37.833 36 -70.5 36z
M316.001 674.003l0.998047 0.000976562c12 0 22.667 -6 32 -18c4.66699 -5.33301 3.33398 -11.666 -3.99902 -18.999c-22 -24.667 -55 -69.334 -99 -134.001c-4.66699 2 -10.667 7.33301 -18 16c-3.33301 3.33301 -1.66602 12 5.00098 26
c12.667 25.333 28.5 53.166 47.5 83.499s30.833 45.5 35.5 45.5z" />
    <glyph glyph-name="ocircumflex" unicode="&#xf4;" horiz-adv-x="446" 
d="M258 446l1 0.000976562c48 0 83.333 -15.333 106 -46s34 -71 34 -121c0 -80.667 -22 -149.334 -66 -206.001s-97.667 -85 -161 -85c-96 0 -144 55.667 -144 167c0 44 8.5 87.667 25.5 131s43.667 80.833 80 112.5s77.833 47.5 124.5 47.5zM252 409.001
l-0.999023 0.00195312c-44.667 0 -83.834 -25.5 -117.501 -76.5s-50.5 -111.5 -50.5 -181.5c0 -44.667 9 -76.834 27 -96.501s40.667 -29.5 68 -29.5c42 0 80.167 23.667 114.5 71s51.5 110.666 51.5 189.999c0 34 -7.16699 63 -21.5 87s-37.833 36 -70.5 36z
M191.001 503.003l-0.998047 -0.000976562c-4 0 -9 1.5 -15 4.5s-9.66699 6.16699 -11 9.5l39.5 62c19.667 30.667 34.5 55 44.5 73c5.33301 8.66699 11.333 14 18 16c10.667 2.66699 17 4 19 4l68 -156c-10.667 -8.66699 -19.667 -13 -27 -13
c-4.66699 0 -8.66699 3.33301 -12 10c-2.66699 4.66699 -18.334 39.334 -47.001 104.001l-68 -110c-2.66699 -2.66699 -5.33398 -4 -8.00098 -4z" />
    <glyph glyph-name="otilde" unicode="&#xf5;" horiz-adv-x="446" 
d="M258 446l1 0.000976562c48 0 83.333 -15.333 106 -46s34 -71 34 -121c0 -80.667 -22 -149.334 -66 -206.001s-97.667 -85 -161 -85c-96 0 -144 55.667 -144 167c0 44 8.5 87.667 25.5 131s43.667 80.833 80 112.5s77.833 47.5 124.5 47.5zM252 409.001
l-0.999023 0.00195312c-44.667 0 -83.834 -25.5 -117.501 -76.5s-50.5 -111.5 -50.5 -181.5c0 -44.667 9 -76.834 27 -96.501s40.667 -29.5 68 -29.5c42 0 80.167 23.667 114.5 71s51.5 110.666 51.5 189.999c0 34 -7.16699 63 -21.5 87s-37.833 36 -70.5 36z
M221.001 625.003l1.00195 0.000976562c18 0 37 -11.333 57 -34c14.667 -18 24.667 -27 30 -27c10.667 0 17.667 16.667 21 50c2 7.33301 5.66699 11 11 11c8.66699 0 16.667 -5 24 -15c-1.33301 -26.667 -6.83301 -48 -16.5 -64s-22.834 -24 -39.501 -24
c-4 0 -7.66699 0.5 -11 1.5s-6.33301 2.16699 -9 3.5s-5.83398 3.66602 -9.50098 6.99902s-6.5 5.83301 -8.5 7.5s-5.33301 5.16699 -10 10.5s-8 9 -10 11c-12.667 14.667 -22.667 22 -30 22c-11.333 0 -20.333 -15.667 -27 -47c-1.33301 -6.66699 -4 -10 -8 -10
s-13 2.66699 -27 8c2 23.333 7.83301 44 17.5 62s24.5 27 44.5 27z" />
    <glyph glyph-name="odieresis" unicode="&#xf6;" horiz-adv-x="446" 
d="M258 446l1 0.000976562c48 0 83.333 -15.333 106 -46s34 -71 34 -121c0 -80.667 -22 -149.334 -66 -206.001s-97.667 -85 -161 -85c-96 0 -144 55.667 -144 167c0 44 8.5 87.667 25.5 131s43.667 80.833 80 112.5s77.833 47.5 124.5 47.5zM252 409.001
l-0.999023 0.00195312c-44.667 0 -83.834 -25.5 -117.501 -76.5s-50.5 -111.5 -50.5 -181.5c0 -44.667 9 -76.834 27 -96.501s40.667 -29.5 68 -29.5c42 0 80.167 23.667 114.5 71s51.5 110.666 51.5 189.999c0 34 -7.16699 63 -21.5 87s-37.833 36 -70.5 36z
M194.001 611.003l1 -0.000976562c9.33301 0 17.166 -3.5 23.499 -10.5s9.5 -15.5 9.5 -25.5c0 -11.333 -3.66699 -20.833 -11 -28.5s-16.666 -11.5 -27.999 -11.5c-10 0 -18.167 3.33301 -24.5 10s-9.5 15.334 -9.5 26.001c0 10 3.5 19.167 10.5 27.5s16.5 12.5 28.5 12.5z
M344.001 611.002h1.00098c10 0 18 -3.5 24 -10.5s9 -15.5 9 -25.5c0 -11.333 -3.66699 -20.833 -11 -28.5s-16.333 -11.5 -27 -11.5c-10 0 -18.333 3.16699 -25 9.5s-10 14.833 -10 25.5c0 10 3.66699 19.333 11 28s16.666 13 27.999 13z" />
    <glyph glyph-name="divide" unicode="&#xf7;" horiz-adv-x="565" 
d="M278 350l-0.999023 0.000976562c-8.66699 0 -16.834 4 -24.501 12s-11.5 17 -11.5 27c0 10.667 3.83301 20 11.5 28s16.5 12 26.5 12c11.333 0 20.833 -3.83301 28.5 -11.5s11.5 -17.167 11.5 -28.5c0 -10.667 -4 -19.834 -12 -27.501s-17.667 -11.5 -29 -11.5z
M468.001 225.001h-407.999c1.33301 26.667 11 40 29 40h412c-0.666992 -14.667 -3.33398 -25 -8.00098 -31s-13 -9 -25 -9zM279.002 140.001l1 -0.000976562c10 0 18.667 -4 26 -12s11 -17 11 -27c0 -10.667 -3.83301 -20 -11.5 -28s-16.5 -12 -26.5 -12
c-10.667 0 -19.667 4 -27 12s-11 17.333 -11 28s3.66699 19.834 11 27.501s16.333 11.5 27 11.5z" />
    <glyph glyph-name="oslash" unicode="&#xf8;" horiz-adv-x="439" 
d="M393 446l-34.001 -51.001c23.333 -30 35 -72.333 35 -127c0.666992 -78.667 -20 -145 -62 -199s-95.333 -81 -160 -81c-35.333 0 -64.666 9 -87.999 27l-33 -46c-8.66699 -10 -15.667 -12.667 -21 -8c-5.33301 4 -9.33301 12 -12 24l42 58
c-21.333 28.667 -32 70.334 -32 125.001c0 43.333 9.16699 86 27.5 128s45.5 77.5 81.5 106.5s76 43.5 120 43.5c31.333 0 56.333 -7.66699 75 -23l23 34c10.667 16.667 19 22 25 16c8.66699 -8.66699 13 -17.667 13 -27zM92.999 88.999l214.001 297.999
c-12 14.667 -30.333 22 -55 22c-30 0 -58 -10.833 -84 -32.5s-46 -48.5 -60 -80.5s-23.333 -66.667 -28 -104s-0.333984 -71.666 12.999 -102.999zM328 351.998l-215.001 -299.001c12.667 -18.667 34.334 -28 65.001 -28c31.333 0 60 11.333 86 34s45.167 50.667 57.5 84
s20 68.833 23 106.5s-2.5 71.834 -16.5 102.501z" />
    <glyph glyph-name="ugrave" unicode="&#xf9;" horiz-adv-x="478" 
d="M342 156l-2.00195 0.998047c-58.667 -112.667 -128.667 -169 -210 -169c-34 0 -56.5 15.167 -67.5 45.5s-12.5 69.5 -4.5 117.5c6.66699 42.667 14.667 89 24 139c8 50 14.333 97.667 19 143c16 8.66699 30.667 13 44 13c5.33301 0 6.66602 -10.667 3.99902 -32
c-20.667 -124 -35.667 -218 -45 -282c-5.33301 -35.333 -3.5 -61 5.5 -77s22.167 -24 39.5 -24c16 0 33.833 5.66699 53.5 17s40.834 29.333 63.501 54s44 61.5 64 110.5s35.667 106.167 47 171.5c4.66699 30.667 11.334 48.334 20.001 53.001c12.667 6 25.334 9 38.001 9
c-22 -102 -38.667 -204.333 -50 -307c-8 -59.333 -11 -106 -9 -140c-16 -7.33301 -30 -11 -42 -11c-2 0 -3.16699 6.33301 -3.5 19s0.5 32.334 2.5 59.001s5 56.667 9 90zM227.998 675.998h1.00098c5.33301 -0.666992 18.166 -17.834 38.499 -51.501s35.5 -61.5 45.5 -83.5
c4 -10.667 3.66699 -18 -1 -22c-2.66699 -2 -5.16699 -4 -7.5 -6s-4.16602 -3.66699 -5.49902 -5s-2.33301 -2 -3 -2c-30.667 49.333 -63.667 94.333 -99 135c-5.33301 6.66699 -5.33301 12.334 0 17.001c13.333 12 23.666 18 30.999 18z" />
    <glyph glyph-name="uacute" unicode="&#xfa;" horiz-adv-x="478" 
d="M342 156l-2.00195 0.998047c-58.667 -112.667 -128.667 -169 -210 -169c-34 0 -56.5 15.167 -67.5 45.5s-12.5 69.5 -4.5 117.5c6.66699 42.667 14.667 89 24 139c8 50 14.333 97.667 19 143c16 8.66699 30.667 13 44 13c5.33301 0 6.66602 -10.667 3.99902 -32
c-20.667 -124 -35.667 -218 -45 -282c-5.33301 -35.333 -3.5 -61 5.5 -77s22.167 -24 39.5 -24c16 0 33.833 5.66699 53.5 17s40.834 29.333 63.501 54s44 61.5 64 110.5s35.667 106.167 47 171.5c4.66699 30.667 11.334 48.334 20.001 53.001c12.667 6 25.334 9 38.001 9
c-22 -102 -38.667 -204.333 -50 -307c-8 -59.333 -11 -106 -9 -140c-16 -7.33301 -30 -11 -42 -11c-2 0 -3.16699 6.33301 -3.5 19s0.5 32.334 2.5 59.001s5 56.667 9 90zM338.998 673.998l0.999023 0.000976562c12 0 22.667 -6 32 -18
c5.33301 -5.33301 4 -11.666 -4 -18.999c-22 -24.667 -55 -69.334 -99 -134.001c-4.66699 2 -10.667 7.33301 -18 16c-3.33301 3.33301 -1.66602 12 5.00098 26c12.667 25.333 28.5 53.166 47.5 83.499s30.833 45.5 35.5 45.5z" />
    <glyph glyph-name="ucircumflex" unicode="&#xfb;" horiz-adv-x="478" 
d="M342 156l-2.00195 0.998047c-58.667 -112.667 -128.667 -169 -210 -169c-34 0 -56.5 15.167 -67.5 45.5s-12.5 69.5 -4.5 117.5c6.66699 42.667 14.667 89 24 139c8 50 14.333 97.667 19 143c16 8.66699 30.667 13 44 13c5.33301 0 6.66602 -10.667 3.99902 -32
c-20.667 -124 -35.667 -218 -45 -282c-5.33301 -35.333 -3.5 -61 5.5 -77s22.167 -24 39.5 -24c16 0 33.833 5.66699 53.5 17s40.834 29.333 63.501 54s44 61.5 64 110.5s35.667 106.167 47 171.5c4.66699 30.667 11.334 48.334 20.001 53.001c12.667 6 25.334 9 38.001 9
c-22 -102 -38.667 -204.333 -50 -307c-8 -59.333 -11 -106 -9 -140c-16 -7.33301 -30 -11 -42 -11c-2 0 -3.16699 6.33301 -3.5 19s0.5 32.334 2.5 59.001s5 56.667 9 90zM208.998 502.998l-0.998047 -0.000976562c-4 0 -9 1.5 -15 4.5s-9.66699 6.16699 -11 9.5l39.5 62
c19.667 30.667 34.5 55 44.5 73c5.33301 8.66699 11.333 14 18 16c10.667 2.66699 17 4 19 4l68 -156c-10.667 -8.66699 -19.667 -13 -27 -13c-4.66699 0 -8.66699 3.33301 -12 10c-2.66699 4.66699 -18.334 39.334 -47.001 104.001l-68 -110
c-2.66699 -2.66699 -5.33398 -4 -8.00098 -4z" />
    <glyph glyph-name="udieresis" unicode="&#xfc;" horiz-adv-x="478" 
d="M342 156l-2.00195 0.998047c-58.667 -112.667 -128.667 -169 -210 -169c-34 0 -56.5 15.167 -67.5 45.5s-12.5 69.5 -4.5 117.5c6.66699 42.667 14.667 89 24 139c8 50 14.333 97.667 19 143c16 8.66699 30.667 13 44 13c5.33301 0 6.66602 -10.667 3.99902 -32
c-20.667 -124 -35.667 -218 -45 -282c-5.33301 -35.333 -3.5 -61 5.5 -77s22.167 -24 39.5 -24c16 0 33.833 5.66699 53.5 17s40.834 29.333 63.501 54s44 61.5 64 110.5s35.667 106.167 47 171.5c4.66699 30.667 11.334 48.334 20.001 53.001c12.667 6 25.334 9 38.001 9
c-22 -102 -38.667 -204.333 -50 -307c-8 -59.333 -11 -106 -9 -140c-16 -7.33301 -30 -11 -42 -11c-2 0 -3.16699 6.33301 -3.5 19s0.5 32.334 2.5 59.001s5 56.667 9 90zM210.998 610.998l1 -0.000976562c9.33301 0 17.166 -3.5 23.499 -10.5s9.5 -15.5 9.5 -25.5
c0 -11.333 -3.66699 -20.833 -11 -28.5s-16.666 -11.5 -27.999 -11.5c-10 0 -18.167 3.33301 -24.5 10s-9.5 15.334 -9.5 26.001c0 10 3.5 19.167 10.5 27.5s16.5 12.5 28.5 12.5zM360.998 610.997h1.00098c10 0 18 -3.5 24 -10.5s9 -15.5 9 -25.5
c0 -11.333 -3.66699 -20.833 -11 -28.5s-16.333 -11.5 -27 -11.5c-10 0 -18.333 3.16699 -25 9.5s-10 14.833 -10 25.5c0 10 3.66699 19.333 11 28s16.666 13 27.999 13z" />
    <glyph glyph-name="yacute" unicode="&#xfd;" horiz-adv-x="399" 
d="M-7 -225c-9.33301 0 -18.333 3.16406 -27 9.49707s-12.334 11.5 -11.001 15.5c54.667 48.667 110.667 112.334 168 191.001c-7.33301 16 -14.666 43 -21.999 81c-25.333 134.667 -42.666 255 -51.999 361c13.333 8.66699 26 13 38 13c6 0 9.66699 -6 11 -18
c10.667 -99.333 25.667 -206.666 45 -321.999c6 -36 12 -59 18 -69c56 78.667 98.667 153.834 128 225.501s45 130.5 47 176.5c9.33301 4.66699 20.333 7 33 7c5.33301 0 8 -7.33301 8 -22c0 -36.667 -13.667 -89.5 -41 -158.5s-66 -141.5 -116 -217.5
c-35.333 -53.333 -76.333 -107.5 -123 -162.5s-81.334 -91.833 -104.001 -110.5zM288 673.997l0.998047 0.000976562c12 0 22.667 -6 32 -18c4.66699 -5.33301 3.33398 -11.666 -3.99902 -18.999c-22 -24.667 -55 -69.334 -99 -134.001c-4.66699 2 -10.667 7.33301 -18 16
c-3.33301 3.33301 -1.66602 12 5.00098 26c12.667 25.333 28.5 53.166 47.5 83.499s30.833 45.5 35.5 45.5z" />
    <glyph glyph-name="thorn" unicode="&#xfe;" horiz-adv-x="480" 
d="M119 266h2.00098c70.667 119.333 144.667 179 222 179c29.333 0 52.5 -12.333 69.5 -37s25.5 -58.667 25.5 -102c0 -88 -23.833 -163 -71.5 -225s-106.167 -93 -175.5 -93c-47.333 0 -83 14 -107 42c-2.66699 -18.667 -7.83398 -51.5 -15.501 -98.5
s-12.5 -78.167 -14.5 -93.5c-4 -24 -8.66699 -39.333 -14 -46c-8 -6.66699 -22.333 -10.667 -43 -12c32.667 179.333 70.334 425 113.001 737c11.333 83.333 17.333 133 18 149c16.667 9.33301 30.667 14 42 14c6 0 7.33301 -13.333 4 -40
c-2.66699 -16 -11.334 -74.667 -26.001 -176zM325.001 400h-1.00098c-39.333 0 -83.666 -28.667 -132.999 -86s-81 -129.666 -95 -216.999c-0.666992 -4.66699 -1.5 -9.16699 -2.5 -13.5s-1.5 -7.83301 -1.5 -10.5c26.667 -31.333 60.667 -47 102 -47
c56 0 101.667 26.167 137 78.5s53 120.166 53 203.499c0 61.333 -19.667 92 -59 92z" />
    <glyph glyph-name="ydieresis" unicode="&#xff;" horiz-adv-x="399" 
d="M-7 -225c-9.33301 0 -18.333 3.16406 -27 9.49707s-12.334 11.5 -11.001 15.5c54.667 48.667 110.667 112.334 168 191.001c-7.33301 16 -14.666 43 -21.999 81c-25.333 134.667 -42.666 255 -51.999 361c13.333 8.66699 26 13 38 13c6 0 9.66699 -6 11 -18
c10.667 -99.333 25.667 -206.666 45 -321.999c6 -36 12 -59 18 -69c56 78.667 98.667 153.834 128 225.501s45 130.5 47 176.5c9.33301 4.66699 20.333 7 33 7c5.33301 0 8 -7.33301 8 -22c0 -36.667 -13.667 -89.5 -41 -158.5s-66 -141.5 -116 -217.5
c-35.333 -53.333 -76.333 -107.5 -123 -162.5s-81.334 -91.833 -104.001 -110.5zM153 610.997l1 -0.000976562c9.33301 0 17.166 -3.5 23.499 -10.5s9.5 -15.5 9.5 -25.5c0 -11.333 -3.66699 -20.833 -11 -28.5s-16.666 -11.5 -27.999 -11.5c-10 0 -18.167 3.33301 -24.5 10
s-9.5 15.334 -9.5 26.001c0 10 3.5 19.167 10.5 27.5s16.5 12.5 28.5 12.5zM303 610.996h1.00098c10 0 18 -3.5 24 -10.5s9 -15.5 9 -25.5c0 -11.333 -3.66699 -20.833 -11 -28.5s-16.333 -11.5 -27 -11.5c-10 0 -18.333 3.16699 -25 9.5s-10 14.833 -10 25.5
c0 10 3.66699 19.333 11 28s16.666 13 27.999 13z" />
    <glyph glyph-name="Amacron" unicode="&#x100;" horiz-adv-x="585" 
d="M409 228l-254.002 0.00195312l-51.5 -94.5l-43.5 -81.5l-25 -47c-4 -7.33301 -9.33301 -11 -16 -11c-7.33301 0 -18.333 3.33301 -33 10l-1 2c186.667 337.333 293.334 532.666 320.001 585.999l-7 21c6.66699 10 18.334 15 35.001 15c6 0 10.333 -4.33301 13 -13
l63.5 -210.5c31 -104.333 51.833 -172.833 62.5 -205.5c30.667 -102.667 51.667 -167.334 63 -194.001v-2c-19.333 -6 -33.333 -9 -42 -9c-4 0 -7.33301 1.66699 -10 5s-5.66699 10.333 -9 21c-6.66699 20 -16.167 50.5 -28.5 91.5zM175.998 267.002h224l-33 113l-29 100.5
l-18 61.5zM414.998 670.002l-168.002 -0.000976562c-7.33301 0 -11.666 3.66699 -12.999 11c0 10.667 4.33301 20.334 13 29.001h172c7.33301 0 11 -2 11 -6c0 -3.33301 -1.66699 -9 -5 -17s-6.66602 -13.667 -9.99902 -17z" />
    <glyph glyph-name="amacron" unicode="&#x101;" horiz-adv-x="466" 
d="M24 113l-0.000976562 1.00293c0 44 9 90.5 27 139.5s44.667 90.5 80 124.5c48.667 45.333 108 68 178 68c24.667 0 61.667 -6 111 -18c-16.667 -72 -32 -168.333 -46 -289c-7.33301 -52.667 -11 -99.334 -11 -140.001c-16 -7.33301 -30.333 -11 -43 -11
c-2 0 -3 5.83301 -3 17.5s0.833008 28.167 2.5 49.5s4.16699 44.666 7.5 69.999c0 2 1.33301 11.167 4 27.5s4.33398 28.166 5.00098 35.499c-34 -66.667 -71.833 -116.667 -113.5 -150s-81.5 -50 -119.5 -50c-22.667 0 -41.5 10.333 -56.5 31s-22.5 52 -22.5 94z
M122.999 32.0029h0.99707c42.667 0 88.667 32.333 138 97s81.333 139 96 223c5.33301 21.333 8 36.333 8 45c-19.333 7.33301 -40.666 11 -63.999 11c-65.333 0 -116.666 -24 -153.999 -72c-46.667 -60 -70 -134.667 -70 -224c0 -24 3.83301 -43.333 11.5 -58
s18.834 -22 33.501 -22zM371.996 544.003h-169c-7.33301 0 -11 3.33301 -11 10c0 14 4.33301 24.333 13 31h173c6 0 9 -2 9 -6c0 -11.333 -5 -23 -15 -35z" />
    <glyph glyph-name="Abreve" unicode="&#x102;" horiz-adv-x="585" 
d="M409 228l-254.002 0.00195312l-51.5 -94.5l-43.5 -81.5l-25 -47c-4 -7.33301 -9.33301 -11 -16 -11c-7.33301 0 -18.333 3.33301 -33 10l-1 2c186.667 337.333 293.334 532.666 320.001 585.999l-7 21c6.66699 10 18.334 15 35.001 15c6 0 10.333 -4.33301 13 -13
l63.5 -210.5c31 -104.333 51.833 -172.833 62.5 -205.5c30.667 -102.667 51.667 -167.334 63 -194.001v-2c-19.333 -6 -33.333 -9 -42 -9c-4 0 -7.33301 1.66699 -10 5s-5.66699 10.333 -9 21c-6.66699 20 -16.167 50.5 -28.5 91.5zM175.998 267.002h224l-33 113l-29 100.5
l-18 61.5zM268.998 779.002h1.00098c5.33301 0 8 -4.33301 8 -13c4 -20.667 10.167 -35 18.5 -43s19.833 -12 34.5 -12c16 0 29.5 3.83301 40.5 11.5s22.167 22.5 33.5 44.5c5.33301 8 10.333 12 15 12c5.33301 0 11 -1.66699 17 -5s8.33301 -7.33301 7 -12
c-8 -31.333 -22.833 -55.333 -44.5 -72s-46.834 -25 -75.501 -25s-50.5 9.83301 -65.5 29.5s-20.833 41.167 -17.5 64.5c2 13.333 11.333 20 28 20z" />
    <glyph glyph-name="abreve" unicode="&#x103;" horiz-adv-x="466" 
d="M24 113l-0.000976562 1.00293c0 44 9 90.5 27 139.5s44.667 90.5 80 124.5c48.667 45.333 108 68 178 68c24.667 0 61.667 -6 111 -18c-16.667 -72 -32 -168.333 -46 -289c-7.33301 -52.667 -11 -99.334 -11 -140.001c-16 -7.33301 -30.333 -11 -43 -11
c-2 0 -3 5.83301 -3 17.5s0.833008 28.167 2.5 49.5s4.16699 44.666 7.5 69.999c0 2 1.33301 11.167 4 27.5s4.33398 28.166 5.00098 35.499c-34 -66.667 -71.833 -116.667 -113.5 -150s-81.5 -50 -119.5 -50c-22.667 0 -41.5 10.333 -56.5 31s-22.5 52 -22.5 94z
M122.999 32.0029h0.99707c42.667 0 88.667 32.333 138 97s81.333 139 96 223c5.33301 21.333 8 36.333 8 45c-19.333 7.33301 -40.666 11 -63.999 11c-65.333 0 -116.666 -24 -153.999 -72c-46.667 -60 -70 -134.667 -70 -224c0 -24 3.83301 -43.333 11.5 -58
s18.834 -22 33.501 -22zM230.996 641.003h0.999023c4 0 6 -2.66699 6 -8c0 -50 13.667 -75 41 -75c16 0 29.667 5.33301 41 16s21.333 30.667 30 60c2.66699 4.66699 6 7 10 7c5.33301 0 10.833 -1.66699 16.5 -5s8.16699 -7.33301 7.5 -12
c-13.333 -72 -49.666 -108 -108.999 -108c-24 0 -43 9.5 -57 28.5s-19.667 43.833 -17 74.5c2 14.667 12 22 30 22z" />
    <glyph glyph-name="Aogonek" unicode="&#x104;" horiz-adv-x="585" 
d="M535 8l0.00292969 -4.99805c-24 -13.333 -45.333 -32.833 -64 -58.5s-28 -52.5 -28 -80.5c0 -13.333 3.66699 -23.666 11 -30.999s16.666 -11 27.999 -11c24.667 0 47.667 7.66699 69 23l4 -3c1.33301 -18 -1.33398 -31 -8.00098 -39
c-2 -2.66699 -5.83301 -6.33398 -11.5 -11.001s-15 -9.33398 -28 -14.001s-26.5 -7 -40.5 -7c-24.667 0 -44 7.5 -58 22.5s-21 33.833 -21 56.5c0 54.667 33 105 99 151c-5.33301 2.66699 -9.66602 9 -12.999 19c-4.66699 14 -10.5 32.667 -17.5 56l-21.5 70.5l-25 81.5
h-254l-51.5 -94.5l-43.5 -81.5l-25 -47c-4 -7.33301 -9.66699 -11 -17 -11c-6.66699 0 -17.334 3.33301 -32.001 10l-1 3c185.333 332.667 291.666 527.667 318.999 585l-6 21c5.33301 10 17 15 35 15c6 0 10.333 -4.33301 13 -13l125 -416
c34.667 -110.667 55.667 -174.334 63 -191.001zM176.003 267.002h225c-50 171.333 -77 263 -81 275l-73.5 -141z" />
    <glyph glyph-name="aogonek" unicode="&#x105;" horiz-adv-x="465" 
d="M319 0l-2.99707 1.99805c1.33301 49.333 7.66602 111.333 18.999 186c-36 -70 -74.333 -120.833 -115 -152.5s-79.667 -47.5 -117 -47.5c-22 0 -40.667 9.83301 -56 29.5s-23 50.5 -23 92.5c0 47.333 9.16699 95.5 27.5 144.5s45.166 90.167 80.499 123.5
c48.667 45.333 108 68 178 68c24.667 0 61 -6 109 -18c-17.333 -83.333 -32.666 -179.666 -45.999 -288.999c-7.33301 -66 -11 -112.667 -11 -140c-26 -18 -49.333 -39.833 -70 -65.5s-31 -51.167 -31 -76.5c0 -12.667 3.66699 -22.667 11 -30s17 -11 29 -11
c25.333 0 49.333 7.66699 72 23l3 -3c1.33301 -17.333 -1.33398 -30.333 -8.00098 -39c-4.66699 -6.66699 -14.334 -14 -29.001 -22s-32.334 -12 -53.001 -12c-25.333 0 -45.166 7.66699 -59.499 23s-21.5 34 -21.5 56c0 54.667 38 107.334 114 158.001zM122.003 31.998
h0.998047c44.667 0 91.834 33.5 141.501 100.5s81.834 145.5 96.501 235.5c2 7.33301 3.66699 17 5 29c-18 7.33301 -39 11 -63 11c-66 0 -117.667 -24 -155 -72c-46.667 -60 -70 -135.333 -70 -226c0 -22 3.83301 -40.5 11.5 -55.5s18.5 -22.5 32.5 -22.5z" />
    <glyph glyph-name="Cacute" unicode="&#x106;" horiz-adv-x="521" 
d="M474 66l2.00195 -1c-1.33301 -19.333 -6.66602 -34 -15.999 -44c-39.333 -24 -92 -36 -158 -36c-83.333 0 -147.5 26.167 -192.5 78.5s-67.5 120.5 -67.5 204.5c0 33.333 4.33301 66.833 13 100.5s22.667 66.834 42 99.501s42.666 61.667 69.999 87
s61.166 45.833 101.499 61.5s84.166 23.5 131.499 23.5c61.333 0 104.666 -11.667 129.999 -35c-3.33301 -25.333 -13.666 -34 -30.999 -26c-31.333 14 -65.666 21 -102.999 21c-86.667 0 -157.834 -31.5 -213.501 -94.5s-83.5 -141.833 -83.5 -236.5
c0 -70.667 18.667 -128.834 56 -174.501s91 -68.5 161 -68.5c64 0 116.667 13.333 158 40zM471.002 782c5.33301 -2.66699 11.501 -7.33301 18.501 -14s11.833 -12.667 14.5 -18c2.66699 -7.33301 -1 -12.666 -11 -15.999c-59.333 -16.667 -111 -35.334 -155 -56.001
c-5.33301 3.33301 -9.33301 8.33301 -12 15c-3.33301 7.33301 -1 13.333 7 18c17.333 12 42.166 26.5 74.499 43.5s53.5 26.167 63.5 27.5z" />
    <glyph glyph-name="cacute" unicode="&#x107;" horiz-adv-x="373" 
d="M274 446h0.999023c13.333 0 27.333 -2.5 42 -7.5s24 -10.5 28 -16.5c-1.33301 -8.66699 -4.5 -15.5 -9.5 -20.5s-9.5 -6.83301 -13.5 -5.5c-19.333 7.33301 -38 11 -56 11c-52 0 -95.833 -25 -131.5 -75s-53.5 -111 -53.5 -183c0 -37.333 7.5 -66.333 22.5 -87
s36.833 -31 65.5 -31c48.667 0 95.334 23.333 140.001 70c6.66699 -4 10 -11 10 -21c0 -8 -4 -16 -12 -24c-42 -45.333 -93.333 -68 -154 -68c-34.667 0 -64 12.167 -88 36.5s-36 63.5 -36 117.5c0 78 22.833 148.167 68.5 210.5s104.5 93.5 176.5 93.5zM306.999 674
l0.999023 0.000976562c12 0 22.667 -6 32 -18c5.33301 -5.33301 4 -11.666 -4 -18.999c-22 -24.667 -55 -69.334 -99 -134.001c-4.66699 2 -10.667 7.33301 -18 16c-3.33301 3.33301 -1.66602 12 5.00098 26c12.667 25.333 28.5 53.166 47.5 83.499s30.833 45.5 35.5 45.5z
" />
    <glyph glyph-name="Ccircumflex" unicode="&#x108;" horiz-adv-x="521" 
d="M474 66l2.00195 -1c-1.33301 -19.333 -6.66602 -34 -15.999 -44c-39.333 -24 -92 -36 -158 -36c-83.333 0 -147.5 26.167 -192.5 78.5s-67.5 120.5 -67.5 204.5c0 33.333 4.33301 66.833 13 100.5s22.667 66.834 42 99.501s42.666 61.667 69.999 87
s61.166 45.833 101.499 61.5s84.166 23.5 131.499 23.5c61.333 0 104.666 -11.667 129.999 -35c-3.33301 -25.333 -13.666 -34 -30.999 -26c-31.333 14 -65.666 21 -102.999 21c-86.667 0 -157.834 -31.5 -213.501 -94.5s-83.5 -141.833 -83.5 -236.5
c0 -70.667 18.667 -128.834 56 -174.501s91 -68.5 161 -68.5c64 0 116.667 13.333 158 40zM297.002 678h-0.998047c-8 0 -15.667 3.66699 -23 11c37.333 32 71 63 101 93c4 4 8.33301 7.33301 13 10c6 1.33301 11 2 15 2c21.333 -32 50.333 -65.333 87 -100
c-7.33301 -10.667 -16 -16 -26 -16c-8.66699 0 -14.334 2 -17.001 6c-8 6 -27.333 25.667 -58 59c-30 -28 -53.667 -47.333 -71 -58c-10.667 -4.66699 -17.334 -7 -20.001 -7z" />
    <glyph glyph-name="ccircumflex" unicode="&#x109;" horiz-adv-x="373" 
d="M274 446h0.999023c13.333 0 27.333 -2.5 42 -7.5s24 -10.5 28 -16.5c-1.33301 -8.66699 -4.5 -15.5 -9.5 -20.5s-9.5 -6.83301 -13.5 -5.5c-19.333 7.33301 -38 11 -56 11c-52 0 -95.833 -25 -131.5 -75s-53.5 -111 -53.5 -183c0 -37.333 7.5 -66.333 22.5 -87
s36.833 -31 65.5 -31c48.667 0 95.334 23.333 140.001 70c6.66699 -4 10 -11 10 -21c0 -8 -4 -16 -12 -24c-42 -45.333 -93.333 -68 -154 -68c-34.667 0 -64 12.167 -88 36.5s-36 63.5 -36 117.5c0 78 22.833 148.167 68.5 210.5s104.5 93.5 176.5 93.5zM176.999 503
l-0.999023 -0.000976562c-4 0 -9 1.5 -15 4.5s-9.66699 6.16699 -11 9.5l39.5 62c19.667 30.667 34.5 55 44.5 73c5.33301 8.66699 11.333 14 18 16c10.667 2.66699 17 4 19 4c6.66699 -17.333 29.334 -69.333 68.001 -156c-10.667 -8.66699 -19.667 -13 -27 -13
c-4.66699 0 -8.66699 3.33301 -12 10c-2.66699 4.66699 -18.334 39.334 -47.001 104.001l-68 -110c-2.66699 -2.66699 -5.33398 -4 -8.00098 -4z" />
    <glyph glyph-name="Cdotaccent" unicode="&#x10a;" horiz-adv-x="521" 
d="M474 66l2.00195 -1c-1.33301 -19.333 -6.66602 -34 -15.999 -44c-39.333 -24 -92 -36 -158 -36c-83.333 0 -147.5 26.167 -192.5 78.5s-67.5 120.5 -67.5 204.5c0 33.333 4.33301 66.833 13 100.5s22.667 66.834 42 99.501s42.666 61.667 69.999 87
s61.166 45.833 101.499 61.5s84.166 23.5 131.499 23.5c61.333 0 104.666 -11.667 129.999 -35c-3.33301 -25.333 -13.666 -34 -30.999 -26c-31.333 14 -65.666 21 -102.999 21c-86.667 0 -157.834 -31.5 -213.501 -94.5s-83.5 -141.833 -83.5 -236.5
c0 -70.667 18.667 -128.834 56 -174.501s91 -68.5 161 -68.5c64 0 116.667 13.333 158 40zM385.002 763h1.00195c9.33301 0 17.166 -3.66699 23.499 -11s9.5 -16 9.5 -26c0 -11.333 -3.66699 -20.833 -11 -28.5s-16.333 -11.5 -27 -11.5c-10 0 -18.333 3.33301 -25 10
s-10 15.667 -10 27c0 10 3.66699 19.167 11 27.5s16.666 12.5 27.999 12.5z" />
    <glyph glyph-name="cdotaccent" unicode="&#x10b;" horiz-adv-x="373" 
d="M274 446h0.999023c13.333 0 27.333 -2.5 42 -7.5s24 -10.5 28 -16.5c-1.33301 -8.66699 -4.5 -15.5 -9.5 -20.5s-9.5 -6.83301 -13.5 -5.5c-19.333 7.33301 -38 11 -56 11c-52 0 -95.833 -25 -131.5 -75s-53.5 -111 -53.5 -183c0 -37.333 7.5 -66.333 22.5 -87
s36.833 -31 65.5 -31c48.667 0 95.334 23.333 140.001 70c6.66699 -4 10 -11 10 -21c0 -8 -4 -16 -12 -24c-42 -45.333 -93.333 -68 -154 -68c-34.667 0 -64 12.167 -88 36.5s-36 63.5 -36 117.5c0 78 22.833 148.167 68.5 210.5s104.5 93.5 176.5 93.5zM257.999 611
l1.00098 0.000976562c9.33301 0 17.166 -3.5 23.499 -10.5s9.5 -15.167 9.5 -24.5c0 -12 -3.5 -21.833 -10.5 -29.5s-16.167 -11.5 -27.5 -11.5c-10 0 -18.333 3.16699 -25 9.5s-10 15.166 -10 26.499c0 10 3.5 19.167 10.5 27.5s16.5 12.5 28.5 12.5z" />
    <glyph glyph-name="Ccaron" unicode="&#x10c;" horiz-adv-x="521" 
d="M474 66l2.00195 -1c-1.33301 -19.333 -6.66602 -34 -15.999 -44c-39.333 -24 -92 -36 -158 -36c-83.333 0 -147.5 26.167 -192.5 78.5s-67.5 120.5 -67.5 204.5c0 33.333 4.33301 66.833 13 100.5s22.667 66.834 42 99.501s42.666 61.667 69.999 87
s61.166 45.833 101.499 61.5s84.166 23.5 131.499 23.5c61.333 0 104.666 -11.667 129.999 -35c-3.33301 -25.333 -13.666 -34 -30.999 -26c-31.333 14 -65.666 21 -102.999 21c-86.667 0 -157.834 -31.5 -213.501 -94.5s-83.5 -141.833 -83.5 -236.5
c0 -70.667 18.667 -128.834 56 -174.501s91 -68.5 161 -68.5c64 0 116.667 13.333 158 40zM469.002 794l1 0.00292969c8.66699 0 16.667 -3.66699 24 -11c-54.667 -48 -88.334 -79 -101.001 -93c-1.33301 -0.666992 -3.5 -2 -6.5 -4s-5.16699 -3.33301 -6.5 -4
c-5.33301 -2.66699 -10.666 -4 -15.999 -4c-22.667 35.333 -51 68.666 -85 99.999c5.33301 10.667 13.333 16 24 16c10 0 16.333 -1.66699 19 -5c14.667 -12.667 33.667 -32.334 57 -59.001c25.333 23.333 48.666 42.666 69.999 57.999c6.66699 4 13.334 6 20.001 6z" />
    <glyph glyph-name="ccaron" unicode="&#x10d;" horiz-adv-x="373" 
d="M274 446h0.999023c13.333 0 27.333 -2.5 42 -7.5s24 -10.5 28 -16.5c-1.33301 -8.66699 -4.5 -15.5 -9.5 -20.5s-9.5 -6.83301 -13.5 -5.5c-19.333 7.33301 -38 11 -56 11c-52 0 -95.833 -25 -131.5 -75s-53.5 -111 -53.5 -183c0 -37.333 7.5 -66.333 22.5 -87
s36.833 -31 65.5 -31c48.667 0 95.334 23.333 140.001 70c6.66699 -4 10 -11 10 -21c0 -8 -4 -16 -12 -24c-42 -45.333 -93.333 -68 -154 -68c-34.667 0 -64 12.167 -88 36.5s-36 63.5 -36 117.5c0 78 22.833 148.167 68.5 210.5s104.5 93.5 176.5 93.5zM319.999 672
h0.999023c4.66699 0 9.83398 -1.33301 15.501 -4s9.16699 -6 10.5 -10l-37.5 -59c-20.333 -32 -35.833 -57.333 -46.5 -76c-6 -8.66699 -12.333 -14 -19 -16c-9.33301 -2.66699 -15.333 -4 -18 -4c-12 30.667 -34.667 82.667 -68 156c10.667 8.66699 20 13 28 13
c4.66699 0 8.66699 -3.33301 12 -10l20 -45.5l25 -57.5c20 34 42.333 69.333 67 106c2.66699 4.66699 6 7 10 7z" />
    <glyph glyph-name="Dcaron" unicode="&#x10e;" horiz-adv-x="604" 
d="M96 578l-0.99707 0.999023c1.33301 12.667 6 24.334 14 35.001c38 10.667 85 16 141 16c104.667 0 184.167 -24 238.5 -72s81.166 -122.333 80.499 -223c-0.666992 -71.333 -17.167 -133.5 -49.5 -186.5s-75 -92.667 -128 -119s-112.5 -39.5 -178.5 -39.5
c-52 0 -107.333 8.66699 -166 26c10 60.667 22 138 36 232s23 153.333 27 178l23 158c-4.66699 -0.666992 -10.834 -1.5 -18.501 -2.5s-13.834 -2.16699 -18.501 -3.5zM514.003 330.999c0 174.667 -91.3311 261.997 -273.998 261.997c-19.333 0 -38 -1 -56 -3
c-9.33301 -61.333 -22.5 -152.666 -39.5 -273.999s-30.167 -212.666 -39.5 -273.999c31.333 -10 67.333 -15 108 -15s78.667 6.16699 114 18.5s67.166 30.5 95.499 54.5s50.666 55.833 66.999 95.5s24.5 84.834 24.5 135.501zM410.005 780.996l1.00098 0.00292969
c8.66699 0 16.667 -3.66699 24 -11c-54.667 -48 -88.334 -79 -101.001 -93c-1.33301 -0.666992 -3.5 -2 -6.5 -4s-5.16699 -3.33301 -6.5 -4c-5.33301 -2.66699 -10.666 -4 -15.999 -4c-22.667 35.333 -51 68.666 -85 99.999c5.33301 10.667 13.333 16 24 16
c10 0 16.333 -1.66699 19 -5c14.667 -12.667 33.667 -32.334 57 -59.001c25.333 23.333 48.666 42.666 69.999 57.999c7.33301 4 14 6 20 6z" />
    <glyph glyph-name="dcaron" unicode="&#x10f;" horiz-adv-x="476" 
d="M113 -12l-1.00098 0.000976562c-27.333 0 -49 11.667 -65 35s-24 57.333 -24 102c0 52 10.333 102 31 150s51.834 88.5 93.501 121.5s88.834 49.5 141.501 49.5c34 0 63 -8.66699 87 -26c14.667 85.333 26.334 168 35.001 248c12.667 8 26.667 12 42 12
c5.33301 0 6 -14.333 2 -43c-42.667 -269.333 -67.667 -435.333 -75 -498c-7.33301 -55.333 -10.333 -102 -9 -140c-16 -7.33301 -30.333 -11 -43 -11c-2.66699 0.666992 -3.33398 15.167 -2.00098 43.5s3.66602 58.5 6.99902 90.5c6 37.333 9 56.666 9 57.999
c-30 -56 -65.333 -102 -106 -138s-81.667 -54 -123 -54zM128.999 33.001h0.999023c42.667 0 89 31 139 93s81.667 136 95 222c0.666992 2.66699 1.5 8.16699 2.5 16.5s1.83301 13.833 2.5 16.5c-21.333 18 -49.666 27 -84.999 27c-61.333 0 -111.333 -27.5 -150 -82.5
s-58 -121.833 -58 -200.5c0 -61.333 17.667 -92 53 -92zM584.998 696.001h0.999023c9.33301 0 14 -10 14 -30c0 -26 -10.167 -55.333 -30.5 -88s-42.166 -56.334 -65.499 -71.001c-8.66699 -4 -20.667 -5.66699 -36 -5c42 48 65.667 95 71 141
c0.666992 4.66699 1 16.334 1 35.001c16.667 12 31.667 18 45 18z" />
    <glyph glyph-name="Dcroat" unicode="&#x110;" horiz-adv-x="614" 
d="M106 578l-0.998047 0.999023c1.33301 12.667 6 24.334 14 35.001c38 10.667 85 16 141 16c104 0 183.333 -24.333 238 -73s81.667 -123.667 81 -225c-0.666992 -71.333 -17.167 -133.166 -49.5 -185.499s-75 -91.5 -128 -117.5s-112.5 -39 -178.5 -39
c-52 0 -107.333 8.66699 -166 26c15.333 93.333 30 188.666 44 285.999h-84c6 26 22.667 39 50 39h40c2 12 4.5 28.5 7.5 49.5s4.83301 32.833 5.5 35.5c13.333 93.333 21 146 23 158c-4.66699 -0.666992 -10.834 -1.5 -18.501 -2.5s-13.834 -2.16699 -18.501 -3.5z
M278.002 301.999h-125.998l-37 -260c31.333 -10 67.333 -15 108 -15s78.667 6.16699 114 18.5s67.166 30.5 95.499 54.5s50.666 55.667 66.999 95s24.5 84.333 24.5 135c0 175.333 -91.333 263 -274 263c-19.333 0 -38 -1 -56 -3l-36 -249h174c-6 -26 -24 -39 -54 -39z" />
    <glyph glyph-name="dcroat" unicode="&#x111;" horiz-adv-x="476" 
d="M23 124l-0.00195312 0.998047c0 51.333 10.167 101 30.5 149s51.5 88.667 93.5 122s89.667 50 143 50c33.333 0 62 -8.66699 86 -26l18 119h-125c2.66699 24.667 16.667 37 42 37h88c8 58.667 12 89.334 12 92.001c12.667 8 26.667 12 42 12c5.33301 0 6 -14.333 2 -43
c-4.66699 -29.333 -8 -49.666 -10 -60.999h75c-0.666992 -16 -5.16699 -26.167 -13.5 -30.5s-22.166 -6.5 -41.499 -6.5h-26c-34 -218 -53.667 -351.333 -59 -400c-6 -46 -9 -92.667 -9 -140c-16 -7.33301 -30 -11 -42 -11c-2 0 -3.16699 5 -3.5 15s0 25.167 1 45.5
s3.16699 43.5 6.5 69.5c0.666992 2 2 10.167 4 24.5l5 36.5c-27.333 -52 -61.666 -96.833 -102.999 -134.5s-84 -56.5 -128 -56.5c-26.667 0 -48 11.5 -64 34.5s-24 56.833 -24 101.5zM127.998 32.998l0.998047 0.000976562c42.667 0 89.5 31.167 140.5 93.5
s83.167 138.5 96.5 228.5c0 0.666992 0.333008 4.16699 1 10.5s1.33398 11.166 2.00098 14.499c-23.333 18.667 -51.666 28 -84.999 28c-60.667 0 -110.5 -27.833 -149.5 -83.5s-58.5 -122.834 -58.5 -201.501c0 -27.333 4.66699 -49.166 14 -65.499s22 -24.5 38 -24.5z" />
    <glyph glyph-name="Emacron" unicode="&#x112;" horiz-adv-x="413" 
d="M143 341h222c-4 -16.667 -10.167 -27.334 -18.5 -32.001s-24.166 -7 -47.499 -7h-163l-35 -260c17.333 -6 58.333 -9 123 -9c72.667 0 122.667 2 150 6l1 -2c-1.33301 -7.33301 -5.33301 -15.166 -12 -23.499s-14.667 -13.5 -24 -15.5
c-15.333 -2.66699 -50.333 -4 -105 -4c-80.667 0 -139.334 3.66699 -176.001 11l-12 16l67 463c4.66699 34 10 76.667 16 128c12 6.66699 26.333 11 43 13h222c0 -14.667 -4.66699 -24.667 -14 -30c-9.33301 -6 -30.333 -9 -63 -9h-140zM355 683l-168.002 -0.000976562
c-7.33301 0 -11.666 3.66699 -12.999 11c0 10.667 4.33301 20.334 13 29.001h172c7.33301 0 11 -2 11 -6c0 -3.33301 -1.66699 -9 -5 -17s-6.66602 -13.667 -9.99902 -17z" />
    <glyph glyph-name="emacron" unicode="&#x113;" horiz-adv-x="385" 
d="M259 446h1.00098c26.667 0 48.334 -7.16699 65.001 -21.5s25 -33.833 25 -58.5c0 -27.333 -8.5 -51.666 -25.5 -72.999s-39.333 -38.333 -67 -51s-56.334 -22.334 -86.001 -29.001s-59.834 -10.667 -90.501 -12c-2 -10.667 -3 -26.667 -3 -48
c0 -37.333 7.5 -67.166 22.5 -89.499s37.5 -33.5 67.5 -33.5c55.333 0 105 26.333 149 79c6.66699 -2 10 -8.66699 10 -20c0 -10.667 -4.66699 -21.334 -14 -32.001c-39.333 -46 -92.333 -69 -159 -69c-84 0 -126 53 -126 159c0 74 21 142.333 63 205s98 94 168 94z
M249.001 410h-1c-40 0 -74.167 -17 -102.5 -51s-47.833 -74.667 -58.5 -122c74 4.66699 128.5 18.5 163.5 41.5s52.5 50.5 52.5 82.5c0 15.333 -5 27.333 -15 36s-23 13 -39 13zM330.001 544h-169c-7.33301 0 -11 3.33301 -11 10c0 14 4.33301 24.333 13 31h173
c6 0 9 -2 9 -6c0 -11.333 -5 -23 -15 -35z" />
    <glyph glyph-name="Ebreve" unicode="&#x114;" horiz-adv-x="413" 
d="M143 341h222c-4 -16.667 -10.167 -27.334 -18.5 -32.001s-24.166 -7 -47.499 -7h-163l-35 -260c17.333 -6 58.333 -9 123 -9c72.667 0 122.667 2 150 6l1 -2c-1.33301 -7.33301 -5.33301 -15.166 -12 -23.499s-14.667 -13.5 -24 -15.5
c-15.333 -2.66699 -50.333 -4 -105 -4c-80.667 0 -139.334 3.66699 -176.001 11l-12 16l67 463c4.66699 34 10 76.667 16 128c12 6.66699 26.333 11 43 13h222c0 -14.667 -4.66699 -24.667 -14 -30c-9.33301 -6 -30.333 -9 -63 -9h-140zM208 779h1.00098
c5.33301 0 8 -4.33301 8 -13c4 -20.667 10.167 -35 18.5 -43s19.833 -12 34.5 -12c16 0 29.5 3.83301 40.5 11.5s22.167 22.5 33.5 44.5c5.33301 8 10.333 12 15 12c5.33301 0 11 -1.66699 17 -5s8.33301 -7.33301 7 -12c-8 -31.333 -22.833 -55.333 -44.5 -72
s-46.834 -25 -75.501 -25s-50.5 9.83301 -65.5 29.5s-20.833 41.167 -17.5 64.5c2 13.333 11.333 20 28 20z" />
    <glyph glyph-name="ebreve" unicode="&#x115;" horiz-adv-x="385" 
d="M259 446h1.00098c26.667 0 48.334 -7.16699 65.001 -21.5s25 -33.833 25 -58.5c0 -27.333 -8.5 -51.666 -25.5 -72.999s-39.333 -38.333 -67 -51s-56.334 -22.334 -86.001 -29.001s-59.834 -10.667 -90.501 -12c-2 -10.667 -3 -26.667 -3 -48
c0 -37.333 7.5 -67.166 22.5 -89.499s37.5 -33.5 67.5 -33.5c55.333 0 105 26.333 149 79c6.66699 -2 10 -8.66699 10 -20c0 -10.667 -4.66699 -21.334 -14 -32.001c-39.333 -46 -92.333 -69 -159 -69c-84 0 -126 53 -126 159c0 74 21 142.333 63 205s98 94 168 94z
M249.001 410h-1c-40 0 -74.167 -17 -102.5 -51s-47.833 -74.667 -58.5 -122c74 4.66699 128.5 18.5 163.5 41.5s52.5 50.5 52.5 82.5c0 15.333 -5 27.333 -15 36s-23 13 -39 13zM193.001 641h0.999023c4 0 6 -2.66699 6 -8c0 -50 13.667 -75 41 -75
c16 0 29.667 5.33301 41 16s21.333 30.667 30 60c2.66699 4.66699 6 7 10 7c5.33301 0 10.833 -1.66699 16.5 -5s8.16699 -7.33301 7.5 -12c-13.333 -72 -49.666 -108 -108.999 -108c-24 0 -43 9.5 -57 28.5s-19.667 43.833 -17 74.5c2 14.667 12 22 30 22z" />
    <glyph glyph-name="Edotaccent" unicode="&#x116;" horiz-adv-x="413" 
d="M143 341h222c-4 -16.667 -10.167 -27.334 -18.5 -32.001s-24.166 -7 -47.499 -7h-163l-35 -260c17.333 -6 58.333 -9 123 -9c72.667 0 122.667 2 150 6l1 -2c-1.33301 -7.33301 -5.33301 -15.166 -12 -23.499s-14.667 -13.5 -24 -15.5
c-15.333 -2.66699 -50.333 -4 -105 -4c-80.667 0 -139.334 3.66699 -176.001 11l-12 16l67 463c4.66699 34 10 76.667 16 128c12 6.66699 26.333 11 43 13h222c0 -14.667 -4.66699 -24.667 -14 -30c-9.33301 -6 -30.333 -9 -63 -9h-140zM278 742h1.00195
c9.33301 0 17.166 -3.66699 23.499 -11s9.5 -16 9.5 -26c0 -11.333 -3.66699 -20.833 -11 -28.5s-16.333 -11.5 -27 -11.5s-19.167 3.16699 -25.5 9.5s-9.5 15.5 -9.5 27.5c0 10 3.66699 19.167 11 27.5s16.666 12.5 27.999 12.5z" />
    <glyph glyph-name="edotaccent" unicode="&#x117;" horiz-adv-x="385" 
d="M259 446h1.00098c26.667 0 48.334 -7.16699 65.001 -21.5s25 -33.833 25 -58.5c0 -27.333 -8.5 -51.666 -25.5 -72.999s-39.333 -38.333 -67 -51s-56.334 -22.334 -86.001 -29.001s-59.834 -10.667 -90.501 -12c-2 -10.667 -3 -26.667 -3 -48
c0 -37.333 7.5 -67.166 22.5 -89.499s37.5 -33.5 67.5 -33.5c55.333 0 105 26.333 149 79c6.66699 -2 10 -8.66699 10 -20c0 -10.667 -4.66699 -21.334 -14 -32.001c-39.333 -46 -92.333 -69 -159 -69c-84 0 -126 53 -126 159c0 74 21 142.333 63 205s98 94 168 94z
M249.001 410h-1c-40 0 -74.167 -17 -102.5 -51s-47.833 -74.667 -58.5 -122c74 4.66699 128.5 18.5 163.5 41.5s52.5 50.5 52.5 82.5c0 15.333 -5 27.333 -15 36s-23 13 -39 13zM249.001 611l1.00098 0.000976562c9.33301 0 17.166 -3.5 23.499 -10.5s9.5 -15.167 9.5 -24.5
c0 -12 -3.5 -21.833 -10.5 -29.5s-16.167 -11.5 -27.5 -11.5c-10 0 -18.333 3.16699 -25 9.5s-10 15.166 -10 26.499c0 10 3.5 19.167 10.5 27.5s16.5 12.5 28.5 12.5z" />
    <glyph glyph-name="Eogonek" unicode="&#x118;" horiz-adv-x="413" 
d="M375 39l0.00195312 -2.00098c-1.33301 -7.33301 -5.33301 -15.166 -12 -23.499s-14.667 -13.5 -24 -15.5c-2 -0.666992 -4.83301 -1.16699 -8.5 -1.5s-6.5 -0.5 -8.5 -0.5c-55.333 -41.333 -83 -85.333 -83 -132c0 -13.333 3.66699 -23.666 11 -30.999
s16.666 -11 27.999 -11c24.667 0 47.667 7.66699 69 23l4 -2c1.33301 -16 -1.33398 -29.333 -8.00098 -40c-18 -21.333 -44.667 -32 -80 -32c-24.667 0 -44 7.5 -58 22.5s-21 33.833 -21 56.5c0 53.333 30.333 101.333 91 144h-41c-82.667 0 -140.667 3.33301 -174 10
l-13 20l66 460c4.66699 34 10 76.667 16 128c12 6.66699 26.333 11 43 13h222c0 -14.667 -4.66699 -24.667 -14 -30c-9.33301 -6 -30.333 -9 -63 -9h-140l-34 -245h222c-4 -16.667 -10.167 -27.334 -18.5 -32.001s-24.166 -7 -47.499 -7h-163l-35 -260
c18.667 -6 59.667 -9 123 -9c73.333 0 123.666 2 150.999 6z" />
    <glyph glyph-name="eogonek" unicode="&#x119;" horiz-adv-x="385" 
d="M81 201c-2 -10.667 -2.99902 -26.6689 -2.99902 -48.002c0 -37.333 7.5 -67.166 22.5 -89.499s37.5 -33.5 67.5 -33.5c33.333 0 61.333 7 84 21s44.334 33.333 65.001 58c6.66699 -2 10 -8.33301 10 -19s-4.66699 -21.667 -14 -33c-16.667 -18.667 -38.667 -35 -66 -49
c-30 -18 -57.5 -41.167 -82.5 -69.5s-37.5 -55.166 -37.5 -80.499c0 -13.333 3.66699 -23.5 11 -30.5s17 -10.5 29 -10.5c24 0 47.333 7.66699 70 23c2.66699 -1.33301 4.33398 -2.33301 5.00098 -3c1.33301 -17.333 -1.33398 -30.333 -8.00098 -39
c-4.66699 -6.66699 -14.334 -14 -29.001 -22s-32.334 -12 -53.001 -12c-25.333 0 -45.166 7.83301 -59.499 23.5s-21.5 34.5 -21.5 56.5c0 51.333 32 99.333 96 144c-48.667 -2.66699 -84 10.5 -106 39.5s-33 68.833 -33 119.5c0 46.667 8.33301 92.167 25 136.5
s43.167 82.5 79.5 114.5s78.166 48 125.499 48c27.333 0 49.5 -7.16699 66.5 -21.5s25.5 -33.833 25.5 -58.5c0 -36 -15 -66.667 -45 -92s-64.167 -43.333 -102.5 -54s-78.833 -17 -121.5 -19zM249.001 409.998h-1c-38.667 0 -72.5 -17 -101.5 -51
s-48.833 -74.667 -59.5 -122c74 4 128.5 17.833 163.5 41.5s52.5 51.167 52.5 82.5c0 15.333 -5 27.333 -15 36s-23 13 -39 13z" />
    <glyph glyph-name="Ecaron" unicode="&#x11a;" horiz-adv-x="413" 
d="M143 341h222c-4 -16.667 -10.167 -27.334 -18.5 -32.001s-24.166 -7 -47.499 -7h-163l-35 -260c17.333 -6 58.333 -9 123 -9c72.667 0 122.667 2 150 6l1 -2c-1.33301 -7.33301 -5.33301 -15.166 -12 -23.499s-14.667 -13.5 -24 -15.5
c-15.333 -2.66699 -50.333 -4 -105 -4c-80.667 0 -139.334 3.66699 -176.001 11l-12 16l67 463c4.66699 34 10 76.667 16 128c12 6.66699 26.333 11 43 13h222c0 -14.667 -4.66699 -24.667 -14 -30c-9.33301 -6 -30.333 -9 -63 -9h-140zM363 781l1 0.00292969
c8.66699 0 16.667 -3.66699 24 -11c-54.667 -48 -88.334 -79 -101.001 -93c-1.33301 -0.666992 -3.5 -2 -6.5 -4s-5.16699 -3.33301 -6.5 -4c-5.33301 -2.66699 -10.666 -4 -15.999 -4c-22.667 35.333 -51 68.666 -85 99.999c5.33301 10.667 13.333 16 24 16
c10 0 16.333 -1.66699 19 -5c14.667 -12.667 33.667 -32.334 57 -59.001c25.333 23.333 48.666 42.666 69.999 57.999c6.66699 4 13.334 6 20.001 6z" />
    <glyph glyph-name="ecaron" unicode="&#x11b;" horiz-adv-x="385" 
d="M259 446h1.00098c26.667 0 48.334 -7.16699 65.001 -21.5s25 -33.833 25 -58.5c0 -27.333 -8.5 -51.666 -25.5 -72.999s-39.333 -38.333 -67 -51s-56.334 -22.334 -86.001 -29.001s-59.834 -10.667 -90.501 -12c-2 -10.667 -3 -26.667 -3 -48
c0 -37.333 7.5 -67.166 22.5 -89.499s37.5 -33.5 67.5 -33.5c55.333 0 105 26.333 149 79c6.66699 -2 10 -8.66699 10 -20c0 -10.667 -4.66699 -21.334 -14 -32.001c-39.333 -46 -92.333 -69 -159 -69c-84 0 -126 53 -126 159c0 74 21 142.333 63 205s98 94 168 94z
M249.001 410h-1c-40 0 -74.167 -17 -102.5 -51s-47.833 -74.667 -58.5 -122c74 4.66699 128.5 18.5 163.5 41.5s52.5 50.5 52.5 82.5c0 15.333 -5 27.333 -15 36s-23 13 -39 13zM314.001 672h0.999023c4.66699 0 9.83398 -1.33301 15.501 -4s9.16699 -6 10.5 -10l-37.5 -59
c-20.333 -32 -35.833 -57.333 -46.5 -76c-6 -8.66699 -12.333 -14 -19 -16c-9.33301 -2.66699 -15.333 -4 -18 -4c-12 30.667 -34.667 82.667 -68 156c10.667 8.66699 20 13 28 13c4.66699 0 8.66699 -3.33301 12 -10l20 -45.5l25 -57.5c20 34 42.333 69.333 67 106
c2.66699 4.66699 6 7 10 7z" />
    <glyph glyph-name="Gcircumflex" unicode="&#x11c;" horiz-adv-x="594" 
d="M393 640h0.998047c34 0 65.667 -4.5 95 -13.5s51.333 -19.5 66 -31.5c-4.66699 -26.667 -19 -34.334 -43 -23.001c-36 18 -76.333 27 -121 27c-88.667 0 -159.5 -30.333 -212.5 -91s-79.5 -134 -79.5 -220c0 -85.333 22.833 -151 68.5 -197s111.167 -69 196.5 -69
c36.667 0 64 3.66699 82 11c20.667 124.667 32.334 211 35.001 259c19.333 6 33 9 41 9c8.66699 0 12.334 -5 11.001 -15c-2 -18 -7.5 -58 -16.5 -120s-16.167 -115.333 -21.5 -160c-56 -14 -106.333 -21 -151 -21c-94.667 0 -168.667 26 -222 78s-80 126 -80 222
c0 30.667 4 61.834 12 93.501s21.333 63.334 40 95.001s41.167 59.667 67.5 84s59.5 44.166 99.5 59.499s84 23 132 23zM279.998 678h-0.998047c-8 0 -15.667 3.66699 -23 11c37.333 32 71 63 101 93c3.33301 4 7.66602 7.33301 12.999 10c6 1.33301 11 2 15 2
c21.333 -32 50.333 -65.333 87 -100c-7.33301 -10.667 -16 -16 -26 -16c-8 0 -13.667 2 -17 6c-8 6 -27.333 25.667 -58 59c-30 -28 -53.667 -47.333 -71 -58c-10.667 -4.66699 -17.334 -7 -20.001 -7z" />
    <glyph glyph-name="gcircumflex" unicode="&#x11d;" horiz-adv-x="386" 
d="M219 446l0.996094 0.00195312c26 0 51 -8.33301 75 -25c6.66699 -4.66699 13 -6.33398 19 -5.00098c4 0 17.667 1.5 41 4.5s38.333 5.5 45 7.5c-2 -6 -4.66699 -21.667 -8 -47h-71c9.33301 -21.333 14 -44.333 14 -69c0 -62 -17.167 -111.833 -51.5 -149.5
s-75.166 -56.834 -122.499 -57.501c-15.333 0 -29 2 -41 6c-16 -12 -24 -22.333 -24 -31c0 -16 15 -27.667 45 -35c69.333 -19.333 116 -33.333 140 -42c20.667 -8 36.5 -19.833 47.5 -35.5s16.5 -32.5 16.5 -50.5c0 -37.333 -17.667 -71.166 -53 -101.499
s-81.666 -45.5 -138.999 -45.5c-61.333 0 -108.666 14.333 -141.999 43s-50 59.334 -50 92.001c0 35.333 39 75.333 117 120c-19.333 13.333 -29 29 -29 47c0 6 4.83301 14.167 14.5 24.5s19.834 19.166 30.501 26.499c-35.333 23.333 -53 61.666 -53 114.999
c0 52.667 16.167 100.5 48.5 143.5s75.5 64.5 129.5 64.5zM286.996 317.002v1c0 24 -6.16699 45.333 -18.5 64s-31.833 28 -58.5 28c-34.667 0 -63.334 -16.5 -86.001 -49.5s-34 -73.5 -34 -121.5c0 -32.667 6.83301 -57.334 20.5 -74.001s32.834 -25 57.501 -25
c37.333 0 66.5 17.833 87.5 53.5s31.5 76.834 31.5 123.501zM162.996 -188.998h0.999023c40.667 0 73 9.33301 97 28s36 40 36 64c0 16.667 -4.66699 30.5 -14 41.5s-26 20.5 -50 28.5c-52 17.333 -93.667 29.333 -125 36c-28.667 -15.333 -52.167 -32.166 -70.5 -50.499
s-27.5 -34.5 -27.5 -48.5c0 -26.667 14.833 -49.834 44.5 -69.501s65.834 -29.5 108.501 -29.5zM157.995 503.002l-0.999023 -0.000976562c-4 0 -9 1.5 -15 4.5s-9.66699 6.16699 -11 9.5l39.5 62c19.667 30.667 34.5 55 44.5 73c5.33301 8.66699 11.333 14 18 16
c10.667 2.66699 17 4 19 4c6.66699 -17.333 29.334 -69.333 68.001 -156c-10.667 -8.66699 -19.667 -13 -27 -13c-4.66699 0 -8.66699 3.33301 -12 10c-2.66699 4.66699 -18.334 39.334 -47.001 104.001l-68 -110c-2.66699 -2.66699 -5.33398 -4 -8.00098 -4z" />
    <glyph glyph-name="Gbreve" unicode="&#x11e;" horiz-adv-x="594" 
d="M393 640h0.998047c34 0 65.667 -4.5 95 -13.5s51.333 -19.5 66 -31.5c-4.66699 -26.667 -19 -34.334 -43 -23.001c-36 18 -76.333 27 -121 27c-88.667 0 -159.5 -30.333 -212.5 -91s-79.5 -134 -79.5 -220c0 -85.333 22.833 -151 68.5 -197s111.167 -69 196.5 -69
c36.667 0 64 3.66699 82 11c20.667 124.667 32.334 211 35.001 259c19.333 6 33 9 41 9c8.66699 0 12.334 -5 11.001 -15c-2 -18 -7.5 -58 -16.5 -120s-16.167 -115.333 -21.5 -160c-56 -14 -106.333 -21 -151 -21c-94.667 0 -168.667 26 -222 78s-80 126 -80 222
c0 30.667 4 61.834 12 93.501s21.333 63.334 40 95.001s41.167 59.667 67.5 84s59.5 44.166 99.5 59.499s84 23 132 23zM312.998 794h1.00098c5.33301 0 8 -4.33301 8 -13c4 -20.667 10.167 -35 18.5 -43s19.833 -12 34.5 -12c16 0 29.5 3.83301 40.5 11.5
s22.167 22.5 33.5 44.5c5.33301 8 10.333 12 15 12c5.33301 0 11 -1.66699 17 -5s8.33301 -7.33301 7 -12c-8 -31.333 -22.833 -55.333 -44.5 -72s-46.834 -25 -75.501 -25s-50.5 9.83301 -65.5 29.5s-20.833 41.167 -17.5 64.5c2 13.333 11.333 20 28 20z" />
    <glyph glyph-name="gbreve" unicode="&#x11f;" horiz-adv-x="386" 
d="M219 446l0.996094 0.00195312c26 0 51 -8.33301 75 -25c6.66699 -4.66699 13 -6.33398 19 -5.00098c4 0 17.667 1.5 41 4.5s38.333 5.5 45 7.5c-2 -6 -4.66699 -21.667 -8 -47h-71c9.33301 -21.333 14 -44.333 14 -69c0 -62 -17.167 -111.833 -51.5 -149.5
s-75.166 -56.834 -122.499 -57.501c-15.333 0 -29 2 -41 6c-16 -12 -24 -22.333 -24 -31c0 -16 15 -27.667 45 -35c69.333 -19.333 116 -33.333 140 -42c20.667 -8 36.5 -19.833 47.5 -35.5s16.5 -32.5 16.5 -50.5c0 -37.333 -17.667 -71.166 -53 -101.499
s-81.666 -45.5 -138.999 -45.5c-61.333 0 -108.666 14.333 -141.999 43s-50 59.334 -50 92.001c0 35.333 39 75.333 117 120c-19.333 13.333 -29 29 -29 47c0 6 4.83301 14.167 14.5 24.5s19.834 19.166 30.501 26.499c-35.333 23.333 -53 61.666 -53 114.999
c0 52.667 16.167 100.5 48.5 143.5s75.5 64.5 129.5 64.5zM286.996 317.002v1c0 24 -6.16699 45.333 -18.5 64s-31.833 28 -58.5 28c-34.667 0 -63.334 -16.5 -86.001 -49.5s-34 -73.5 -34 -121.5c0 -32.667 6.83301 -57.334 20.5 -74.001s32.834 -25 57.501 -25
c37.333 0 66.5 17.833 87.5 53.5s31.5 76.834 31.5 123.501zM162.996 -188.998h0.999023c40.667 0 73 9.33301 97 28s36 40 36 64c0 16.667 -4.66699 30.5 -14 41.5s-26 20.5 -50 28.5c-52 17.333 -93.667 29.333 -125 36c-28.667 -15.333 -52.167 -32.166 -70.5 -50.499
s-27.5 -34.5 -27.5 -48.5c0 -26.667 14.833 -49.834 44.5 -69.501s65.834 -29.5 108.501 -29.5zM177.995 641.002h0.999023c4 0 6 -2.66699 6 -8c0 -50 13.667 -75 41 -75c16 0 29.667 5.33301 41 16s21.333 30.667 30 60c2 4.66699 5.33301 7 10 7
c5.33301 0 10.833 -1.66699 16.5 -5s8.16699 -7.33301 7.5 -12c-13.333 -72 -49.666 -108 -108.999 -108c-24 0 -43 9.5 -57 28.5s-19.667 43.833 -17 74.5c2 14.667 12 22 30 22z" />
    </font>
</defs>
</svg>
